<svg xmlns="http://www.w3.org/2000/svg" width="1178" height="1180" viewBox="0 0 11780 11800"><g id="l7fvweNIv9vMPmPNHr4nMJK" fill="rgb(119,163,172)" style="transform: none;"><g><path id="pRUMQk5Zn" d="M5630 11469 c-776 -29 -1534 -224 -2240 -575 -565 -281 -1005 -598 -1456 -1048 -450 -451 -767 -891 -1048 -1456 -417 -839 -608 -1727 -575 -2675 27 -784 221 -1542 575 -2255 281 -565 598 -1005 1048 -1456 451 -450 891 -767 1456 -1048 839 -417 1727 -608 2675 -575 784 27 1542 221 2255 575 565 281 1005 598 1456 1048 450 451 767 891 1048 1456 417 839 608 1727 575 2675 -27 784 -221 1542 -575 2255 -281 565 -598 1005 -1048 1456 -451 450 -891 767 -1456 1048 -682 339 -1462 544 -2167 571 -81 3 -188 7 -238 9 -49 1 -178 -1 -285 -5z m927 -966 c-20 -2 -52 -2 -70 0 -17 2 0 4 38 4 39 0 53 -2 32 -4z m-175 -2242 c4 -3 -39 -6 -95 -6 -86 0 -109 -4 -144 -23 -84 -44 -119 -135 -111 -285 4 -74 10 -103 32 -145 50 -98 163 -145 297 -123 39 6 74 9 77 7 7 -7 -12 -13 -85 -25 -170 -28 -316 64 -358 224 -20 77 -19 120 4 193 44 144 152 209 321 194 30 -2 58 -7 62 -11z m650 -13 c59 -25 122 -92 155 -166 33 -73 37 -196 9 -252 -49 -95 -112 -142 -217 -164 -133 -27 -258 33 -329 158 -27 47 -30 59 -30 147 0 82 4 102 25 145 26 53 50 78 100 110 25 16 22 12 -12 -23 -58 -58 -78 -127 -70 -248 9 -146 41 -210 124 -251 48 -24 61 -26 151 -22 116 4 157 24 200 96 25 44 27 54 27 167 0 104 -3 127 -24 172 -29 65 -86 118 -143 133 -43 12 -166 9 -203 -4 -19 -7 -19 -7 -2 4 49 31 162 30 239 -2z m606 22 c12 0 22 -4 22 -10 0 -5 -7 -7 -15 -4 -26 10 -106 -7 -126 -27 -17 -17 -19 -34 -19 -157 0 -77 3 -194 7 -260 l6 -122 89 0 c57 0 87 -4 83 -10 -3 -5 -44 -10 -91 -10 l-84 0 0 -65 c0 -94 -30 -86 -40 10 -5 49 -6 50 -40 53 -53 5 -62 22 -11 22 l42 0 -7 238 c-8 275 -4 301 54 332 25 14 48 18 72 15 19 -3 45 -5 58 -5z m860 3 c-10 -2 -28 -2 -40 0 -13 2 -5 4 17 4 22 1 32 -1 23 -4z m-3160 -26 c-53 -43 -66 -151 -26 -202 l22 -28 -28 18 c-77 51 -68 159 17 214 42 27 49 26 15 -2z m-618 2 c114 -14 173 -44 253 -128 70 -74 97 -130 117 -239 24 -136 -35 -297 -137 -372 -69 -51 -169 -70 -394 -77 l-197 -6 -7 169 c-4 93 -12 280 -19 417 l-11 247 155 0 c86 0 193 -5 240 -11z m1034 -5 c3 -9 9 -123 13 -255 7 -259 8 -250 -51 -291 l-31 -22 23 25 c27 31 31 116 6 154 -15 23 -15 25 1 25 17 0 18 9 12 120 -4 65 -10 151 -13 190 -6 66 -6 70 13 70 12 0 24 -7 27 -16z m2136 -83 c0 -157 19 -320 45 -383 5 -13 2 -18 -9 -18 -12 0 -16 -10 -16 -45 0 -41 -2 -45 -24 -45 l-24 0 -6 188 c-4 103 -9 235 -12 295 l-6 107 26 0 26 0 0 -99z m446 68 c-23 -27 -26 -40 -26 -103 0 -43 5 -78 13 -86 6 -8 1 -6 -12 5 -12 11 -30 33 -38 49 -13 25 -13 33 2 72 9 24 31 55 48 69 42 32 44 31 13 -6z m433 12 c6 -11 12 -123 13 -261 l3 -241 -33 -30 c-18 -16 -38 -29 -44 -29 -7 0 -2 7 10 16 19 13 22 24 22 81 0 55 -4 71 -22 90 l-21 23 23 0 23 0 -8 185 c-6 164 -5 185 9 185 8 0 20 -8 25 -19z m-611 -563 c-7 -19 -41 -21 -79 -4 l-34 14 58 1 c43 1 58 -2 55 -11z m446 -18 c-22 -5 -65 -5 -95 0 -49 7 -45 8 41 8 75 0 86 -2 54 -8z m-496 -1977 c-5 -21 -122 -433 -259 -915 -137 -483 -249 -889 -249 -903 0 -28 0 -28 525 -675 176 -217 331 -408 343 -425 l23 -29 -22 -8 c-12 -5 -128 -4 -258 2 -130 5 -504 17 -831 25 -327 8 -658 17 -735 20 -77 3 -320 10 -540 15 -220 6 -544 15 -720 20 -176 5 -502 14 -725 20 -223 6 -544 15 -715 20 -170 5 -497 15 -725 20 -514 13 -1303 40 -1308 45 -6 6 333 229 2298 1510 998 651 1311 855 1592 1041 l307 203 67 -72 c37 -40 94 -108 127 -152 78 -103 222 -281 261 -322 57 -62 55 -63 687 216 310 137 629 278 709 314 80 36 148 66 152 66 3 1 2 -16 -4 -36z"></path><path id="pdlC2t9nc" d="M4394 8225 c-7 -18 0 -389 13 -634 l6 -134 191 6 c105 3 215 11 245 17 67 15 120 61 158 138 26 53 28 66 28 182 0 191 -41 291 -152 376 -56 43 -114 54 -315 61 -155 6 -168 5 -174 -12z"></path></g></g><g id="l794wri2emZWIRxKEODGpyW" fill="rgb(255,255,255)" style="transform: none;"><g><path id="p1E7sDLKWT" d="M6340 10529 c-238 -20 -443 -60 -636 -124 -144 -47 -284 -108 -284 -124 0 -29 58 -18 223 45 102 39 223 72 398 110 114 24 148 27 429 31 278 5 317 3 439 -16 174 -28 339 -70 536 -137 159 -54 195 -62 195 -45 0 18 -44 41 -175 92 -160 63 -305 101 -500 134 -257 42 -424 51 -625 34z"></path><path id="pYeDL8PID" d="M4458 9553 c-88 -95 -226 -310 -322 -502 -144 -287 -262 -707 -203 -719 19 -4 17 -9 47 118 80 342 241 695 441 965 83 112 102 153 74 162 -6 2 -23 -9 -37 -24z"></path><path id="p169mXBOd2" d="M8537 9574 c-9 -9 19 -60 69 -125 114 -148 255 -392 329 -569 43 -101 103 -281 129 -383 28 -111 51 -167 67 -167 33 0 -19 244 -96 450 -104 280 -237 518 -408 728 -54 67 -74 82 -90 66z"></path><path id="pI09mOm9q" d="M5365 8301 c-92 -12 -135 -59 -142 -156 -7 -80 11 -115 80 -155 28 -17 97 -44 152 -61 163 -50 189 -61 218 -92 52 -56 26 -114 -63 -137 -53 -14 -134 -8 -237 19 -71 18 -73 18 -73 1 0 -52 16 -67 87 -80 89 -17 225 -18 290 -1 29 7 67 26 90 45 l38 33 -7 264 c-4 145 -10 274 -13 287 -5 19 -12 22 -57 22 l-51 0 6 -112 c4 -62 10 -148 13 -190 l7 -78 -50 24 c-27 13 -87 36 -134 50 -98 31 -154 61 -182 98 -27 36 -16 91 25 130 26 24 38 28 87 27 31 0 77 -4 104 -8 51 -9 52 -8 37 36 -10 28 -15 31 -72 37 -66 7 -78 6 -153 -3z"></path><path id="p1FxlduKVG" d="M6185 8302 c-62 -9 -133 -49 -170 -98 -85 -111 -86 -336 -2 -452 77 -107 195 -147 362 -121 l90 14 3 43 c2 23 0 42 -5 42 -4 0 -45 -7 -90 -15 -95 -16 -143 -7 -214 39 -102 68 -130 271 -53 388 47 73 142 99 263 74 41 -9 77 -14 79 -11 8 8 -7 52 -25 73 -15 18 -32 22 -103 26 -47 2 -107 1 -135 -2z"></path><path id="pzbBJp9Sm" d="M6829 8300 c-95 -17 -174 -73 -213 -152 -24 -48 -26 -62 -26 -177 0 -121 1 -128 30 -177 72 -127 210 -190 359 -164 123 20 193 68 244 164 18 35 21 57 21 151 0 97 -3 117 -26 167 -34 74 -97 141 -156 166 -55 24 -167 34 -233 22z m144 -81 c53 -14 110 -69 138 -132 19 -42 23 -70 24 -142 0 -81 -3 -95 -27 -137 -38 -64 -83 -90 -169 -96 -59 -4 -75 -1 -121 21 -77 38 -112 100 -124 221 -19 187 112 312 279 265z"></path><path id="p14utLNIFI" d="M7478 8290 c-58 -31 -62 -57 -55 -332 l6 -238 -38 0 c-47 0 -50 -3 -42 -43 6 -28 11 -33 46 -37 l40 -5 5 -52 c7 -63 17 -75 67 -77 l38 -1 -4 67 -3 67 88 3 89 3 3 38 3 37 -89 0 -89 0 -6 122 c-11 194 -9 332 6 351 17 24 63 34 117 26 25 -4 46 -6 48 -4 2 2 -1 21 -7 43 -11 38 -12 39 -64 46 -83 10 -119 6 -159 -14z"></path><path id="pHUomGxvG" d="M8374 8301 c-81 -14 -143 -88 -144 -174 0 -101 76 -155 318 -224 120 -34 162 -66 162 -124 0 -34 -5 -42 -32 -59 -46 -28 -207 -28 -293 -1 -33 10 -62 17 -63 16 -2 -2 -1 -22 3 -44 l6 -39 72 -13 c159 -28 333 -8 386 46 l26 26 -2 270 c-2 162 -7 278 -13 290 -8 15 -21 19 -61 19 l-51 0 6 -37 c3 -21 8 -105 12 -187 6 -143 5 -149 -12 -141 -11 4 -74 27 -142 51 -68 24 -143 58 -168 75 -41 28 -44 33 -44 75 0 39 5 51 34 80 31 31 39 34 93 33 32 0 79 -4 106 -8 51 -9 52 -8 36 36 -9 26 -16 31 -56 37 -54 7 -122 6 -179 -3z"></path><path id="p1DcLyZ1ni" d="M4295 8213 c6 -82 35 -722 35 -781 l0 -35 228 6 c333 8 426 38 501 162 44 73 59 118 66 206 14 152 -27 279 -122 380 -112 119 -189 139 -526 139 l-188 0 6 -77z m466 -24 c94 -20 191 -120 225 -232 13 -43 19 -92 19 -158 -1 -83 -4 -102 -28 -151 -38 -77 -91 -123 -158 -137 -30 -7 -126 -15 -215 -18 l-161 -6 -6 139 c-14 275 -20 552 -13 569 6 17 18 18 146 11 77 -3 163 -11 191 -17z"></path><path id="pJu8Vcqre" d="M7814 8133 c3 -87 9 -233 12 -325 l7 -168 53 0 54 0 0 44 0 44 38 -38 c46 -46 138 -79 180 -64 23 8 27 16 30 52 l3 42 -57 0 c-76 0 -133 28 -162 78 -29 52 -42 138 -49 330 l-6 162 -55 0 -55 0 7 -157z"></path><path id="p1A6Z0Z5WE" d="M3890 7495 c-15 -39 50 -337 113 -520 103 -297 358 -735 429 -735 10 0 18 5 18 11 0 6 -43 75 -95 153 -201 300 -348 667 -406 1011 -17 104 -39 133 -59 80z"></path><path id="pDpE3LJuK" d="M9133 7508 c-12 -16 -19 -42 -38 -152 -20 -116 -88 -348 -136 -462 -77 -185 -206 -419 -302 -550 -56 -76 -66 -104 -39 -104 26 0 73 54 145 163 168 255 291 538 366 847 38 152 46 229 29 253 -12 15 -16 16 -25 5z"></path><path id="p1BmdqYrxB" d="M7940 5688 c-388 -176 -1285 -568 -1300 -568 -9 0 -30 15 -46 33 -40 42 -184 220 -261 322 -80 106 -201 235 -221 235 -8 0 -151 -89 -316 -199 -276 -182 -655 -429 -1616 -1056 -2408 -1570 -2384 -1554 -2353 -1566 21 -8 731 -33 1368 -49 226 -6 550 -15 720 -20 171 -5 492 -14 715 -20 223 -6 549 -15 725 -20 176 -5 500 -14 720 -20 220 -5 463 -12 540 -15 77 -3 408 -12 735 -20 327 -8 705 -20 840 -26 275 -12 350 -7 350 20 0 26 -27 61 -385 501 -176 217 -366 452 -422 521 l-101 126 219 769 c273 960 312 1101 304 1114 -13 21 -65 6 -215 -62z m-22 -140 c-41 -55 -308 -440 -478 -689 -36 -53 -108 -158 -160 -233 l-95 -138 -28 34 c-15 18 -118 144 -227 279 l-199 247 217 95 c119 53 366 161 547 241 182 79 355 156 385 170 30 14 57 25 59 25 2 1 -8 -14 -21 -31z m-1 -320 c-8 -18 -23 -70 -32 -115 -10 -46 -22 -83 -27 -83 -4 0 -8 -11 -8 -25 0 -30 -31 -148 -41 -155 -3 -3 -9 -26 -13 -52 -4 -27 -10 -48 -14 -48 -4 0 -13 -30 -20 -67 -7 -38 -17 -69 -22 -71 -6 -2 -10 -15 -10 -29 0 -35 -32 -153 -42 -153 -4 0 -8 -16 -8 -35 0 -19 -4 -35 -10 -35 -5 0 -10 -16 -10 -35 0 -19 -4 -35 -10 -35 -5 0 -10 -11 -10 -25 0 -36 -47 -209 -77 -283 -18 -44 -31 -64 -47 -67 -40 -8 -360 -64 -511 -89 -82 -14 -256 -43 -385 -65 -129 -22 -435 -74 -680 -115 -245 -42 -656 -112 -915 -156 -258 -44 -684 -116 -945 -160 -261 -44 -593 -101 -736 -125 -144 -25 -268 -45 -275 -44 -21 1 113 39 137 39 12 0 34 7 50 15 16 8 49 17 74 21 25 3 59 12 76 19 16 8 50 17 75 21 24 3 58 12 75 20 16 7 50 16 75 20 24 3 58 12 75 20 16 7 50 16 75 20 24 3 58 12 75 20 16 7 50 16 75 20 24 3 58 12 75 20 16 7 50 16 75 20 24 3 58 12 75 20 16 7 50 16 75 20 24 3 58 12 75 20 16 7 50 16 75 20 24 3 58 12 75 20 16 7 50 16 75 20 24 3 58 12 75 20 16 7 50 16 75 20 24 3 58 12 75 20 16 7 50 16 75 20 24 3 58 12 75 20 16 7 50 16 75 20 24 3 58 12 75 20 16 7 50 16 75 20 24 3 58 12 75 20 16 7 50 16 75 20 24 3 58 12 75 20 16 7 50 16 75 20 24 3 58 12 75 20 16 7 50 16 75 20 24 3 58 12 75 20 16 7 50 16 75 20 24 3 58 12 75 20 16 7 50 16 75 20 24 3 58 12 75 20 16 7 50 16 75 20 24 3 58 12 75 20 16 7 50 16 75 20 24 3 58 12 75 20 16 7 50 16 75 20 24 3 58 12 75 20 16 7 50 16 75 20 24 3 58 12 75 20 16 7 50 16 75 20 24 3 58 12 76 20 17 8 53 17 79 21 26 3 59 12 74 20 14 7 37 13 51 13 15 0 39 7 55 15 16 8 49 17 74 21 25 3 59 12 75 19 17 7 41 16 55 20 45 11 67 38 217 265 82 124 179 266 215 316 36 50 124 176 195 280 109 161 128 185 131 162 2 -15 -3 -42 -11 -60z"></path></g></g><g id="l2gOKXLOMSbgVstT0lSktJX" fill="rgb(179,173,175)" style="transform: none;"><g><path id="pbDv69ILn" d="M7912 5368 c-61 -90 -164 -237 -227 -328 -63 -91 -196 -286 -296 -435 -180 -269 -204 -299 -246 -310 -12 -3 -35 -10 -50 -16 -15 -7 -35 -13 -43 -14 -30 -4 -86 -18 -110 -28 -14 -5 -37 -11 -51 -13 -15 -2 -39 -9 -55 -15 -16 -7 -36 -13 -44 -14 -30 -4 -86 -18 -110 -28 -14 -5 -32 -11 -40 -12 -40 -5 -121 -28 -126 -36 -3 -5 -9 -7 -13 -5 -8 5 -118 -21 -136 -32 -5 -3 -16 -7 -25 -7 -34 -3 -120 -28 -126 -36 -3 -5 -9 -7 -13 -5 -8 5 -118 -21 -136 -32 -5 -3 -16 -7 -25 -7 -34 -3 -120 -28 -126 -36 -3 -5 -9 -7 -13 -5 -8 5 -118 -21 -136 -32 -5 -3 -16 -7 -25 -7 -34 -3 -120 -28 -126 -36 -3 -5 -9 -7 -13 -5 -8 5 -118 -21 -136 -32 -5 -3 -16 -7 -25 -7 -34 -3 -120 -28 -126 -36 -3 -5 -9 -7 -13 -5 -8 5 -118 -21 -136 -32 -5 -3 -16 -7 -25 -7 -34 -3 -120 -28 -126 -36 -3 -5 -9 -7 -13 -5 -8 5 -118 -21 -136 -32 -5 -3 -16 -7 -25 -7 -34 -3 -120 -28 -126 -36 -3 -5 -9 -7 -13 -5 -8 5 -118 -21 -136 -32 -5 -3 -16 -7 -25 -7 -34 -3 -120 -28 -126 -36 -3 -5 -9 -7 -13 -5 -8 5 -118 -21 -136 -32 -5 -3 -16 -7 -25 -7 -34 -3 -120 -28 -126 -36 -3 -5 -9 -7 -13 -5 -8 5 -118 -21 -136 -32 -5 -3 -16 -7 -25 -7 -34 -3 -120 -28 -126 -36 -3 -5 -9 -7 -13 -5 -8 5 -118 -21 -136 -32 -5 -3 -16 -7 -25 -7 -34 -3 -120 -28 -126 -36 -3 -5 -9 -7 -13 -5 -8 5 -118 -21 -136 -32 -5 -3 -16 -7 -25 -7 -34 -3 -120 -28 -126 -36 -3 -5 -9 -7 -13 -4 -8 4 -187 -41 -206 -53 -5 -3 -18 -7 -30 -8 -37 -4 -190 -46 -201 -55 -6 -5 -14 -6 -17 -2 -4 3 -13 1 -20 -5 -8 -7 -16 -10 -19 -7 -4 4 -276 -68 -308 -82 -8 -3 -18 -7 -22 -7 -13 -2 -21 -16 -9 -16 6 0 80 13 164 30 83 16 366 65 627 109 559 94 1240 209 1895 321 259 44 670 114 915 156 245 41 551 93 680 115 129 22 303 51 385 65 151 25 471 81 511 89 15 3 29 23 47 67 25 61 77 247 80 285 1 10 5 20 9 23 3 3 8 19 10 35 2 17 6 32 10 35 3 3 8 19 10 35 2 17 6 32 9 35 10 8 49 163 43 172 -3 4 -1 8 4 8 9 0 38 103 35 128 0 6 3 12 7 12 7 0 23 56 24 85 1 6 3 12 7 15 9 9 48 163 43 172 -3 4 -1 8 4 8 5 0 17 37 27 83 9 45 24 98 33 117 8 19 16 51 18 71 1 21 9 48 17 61 8 12 22 55 31 93 9 39 19 78 22 88 13 43 -19 5 -124 -145z"></path><path id="pt5kFrQHt" d="M7420 4810 c0 -23 -4 -30 -20 -30 -16 0 -20 -7 -20 -36 0 -20 4 -33 10 -29 11 7 80 109 80 119 0 3 -11 6 -25 6 -21 0 -25 -5 -25 -30z"></path></g></g><g id="l4C9Fhj1WGhIKMVj0LslaIO" fill="rgb(109,107,108)" style="transform: none;"><g><path id="p1HdiQb8Xv" d="M7870 5593 c-165 -75 -991 -438 -1128 -496 -40 -17 -71 -35 -70 -39 2 -6 302 -380 490 -612 l17 -21 24 25 c21 22 173 239 436 625 41 61 147 214 236 340 184 263 179 255 168 254 -4 0 -82 -35 -173 -76z"></path></g></g></svg>