<svg id="Warstwa_1" data-name="Warstwa 1" xmlns="http://www.w3.org/2000/svg" width="21.52mm" height="25.65mm" viewBox="0 0 61 72.71"><defs><style>.cls-1{fill:#00818e;}</style></defs><path class="cls-1" d="M41.05,5.58a15.44,15.44,0,0,1,3-.14,5.09,5.09,0,0,1,4.33,4.14Q50.66,18.35,53,27.1q3.87,14.71,7.76,29.44c.92,3.49-.57,6.07-4.06,7L22.84,72.45c-3.45.91-6-.57-6.94-4Q9.57,44.51,3.27,20.57a5,5,0,0,1,2.78-6.21Q20.28,7.43,34.57.58C37.36-.76,39.5.25,40.41,3.21,40.66,4,40.85,4.83,41.05,5.58ZM5.61,20a8,8,0,0,0,.17.81Q12,44.4,18.23,68A2.81,2.81,0,0,0,22,70.21l34.26-9a2.83,2.83,0,0,0,2.23-3.85Q52.29,33.74,46.07,10.19a2.84,2.84,0,0,0-3.9-2.26L17.72,14.36,8,16.93A2.87,2.87,0,0,0,5.61,20ZM15.9,12.25l0,.13,22.84-6c-.17-.68-.31-1.27-.47-1.86C37.7,2.17,37.18,1.93,35,3L16.64,11.85Z"/><path class="cls-1" d="M1.15,26c.86,0,1.1.64,1.28,1.33q1.32,5.21,2.66,10.41l1.14,4.4c.22.9-.09,1.57-.81,1.75s-1.25-.27-1.48-1.14Q2,35.2.06,27.67C-.18,26.71.31,26,1.15,26Z"/><path class="cls-1" d="M59.13,32.07c-.26.27-.54.82-.91.89a2.36,2.36,0,0,1-1.34-.48c-.17-.11-.2-.47-.27-.72-.75-2.82-1.5-5.63-2.24-8.45,0-.09,0-.17,0-.26-.2-.87.08-1.48.79-1.67s1.27.23,1.5,1.1c.56,2.12,1.11,4.23,1.66,6.35C58.54,29.84,58.81,30.85,59.13,32.07Z"/><path class="cls-1" d="M8.49,53.46c.2.2.73.49.84.9.86,3.08,1.64,6.19,2.42,9.3a1.1,1.1,0,0,1-.82,1.49,1.12,1.12,0,0,1-1.45-.92c-.81-3.09-1.62-6.19-2.39-9.3C6.9,54.17,7.46,53.49,8.49,53.46Z"/><path class="cls-1" d="M6.74,46.38a3.22,3.22,0,0,1,.79.94,16.39,16.39,0,0,1,.65,2.43,1.11,1.11,0,0,1-.83,1.42A1,1,0,0,1,6,50.45a21,21,0,0,1-.7-2.7C5.12,47,5.69,46.35,6.74,46.38Z"/><path class="cls-1" d="M59.41,35.32a3.15,3.15,0,0,1,.79.93,14.57,14.57,0,0,1,.64,2.35,1.13,1.13,0,0,1-.8,1.51c-.67.22-1.24-.16-1.48-1s-.45-1.56-.62-2.35S58.32,35.3,59.41,35.32Z"/><path class="cls-1" d="M30.43,45.6A12.93,12.93,0,1,1,43.35,32.66,13,13,0,0,1,30.43,45.6Zm.31-7.37-1.13-4.11L25.7,35.2c.54,1.2,1,2.3,1.55,3.36A1,1,0,0,0,28,39C28.91,38.78,29.77,38.5,30.74,38.23ZM27.85,27.67c-.92.24-1.74.43-2.54.69-.2.06-.49.32-.48.47.06,1.32.19,2.64.3,4.06L29,31.82ZM30.14,27l1.14,4.16,3.62-1c-.62-1.26-1.17-2.41-1.76-3.54a.69.69,0,0,0-.6-.27C31.75,26.57,31,26.81,30.14,27ZM33,37.61c.83-.23,1.56-.41,2.28-.63.19-.06.48-.26.47-.39-.05-1.34-.15-2.68-.25-4.09l-3.63,1Zm7.19-8.84a9.51,9.51,0,0,0-2.33-3.55.59.59,0,0,0-.44-.18c-.69.17-1.37.38-2.05.58l1.78,4ZM37.8,31.89l.49,4.27c.66-.17,1.28-.32,1.89-.51.17,0,.42-.19.45-.33a8.5,8.5,0,0,0,.19-4.26ZM22.37,29.17c-.58.15-1.12.25-1.64.44-.2.07-.48.31-.5.5-.16,1.36-.27,2.72-.41,4.23l3-.84Zm-1.92,7.47c.85,1.2,1.6,2.28,2.4,3.34a.82.82,0,0,0,.68.22,16.38,16.38,0,0,0,1.58-.45l-1.68-3.94Zm10.91,3.89L29,41.18c1.71,2.3,1.86,2.27,3,1.78ZM26.55,22.92c-1.36.46-1.53.81-1.5,3l2.17-.59Zm7.1,17,.74,2.63c1.17-.87.89-2.07,1.26-3.18ZM29.52,24.73l2-.56c-1-.71-1.25-2-2.72-2Zm9.7,13.8c-1.21,0-1.23.08-1.16,1.47ZM35,23.12l-1.71-.62C33.68,23.38,34.13,23.72,35,23.12Z"/><path class="cls-1" d="M36.61,58.14a2.58,2.58,0,0,1-1.73,1.08l-2.61.66-2.3-9,2.61-.67a2.68,2.68,0,0,1,2,.1A2.34,2.34,0,0,1,35.69,52a2.06,2.06,0,0,1-.1,1.65,1.63,1.63,0,0,1-.35.41,1.64,1.64,0,0,1,.5.21,2.41,2.41,0,0,1,.95,1.65A2.72,2.72,0,0,1,36.61,58.14Zm-3.83-6.26-.59.15L32.68,54l.59-.15c.7-.18.82-.53.66-1.19S33.49,51.7,32.78,51.88Zm.85,3.45-.57.14.6,2.33.57-.14c.72-.19.84-.58.63-1.4S34.33,55.15,33.63,55.33Z"/><path class="cls-1" d="M41.05,57.75a2.43,2.43,0,0,1-2.21-.41c-.83-.61-1.17-1.79-1.61-3.52S36.52,50.88,37,50a2.42,2.42,0,0,1,1.74-1.42,2.52,2.52,0,0,1,1.94.22,3.09,3.09,0,0,1,1.29,1.82l-1.8.46c-.11-.38-.33-1.05-1-.88a.66.66,0,0,0-.52.51,8.77,8.77,0,0,0,.44,2.7,8.29,8.29,0,0,0,.91,2.57.62.62,0,0,0,.7.2c.59-.15.6-.75.48-1.24L40.88,54l-.75.19-.37-1.45L42.3,52l.59,2.29C43.35,56.13,42.6,57.36,41.05,57.75Z"/></svg>