<?xml version="1.0" encoding="utf-8"?>
<!-- Generator: Adobe Illustrator 25.2.1, SVG Export Plug-In . SVG Version: 6.00 Build 0)  -->
<svg version="1.1" id="_004" xmlns="http://www.w3.org/2000/svg" xmlns:xlink="http://www.w3.org/1999/xlink" x="0px" y="0px"
	 viewBox="0 0 84 117.4" style="enable-background:new 0 0 84 117.4;" xml:space="preserve">
<style type="text/css">
	.st0{clip-path:url(#SVGID_2_);}
	.st1{clip-path:url(#SVGID_4_);}
	.st2{fill:#F9E2DC;}
	.st3{opacity:0.3;fill:#CC7E54;enable-background:new    ;}
	.st4{fill:#97C1FF;}
	.st5{opacity:0.3;fill:#FFFFFF;enable-background:new    ;}
	.st6{opacity:0.1;enable-background:new    ;}
	.st7{fill:#D6B5B0;}
	.st8{opacity:0.8;fill:#97C1FF;enable-background:new    ;}
	.st9{opacity:0.3;fill:#1C64BA;enable-background:new    ;}
	.st10{opacity:0.5;fill:#FFFFFF;enable-background:new    ;}
</style>
<g>
	<g>
		<g>
			<defs>
				<path id="SVGID_1_" d="M98.1,61.2c0,31-25.1,56.1-56.1,56.1s-56.1-25.1-56.1-56.1l0,0c0-31,25.2-64.9,56.2-64.9
					S98.1,30.2,98.1,61.2z"/>
			</defs>
			<clipPath id="SVGID_2_">
				<use xlink:href="#SVGID_1_"  style="overflow:visible;"/>
			</clipPath>
			<g class="st0">
				<g>
					<g>
						<defs>
							<path id="SVGID_3_" d="M98.1,61.2c0,31-25.1,56.1-56.1,56.1s-56.1-25.1-56.1-56.1l0,0c0-31,25.2-64.9,56.2-64.9
								S98.1,30.1,98.1,61.2z"/>
						</defs>
						<clipPath id="SVGID_4_">
							<use xlink:href="#SVGID_3_"  style="overflow:visible;"/>
						</clipPath>
						<g class="st1">
							<path class="st2" d="M66.3,79.1c0,0-6.3-2.6-6.8-2.8c-3-1.5-4.3-5.1-3-8.2H27.4c1.7,3.8-1.1,7.4-2.9,8.2
								c-0.9,0.4-6.5,2.9-6.5,2.9C7.7,83.5,1,93.6,1,104.7v15.1h82v-15.3C83,93.5,76.4,83.5,66.3,79.1z"/>
							<path class="st3" d="M56.5,68.1H27.4c0.7,1.5,0.7,3.3,0,4.9l1.8,1.8c2.5,2.5,6,4,9.6,4h6.2c3.6,0,7.1-1.4,9.6-4l1.8-1.8
								C55.8,71.5,55.8,69.7,56.5,68.1z"/>
							<path d="M67,119.8c-0.6,0-1-0.4-1-1v-17.5c0-0.6,0.4-1,1-1s1,0.4,1,1v17.5C68,119.4,67.6,119.8,67,119.8z"/>
							<path d="M17,119.8c-0.6,0-1-0.4-1-1v-17.5c0-0.6,0.4-1,1-1s1,0.4,1,1v17.5C18,119.4,17.6,119.8,17,119.8z"/>
							<path d="M25,108.8c-0.6,0-1-0.4-1-1c0-0.6,0.4-1,1-1c0.1,0,0.1,0,0.2,0c0.1,0,0.1,0,0.2,0.1c0.1,0,0.1,0.1,0.2,0.1
								c0.1,0,0.1,0.1,0.1,0.1c0.4,0.4,0.4,1,0,1.4C25.5,108.7,25.3,108.8,25,108.8z"/>
							<path d="M59,108.8c-0.6,0-1-0.4-1-1s0.4-1,1-1c0.1,0,0.1,0,0.2,0c0.1,0,0.1,0,0.2,0.1c0.1,0,0.1,0.1,0.2,0.1
								c0.1,0,0.1,0.1,0.1,0.1c0.4,0.4,0.4,1,0,1.4C59.5,108.7,59.3,108.8,59,108.8z"/>
							<path d="M83,119.8c-0.6,0-1-0.4-1-1v-14.3c0-10.6-6.3-20.3-16.1-24.5l-6.8-3c-3.4-1.7-4.9-5.8-3.5-9.3
								c0.2-0.5,0.8-0.7,1.3-0.5c0.5,0.2,0.7,0.8,0.5,1.3c0,0,0,0,0,0c-1,2.5,0.1,5.4,2.5,6.7l6.8,3C77.2,82.7,84,93.1,84,104.5
								v14.3C84,119.4,83.6,119.8,83,119.8z"/>
							<path d="M1,119.8c-0.6,0-1-0.4-1-1v-14.1c0-11.6,6.9-22,17.6-26.4c0,0,4.4-1.9,6.4-2.8c1.6-0.7,3.9-3.8,2.5-6.9
								c-0.2-0.5,0-1.1,0.5-1.3s1.1,0,1.3,0.5c0,0,0,0,0,0c2,4.4-1.2,8.5-3.5,9.6c-2,0.9-6.4,2.8-6.4,2.9C8.5,84.3,2,94,2,104.7
								v14.1C2,119.4,1.6,119.8,1,119.8z"/>
							<path class="st4" d="M66.3,79.1c0,0-7-3-6.8-2.8c-2.3,5-11.2,7.5-17.5,9.3c-6.2-1.8-15.8-4.3-17.5-9.2L18,79.2
								C7.7,83.5,1,93.6,1,104.7v15.1h82v-15.3C83,93.5,76.4,83.5,66.3,79.1z"/>
							<path class="st5" d="M42,89.6c-7.5,0-15-3.8-18.7-8.3C9.5,85.1,1,98.5,1,109.5v-5c0-11,6.6-21,16.7-25.4c0,0,7-3,6.8-2.8
								c2.3,5,10,9.3,17.5,9.3s15.2-4.3,17.5-9.3c-0.2-0.2,6.8,2.8,6.8,2.8C76.4,83.5,83,93.5,83,104.5v5c0-11-8.5-24.4-22.2-28.2
								C57,85.8,49.5,89.6,42,89.6z"/>
							<path d="M42,86.6c-8.1,0-16.7-4.7-18.5-10c-0.2-0.5,0.1-1.1,0.6-1.3c0.5-0.2,1.1,0.1,1.3,0.6c1.4,4.5,9.3,8.6,16.5,8.6
								c6.9,0,14.4-3.9,16.6-8.7c0.2-0.5,0.8-0.7,1.3-0.5s0.7,0.8,0.5,1.3l0,0C57.9,82.3,49.8,86.6,42,86.6z"/>
							<path d="M67,119.8c-0.6,0-1-0.4-1-1v-17.5c0-0.6,0.4-1,1-1s1,0.4,1,1v17.5C68,119.4,67.6,119.8,67,119.8z"/>
							<path d="M17,119.8c-0.6,0-1-0.4-1-1v-17.5c0-0.6,0.4-1,1-1s1,0.4,1,1v17.5C18,119.4,17.6,119.8,17,119.8z"/>
							<path d="M83,119.8c-0.6,0-1-0.4-1-1v-14.3c0-10.6-6.3-20.3-16.1-24.5l-6.8-3c-0.5-0.2-0.7-0.8-0.5-1.3
								c0.2-0.5,0.8-0.7,1.3-0.5c0,0,0,0,0,0l6.8,3C77.2,82.7,84,93.1,84,104.5v14.3C84,119.4,83.6,119.8,83,119.8z"/>
							<path d="M1,119.8c-0.6,0-1-0.4-1-1v-14.1c0-11.6,6.9-22,17.6-26.4l6.5-2.8c0.5-0.2,1.1,0,1.3,0.5c0.2,0.5,0,1.1-0.5,1.3
								l-6.5,2.8C8.5,84.3,2,94,2,104.7v14.1C2,119.4,1.6,119.8,1,119.8z"/>
							<path class="st2" d="M17,47.8v-9c0-3-2.2-4-3.6-3c-2.2,1.5,0.6,8,0.6,8C12.4,44.9,14.2,48.6,17,47.8z"/>
							<path d="M16.3,48.9c-1.6,0-3-1-3.5-2.5c-0.5-0.9-0.4-2,0.1-2.9c-0.8-2-2.4-6.9,0-8.6c0.9-0.6,2.1-0.7,3.1-0.2
								c1.4,0.8,2.2,2.4,2,4v9c0,0.5-0.3,0.9-0.7,1C16.9,48.9,16.6,48.9,16.3,48.9z M17,47.8L17,47.8z M14.5,36.5
								c-0.2,0-0.4,0.1-0.6,0.2c-0.9,0.6-0.2,4.1,0.9,6.8c0.2,0.4,0,1-0.4,1.2c-0.2,0.1-0.2,0.6,0,1c0.3,0.6,0.8,1.1,1.5,1.2v-8.1
								c0.1-0.9-0.3-1.7-1-2.2C14.9,36.5,14.7,36.5,14.5,36.5z"/>
							<path d="M14,44.8c-0.6,0-1-0.4-1-1c0-0.3,0.2-0.7,0.5-0.8l0.4-0.2c0.5-0.3,1.1-0.2,1.4,0.3c0.3,0.5,0.2,1.1-0.3,1.4l-0.4,0.2
								C14.4,44.8,14.2,44.8,14,44.8z"/>
							<path class="st2" d="M67,47.8v-9c0-3,2.2-4,3.6-3c2.2,1.5-0.6,8-0.6,8C71.6,44.9,69.8,48.6,67,47.8z"/>
							<path d="M67.7,48.9c-0.3,0-0.7,0-1-0.1c-0.4-0.1-0.7-0.5-0.7-1v-9c-0.1-1.6,0.7-3.2,2-4c1-0.5,2.2-0.5,3.1,0.2
								c2.4,1.7,0.8,6.6,0,8.6c0.5,0.9,0.6,2,0.1,2.9C70.7,47.9,69.3,48.9,67.7,48.9z M69.5,36.5c-0.2,0-0.3,0-0.5,0.1
								c-0.7,0.5-1.1,1.4-1,2.2v8.1c0.7-0.2,1.2-0.6,1.5-1.2c0.2-0.4,0.2-0.9,0-1c-0.4-0.3-0.6-0.8-0.4-1.2c1.2-2.7,1.8-6.2,0.9-6.8
								C69.9,36.5,69.7,36.5,69.5,36.5L69.5,36.5z"/>
							<path d="M70,44.8c-0.2,0-0.4-0.1-0.5-0.2l-0.4-0.2c-0.5-0.3-0.6-0.9-0.3-1.4s0.9-0.6,1.4-0.3c0,0,0,0,0,0l0.4,0.2
								c0.5,0.3,0.6,0.9,0.3,1.4C70.7,44.6,70.3,44.8,70,44.8z"/>
							<path class="st2" d="M45.1,73.8h-6.2c-3.6,0-7.1-1.4-9.6-4L21,61.5c-2.5-2.5-4-6-4-9.6V27.4c0-24.8,50-24.8,50,0v24.5
								c0,3.6-1.4,7.1-4,9.6l-8.3,8.3C52.2,72.4,48.7,73.8,45.1,73.8z"/>
							<path class="st3" d="M54.7,64.8c-2.5,2.5-6,4-9.6,4h-6.2c-3.6,0-7.1-1.4-9.6-4L21,56.5c-2.5-2.5-4-6-4-9.6v5
								c0,3.6,1.4,7.1,4,9.6l8.3,8.3c2.5,2.5,6,4,9.6,4h6.2c3.6,0,7.1-1.4,9.6-4l8.3-8.3c2.5-2.5,4-6,4-9.6v-5c0,3.6-1.4,7.1-4,9.6
								L54.7,64.8z"/>
							<path d="M45.1,74.8h-6.2c-3.9,0-7.6-1.5-10.3-4.3l-8.3-8.3c-2.7-2.7-4.3-6.4-4.3-10.3V27.4c0-6.1,2.9-11.2,8.3-14.8
								C29,9.5,35.3,7.8,42,7.8s13,1.7,17.7,4.8c5.4,3.6,8.3,8.7,8.3,14.8v24.5c0,3.9-1.5,7.6-4.3,10.3l-8.3,8.3
								C52.7,73.3,49,74.8,45.1,74.8z M42,9.8c-11.6,0-24,5.5-24,17.6v24.5c0,3.3,1.3,6.5,3.7,8.9l8.3,8.3c2.4,2.4,5.6,3.7,8.9,3.7
								h6.2c3.3,0,6.5-1.3,8.9-3.7l8.3-8.3c2.4-2.4,3.7-5.6,3.7-8.9V27.4c0-5.4-2.8-10.3-7.4-13.1C54.3,11.4,48.4,9.8,42,9.8z"/>
							<path d="M24.5,30.8c-0.6,0-1-0.4-1-1c0-0.3,0.1-0.5,0.3-0.7c1.7-1.7,4.3-1.3,7.1-0.9c1.2,0.2,2.4,0.3,3.6,0.4
								c0.6,0,1,0.4,1,1s-0.4,1-1,1c-1.3,0-2.6-0.2-3.9-0.4c-2.3-0.3-4.4-0.6-5.4,0.3C25,30.7,24.8,30.8,24.5,30.8z"/>
							<path d="M49.5,33.5c-0.6,0-1-0.4-1-1s0.4-1,1-1c1.2-0.3,2.4-0.7,3.5-1.4c2.6-1.3,5.5-2.8,7.2-1.1c0.4,0.4,0.4,1,0,1.4
								c-0.4,0.4-1,0.4-1.4,0l0,0c-0.7-0.7-3.2,0.6-4.9,1.4C52.3,32.7,50.7,33.5,49.5,33.5z"/>
							<path d="M42,74.5c-0.6,0-1-0.4-1-1V71c0-0.6,0.4-1,1-1c0.6,0,1,0.4,1,1c0,0,0,0,0,0v2.5C43,74.1,42.5,74.5,42,74.5z"/>
							<path d="M35.8,58.8c0.3,0,0.5,0,0.7,0.2c1,0.7,3.2,0.9,5.8,0.6c2.4-0.4,4.6-1.2,5.2-2.1c0.3-0.4,1-0.5,1.4-0.2
								c0.4,0.3,0.5,1,0.2,1.4c-1.2,1.6-4.1,2.5-6.5,2.9c-1.2,0.2-5.2,0.6-7.3-0.9c-0.4-0.3-0.5-1-0.2-1.4
								C35.3,58.9,35.5,58.8,35.8,58.8L35.8,58.8z"/>
							<path d="M42,53.3c-0.9-0.1-1.8-0.4-2.6-0.9C39,52,38.9,51.4,39.2,51c0.3-0.5,0.9-0.6,1.4-0.3c0.4,0.3,0.9,0.5,1.5,0.6
								c0.5-0.1,1-0.3,1.5-0.6c0.5-0.3,1.1-0.2,1.4,0.3c0.3,0.5,0.2,1.1-0.3,1.4C43.8,52.9,42.9,53.2,42,53.3z"/>
							<circle cx="30.5" cy="41.8" r="1.5"/>
							<path d="M30.5,44.3c-1.4,0-2.5-1.1-2.5-2.5s1.1-2.5,2.5-2.5s2.5,1.1,2.5,2.5C33,43.2,31.9,44.3,30.5,44.3z M30.5,41.3
								c-0.3,0-0.5,0.2-0.5,0.5s0.2,0.5,0.5,0.5s0.5-0.2,0.5-0.5C31,41.5,30.8,41.3,30.5,41.3z"/>
							<path d="M34,40.8h-9c-0.6,0-1-0.4-1-1s0.4-1,1-1h9c0.6,0,1,0.4,1,1S34.6,40.8,34,40.8z"/>
							<circle cx="53.5" cy="41.8" r="1.5"/>
							<path d="M53.5,44.3c-1.4,0-2.5-1.1-2.5-2.5s1.1-2.5,2.5-2.5s2.5,1.1,2.5,2.5C56,43.2,54.9,44.3,53.5,44.3z M53.5,41.3
								c-0.3,0-0.5,0.2-0.5,0.5s0.2,0.5,0.5,0.5s0.5-0.2,0.5-0.5C54,41.5,53.8,41.3,53.5,41.3z"/>
							<path d="M59,40.8h-9c-0.6,0-1-0.4-1-1s0.4-1,1-1h9c0.6,0,1,0.4,1,1S59.6,40.8,59,40.8z"/>
							<path class="st6" d="M67,31.8v-4.9c0.1-8.1-6.5-14.8-14.6-14.8c0,0-0.1,0-0.1,0H32c-8.2,0-14.8,6.6-14.8,14.8v4.4
								c2.5-3,5-5.5,6.2-9.2c13.7,8.8,31.2,4.2,39.6,5.1C66.4,27.6,66.9,29.7,67,31.8z"/>
							<path class="st7" d="M58.4,4.6c8.9,4.1,14.8,8.8,11.5,25c-0.5,2.3-2.9,1.2-2.9,1.2s0.6-7.3-4-7.9c-8.3-0.9-28.3,4.1-42.1-7.1
								c0,5-1.2,7.5-3.8,11.3c0,0-3.5,0-3.8-2.5c-1.2-11.2,2.5-16.2,7.5-15C33.4-2.9,54,2.5,58.4,4.6z"/>
							<path class="st5" d="M20.9,14.4C33.4,1.9,54,7.3,58.4,9.4C65,12.4,70,15.8,70.7,24.1c1-11.9-4.6-15.9-12.3-19.5
								c-4.4-2.1-25-7.5-37.5,5c-4.8-1.2-8.4,3.3-7.6,13.4C13.8,16.3,17,13.4,20.9,14.4z"/>
							<path d="M68.2,32.1c-0.5,0-1.1-0.1-1.6-0.3c-0.4-0.2-0.6-0.6-0.6-1c0-0.1,0.5-6.4-3.1-6.8c-2.7-0.2-5.3-0.1-8,0.1
								c-9.6,0.5-22.7,1.2-33.1-6.3c-0.3,3.9-1.5,6.3-3.8,9.8c-0.2,0.3-0.5,0.4-0.8,0.4c-1.5,0-4.4-0.7-4.7-3.4
								c-0.8-7.1,0.3-12.4,3.2-14.8c1.4-1.2,3.2-1.7,5-1.4C33.6-4,54.3,1.6,58.8,3.7l0,0c8.7,4,15.6,8.8,12.1,26.1
								c-0.1,0.8-0.6,1.6-1.4,2C69.1,32,68.7,32.1,68.2,32.1z M68,30.1c0.2,0,0.4,0,0.6-0.1c0.1,0,0.2-0.1,0.3-0.6
								c3.3-15.9-2.8-20.1-11-23.9l0,0c-4.9-1.9-10.1-2.9-15.3-2.9c-6,0-14.6,1.2-21.1,7.7c-0.2,0.2-0.6,0.3-0.9,0.3
								c-1.3-0.4-2.7-0.1-3.8,0.8c-2.3,2-3.2,6.8-2.5,13.1c0.1,1.1,1.5,1.5,2.2,1.6c2.3-3.5,3.3-5.8,3.3-10.2c0-0.6,0.4-1,1-1
								c0.2,0,0.5,0.1,0.6,0.2c10,8.2,23.4,7.5,33.3,7c2.8-0.2,5.5-0.3,8.3-0.1C67.6,22.5,68.1,27.9,68,30.1z"/>
							<path d="M24.7,11.8c-0.1,0-0.3,0-0.4-0.1c-1.1-0.6-2.2-1-3.4-1.2c-0.5-0.1-0.9-0.5-0.9-1.1C20,8.9,20.5,8.5,21,8.6
								c1.4,0.2,2.8,0.7,4.1,1.3c0.5,0.2,0.7,0.8,0.5,1.3C25.4,11.6,25,11.8,24.7,11.8L24.7,11.8z"/>
							<path d="M57.9,26.8c-9-0.1-15.6-3.2-22-4.3"/>
							<path d="M57.9,27.8L57.9,27.8c-5.2-0.2-10.4-1.1-15.4-2.7c-2.2-0.7-4.5-1.2-6.7-1.6c-0.5-0.1-0.9-0.6-0.8-1.2
								c0.1-0.5,0.6-0.9,1.2-0.8l0,0c2.3,0.4,4.7,1,6.9,1.7c4.8,1.5,9.8,2.4,14.9,2.6c0.6,0,1,0.5,1,1
								C58.9,27.3,58.4,27.8,57.9,27.8L57.9,27.8z"/>
							<path d="M17,33.8c-0.6,0-1-0.4-1-1v-5.9c0-0.6,0.4-1,1-1s1,0.4,1,1v5.9C18,33.4,17.6,33.8,17,33.8z"/>
							<path class="st8" d="M56.9,48.8h-6c-2.9,0.1-5.4-1.9-6-4.8l-1.6-8.2h21.2l-1.6,8.2C62.3,46.9,59.8,48.9,56.9,48.8z"/>
							<polygon class="st9" points="63.9,38.8 64.5,35.8 43.3,35.8 43.8,38.8 							"/>
							<path class="st8" d="M33.1,48.8h-6c-2.9,0.1-5.4-1.9-6-4.8l-1.6-8.2h21.2l-1.6,8.2C38.5,46.9,36,48.9,33.1,48.8z"/>
							<polygon class="st9" points="40.2,38.8 40.8,35.8 19.5,35.8 20.1,38.8 							"/>
							<path class="st10" d="M43.3,35.8l1.6,8.2c0.4,1.9,1.6,3.4,3.4,4.2l13.1-12.4H43.3z"/>
							<path class="st10" d="M19.5,35.8l1.6,8.2c0.4,1.9,1.6,3.4,3.4,4.2l13.1-12.4H19.5z"/>
							<path d="M45.8,36.8h-7.5c-0.6,0-1-0.4-1-1s0.4-1,1-1h7.5c0.6,0,1,0.4,1,1S46.3,36.8,45.8,36.8z"/>
							<path d="M67,36.8h-5c-0.6,0-1-0.4-1-1s0.4-1,1-1h5c0.6,0,1,0.4,1,1S67.6,36.8,67,36.8z"/>
							<path d="M22,36.8h-5c-0.6,0-1-0.4-1-1s0.4-1,1-1h5c0.6,0,1,0.4,1,1S22.6,36.8,22,36.8z"/>
							<path d="M56.9,49.8h-6c-3.4,0.1-6.3-2.3-7-5.6L42.3,36c-0.1-0.5,0.3-1.1,0.8-1.2c0.1,0,0.1,0,0.2,0h21.2c0.6,0,1,0.4,1,1
								c0,0.1,0,0.1,0,0.2l-1.6,8.2C63.2,47.5,60.3,49.9,56.9,49.8z M44.5,36.8l1.4,7.1c0.5,2.3,2.6,4,5,3.9h6
								c2.4,0.1,4.5-1.6,5-3.9l1.4-7.1H44.5z"/>
							<path d="M33.1,49.8h-6c-3.4,0.1-6.3-2.3-7-5.6L18.5,36c-0.1-0.5,0.3-1.1,0.8-1.2c0.1,0,0.1,0,0.2,0h21.2c0.6,0,1,0.4,1,1
								c0,0.1,0,0.1,0,0.2l-1.6,8.2C39.4,47.5,36.5,49.9,33.1,49.8z M20.7,36.8l1.4,7.1c0.5,2.3,2.6,4,5,3.9h6
								c2.4,0.1,4.5-1.6,5-3.9l1.4-7.1H20.7z"/>
						</g>
					</g>
				</g>
			</g>
		</g>
	</g>
</g>
</svg>
