<?xml version="1.0" encoding="utf-8"?>
<!-- Generator: Adobe Illustrator 25.2.1, SVG Export Plug-In . SVG Version: 6.00 Build 0)  -->
<svg version="1.1" id="_004" xmlns="http://www.w3.org/2000/svg" xmlns:xlink="http://www.w3.org/1999/xlink" x="0px" y="0px"
	 viewBox="0 0 84 117.4" style="enable-background:new 0 0 84 117.4;" xml:space="preserve">
<style type="text/css">
	.st0{clip-path:url(#SVGID_2_);}
	.st1{opacity:0.3;}
	.st2{fill:#FFFFFF;}
	.st3{fill:#EFDCD2;}
	.st4{fill:#FF0B29;}
	.st5{fill:#CC7E54;}
	.st6{fill:#F9E2DC;}
	.st7{fill:#FF9797;}
	.st8{fill:#D85276;}
	.st9{opacity:0.3;clip-path:url(#SVGID_4_);}
	.st10{clip-path:url(#SVGID_6_);fill:#232323;}
	.st11{clip-path:url(#SVGID_8_);}
	.st12{clip-path:url(#SVGID_10_);}
</style>
<g>
	<g>
		<g>
			<g>
				<g>
					<defs>
						<path id="SVGID_1_" d="M98.1,61.2c0,31-25.1,56.1-56.1,56.1s-56.1-25.1-56.1-56.1l0,0c0-31,25.2-64.9,56.2-64.9
							S98.1,30.2,98.1,61.2z"/>
					</defs>
					<clipPath id="SVGID_2_">
						<use xlink:href="#SVGID_1_"  style="overflow:visible;"/>
					</clipPath>
					<g class="st0">
						<g class="st1">
							<path class="st2" d="M12,28.9C14.9,14.1,26.6,6.4,42,6.4s27.2,7.7,30,22.5c5.5,2.5,9.3,7.7,9.9,13.8C82,41.8,82,41,82,40.1
								c0-8.8-5-14.1-10-16.3C69.2,9.1,57.4,1.4,42,1.4S14.9,9.1,12,23.9C7,26.1,2,31.4,2,40.1c0,0.8,0,1.7,0.1,2.5
								C2.7,36.6,6.5,31.3,12,28.9z"/>
						</g>
						<path class="st3" d="M42,101.8c12.4,0,25-7,27-13.9c-2.1-2.1-4.4-3.9-6.9-5.4c-3.1,3.3-11.5,7.3-19.8,7.3
							c-9.9,0-17.3-4-20.2-7.3c-2.6,1.5-4.9,3.4-7,5.5C17,95.8,29.6,101.8,42,101.8z"/>
						<path class="st4" d="M72.9,92.7c-1.2-1.7-2.5-3.3-3.9-4.8C65,95,54.4,100,42,100s-22.9-5-27-12l0,0
							c-6.1,6.3-9.5,14.7-9.5,23.4v13.4h73.2v-13.4C78.6,104.7,76.6,98.2,72.9,92.7z"/>
						<g class="st1">
							<path class="st2" d="M72.9,92.7c-1.2-1.7-2.5-3.3-3.9-4.8C65,95,54.4,100,42,100s-22.9-5-27-12c-6.1,6.3-9.5,14.7-9.5,23.4
								v4.9c0-8.8,3.5-17.2,9.6-23.4c4.1,7,14.6,12.1,27,12.1s23-5.1,27-12.2c1.4,1.5,2.7,3.1,3.8,4.8c3.8,5.5,5.8,12.1,5.8,18.8
								v-4.9C78.6,104.7,76.6,98.2,72.9,92.7z"/>
						</g>
						<path class="st3" d="M62.3,82.5L62.3,82.5c-1.5,3.8-9.5,9.3-20.2,9.3s-18.3-5-20.2-9.2v-0.1c1.5-0.9,3-1.6,4.5-2.2
							c2-0.9,3.3-2.9,3.3-5.1c0-0.8-0.2-1.7-0.5-2.4c8,4.6,17.9,4.6,25.8,0c-1.3,2.8-0.1,6.2,2.8,7.5C59.4,80.8,60.9,81.6,62.3,82.5
							z"/>
						<g class="st1">
							<path class="st5" d="M42,82.3c4.8,0,9.2-3.3,12.8-5.8c-0.6-1.3-0.6-2.8,0-4.1H29.2c0.6,1.3,0.7,2.8,0.1,4.1
								C32.9,79,37.3,82.3,42,82.3z"/>
						</g>
						<path d="M5,125.8c-0.6,0-1-0.4-1-1v-13.4c0-12.2,6.4-23.5,16.9-29.8c1.5-0.9,3-1.7,4.5-2.3c2.2-1.5,3.1-4.3,2.2-6.8
							c-0.2-0.5,0.1-1.1,0.6-1.3c0.5-0.2,1.1,0.1,1.3,0.6c1.3,3.5,0,7.4-3.2,9.3c-1.5,0.6-3,1.4-4.4,2.2c-9.8,6-15.8,16.6-15.9,28.1
							v13.4C6,125.3,5.6,125.8,5,125.8z"/>
						<path d="M79,125.8c-0.6,0-1-0.4-1-1v-13.4c0-6.5-2-12.8-5.6-18.2c-2.7-4-6.3-7.4-10.5-9.8c-1.4-0.8-2.9-1.6-4.4-2.2
							c-3.3-1.8-4.8-5.8-3.3-9.3c0.2-0.5,0.7-0.8,1.3-0.6c0.5,0.2,0.8,0.7,0.6,1.3v0.1C55,75.1,56,78,58.3,79.3
							c1.6,0.7,3.1,1.4,4.6,2.3c4.4,2.6,8.2,6.2,11.1,10.4c3.9,5.7,5.9,12.4,5.9,19.3v13.4C80,125.3,79.6,125.8,79,125.8z"/>
						<path d="M19,125.8c-0.6,0-1-0.4-1-1v-13c0-4.7,0.8-8,2.4-10.3c0.3-0.5,0.9-0.6,1.4-0.2c0.5,0.3,0.6,0.9,0.2,1.4l0,0
							c-1.4,2-2,4.9-2,9.1v13C20,125.3,19.6,125.8,19,125.8L19,125.8z"/>
						<path d="M65,125.8c-0.6,0-1-0.4-1-1v-13c0-4.3-0.6-7.2-2-9.1c-0.3-0.5-0.2-1.1,0.2-1.4c0.5-0.3,1.1-0.2,1.4,0.2l0,0
							c1.6,2.3,2.4,5.6,2.4,10.3v13C66,125.3,65.6,125.8,65,125.8L65,125.8z"/>
						<path d="M42,101c-12.5,0-23.7-5.1-28-12.8c-0.3-0.5-0.1-1.1,0.4-1.4s1.1-0.1,1.4,0.4C19.7,94.3,30.2,99,42,99
							s22.3-4.7,26.2-11.8c0.3-0.5,0.9-0.7,1.4-0.4s0.7,0.9,0.4,1.4C65.7,95.9,54.4,101,42,101z"/>
						<path class="st6" d="M17,33.8c0-28,49.9-28,49.9,0v17c0,8.9-4.8,17.2-12.5,21.7l-5.8,3.4c-4.1,2.4-9.2,2.4-13.3,0l-5.8-3.4
							C21.8,68,17,59.7,17,50.8V33.8z"/>
						<g class="st1">
							<path class="st5" d="M67,45.9c0,8.9-4.8,17.2-12.5,21.6L48.7,71c-4.1,2.4-9.2,2.4-13.3,0l-5.8-3.4
								C21.9,63.1,17.2,54.9,17.1,46v4.9c0,8.9,4.8,17.1,12.5,21.6l5.8,3.4c4.1,2.4,9.2,2.4,13.3,0l5.8-3.4C62.2,68,67,59.7,67,50.8
								V45.9z"/>
						</g>
						<path d="M41.9,78.7c-2.5,0-5-0.7-7.2-2L29,73.3c-8-4.7-12.9-13.2-13-22.4v-17l0,0c-0.1-6.5,2.9-12.7,8.2-16.6
							c5.2-3.7,11.4-5.6,17.7-5.5c6.3-0.1,12.6,1.8,17.8,5.4c5.3,3.8,8.3,10,8.2,16.6v17c-0.1,9.3-5,17.8-13,22.5L49,76.7
							C46.9,78,44.4,78.7,41.9,78.7z M18,33.8v17c0.1,8.6,4.6,16.4,12,20.8l5.8,3.4c3.8,2.2,8.5,2.2,12.3,0l5.8-3.4
							c7.3-4.3,11.9-12.2,11.9-20.8v-17c0.1-5.9-2.6-11.5-7.4-15c-4.8-3.4-10.6-5.2-16.5-5.1C30.4,13.8,18,20,18,33.8L18,33.8z"/>
						<path d="M70,56.8c-0.6,0-1-0.4-1-1v-2c0-0.6,0.4-1,1-1s1,0.4,1,1v2C71,56.3,70.6,56.8,70,56.8z"/>
						<path d="M14,56.8c-0.6,0-1-0.4-1-1v-2c0-0.6,0.4-1,1-1s1,0.4,1,1v2C15,56.3,14.6,56.8,14,56.8z"/>
						<path class="st6" d="M17,51.7v-9c0-3-2.2-4-3.6-3c-2.2,1.5,0.6,8,0.6,8C12.4,48.7,14.2,52.4,17,51.7z"/>
						<path d="M16.3,52.8c-1.5,0-2.9-1-3.6-2.4c-0.5-0.9-0.4-2,0.2-2.9c-0.8-2-2.4-6.9,0-8.6c0.9-0.6,2.1-0.7,3.1-0.2
							c1.4,0.8,2.1,2.4,2,4v9c0,0.5-0.3,0.9-0.8,1C16.9,52.7,16.6,52.8,16.3,52.8z M17,51.7L17,51.7z M14.5,40.3
							c-0.2,0-0.4,0.1-0.6,0.2c-0.9,0.6-0.2,4.1,1,6.8c0.2,0.5,0,1-0.4,1.2c-0.2,0.2-0.2,0.6,0,1c0.3,0.6,0.8,1.1,1.5,1.2v-8.1
							c0.1-0.9-0.3-1.7-1-2.2C14.9,40.4,14.7,40.3,14.5,40.3z"/>
						<path d="M14,48.7c-0.6,0-1-0.5-1-1c0-0.3,0.2-0.7,0.5-0.8l0.4-0.2c0.5-0.3,1.1-0.1,1.4,0.4c0.3,0.4,0.1,1-0.3,1.3l-0.4,0.2
							C14.4,48.6,14.2,48.7,14,48.7z"/>
						<path class="st6" d="M67,51.7v-9c0-3,2.2-4,3.6-3c2.2,1.5-0.6,8-0.6,8C71.6,48.7,69.8,52.4,67,51.7z"/>
						<path d="M67.7,52.8c-0.3,0-0.7,0-1-0.1c-0.5-0.1-0.8-0.5-0.8-1v-9c-0.1-1.6,0.6-3.2,2-4c1-0.5,2.2-0.5,3.1,0.2
							c2.4,1.7,0.8,6.6,0,8.6c0.6,0.9,0.7,2,0.2,3C70.7,51.8,69.3,52.7,67.7,52.8z M69.5,40.3c-0.2,0-0.3,0-0.5,0.1
							c-0.7,0.5-1.1,1.4-1,2.2v8.1c0.7-0.2,1.2-0.6,1.5-1.2c0.2-0.4,0.2-0.9,0-1c-0.4-0.3-0.6-0.8-0.4-1.2c1.2-2.7,1.8-6.2,0.9-6.8
							C69.8,40.4,69.7,40.3,69.5,40.3L69.5,40.3z"/>
						<path d="M70,48.7c-0.2,0-0.4-0.1-0.5-0.2l-0.4-0.2c-0.5-0.3-0.6-0.9-0.4-1.4c0.3-0.5,0.9-0.6,1.4-0.4c0,0,0.1,0,0.1,0.1
							l0.4,0.2c0.5,0.3,0.6,0.9,0.3,1.4C70.7,48.5,70.4,48.7,70,48.7L70,48.7z"/>
						<g class="st1">
							<circle class="st7" cx="27.5" cy="58.3" r="4.5"/>
						</g>
						<g class="st1">
							<circle class="st7" cx="56.5" cy="58.3" r="4.5"/>
						</g>
						<path d="M42,55.3c-0.9-0.1-1.8-0.4-2.5-0.9c-0.5-0.3-0.6-0.9-0.3-1.4s0.9-0.6,1.4-0.3c0.4,0.3,0.9,0.5,1.4,0.6
							c0.5-0.1,1-0.3,1.4-0.6c0.5-0.3,1.1-0.2,1.4,0.3s0.2,1.1-0.3,1.4C43.8,54.9,42.9,55.2,42,55.3z"/>
						<circle cx="30.5" cy="46.8" r="1.5"/>
						<path d="M30.5,49.3c-1.4,0-2.5-1.1-2.5-2.5s1.1-2.5,2.5-2.5s2.5,1.1,2.5,2.5S31.9,49.3,30.5,49.3z M30.5,46.3
							c-0.3,0-0.5,0.2-0.5,0.5s0.2,0.5,0.5,0.5S31,47,31,46.8S30.8,46.3,30.5,46.3z"/>
						<circle cx="54.5" cy="46.8" r="1.5"/>
						<path d="M54.5,49.3c-1.4,0-2.5-1.1-2.5-2.5s1.1-2.5,2.5-2.5s2.5,1.1,2.5,2.5S55.9,49.3,54.5,49.3z M54.5,46.3
							c-0.3,0-0.5,0.2-0.5,0.5s0.2,0.5,0.5,0.5S55,47,55,46.8S54.8,46.3,54.5,46.3z"/>
						<path d="M23,41.5c-0.6,0-1-0.5-1-1c0-0.4,0.2-0.7,0.5-0.9l5.2-2.7c0.1-0.1,0.3-0.1,0.5-0.1c1.5,0,3.7,1,5.5,1.9
							c0.7,0.3,1.4,0.6,2.2,0.9c0.6,0.1,0.9,0.6,0.8,1.2c-0.1,0.6-0.6,0.9-1.2,0.8c-0.9-0.2-1.8-0.6-2.6-1c-1.4-0.7-2.9-1.3-4.5-1.7
							l-5,2.6C23.3,41.5,23.1,41.5,23,41.5z"/>
						<path class="st8" d="M48.2,60.9c0,1.7-2.8,3.1-6.2,3.1s-6.2-1.4-6.2-3.1c1.2-1.9,4.4-1.4,6.2,0.5C43.9,59.5,47,59,48.2,60.9z"
							/>
						<path d="M42,64.8c-3.1,0-5.9-1.3-7.1-3.2c-0.3-0.4-0.2-1.1,0.2-1.4c0.4-0.3,1.1-0.2,1.4,0.2l0.1,0.1c0.9,1.4,3,2.3,5.4,2.3
							s4.5-0.9,5.4-2.3c0.3-0.5,0.9-0.7,1.4-0.4s0.7,0.9,0.4,1.4c0,0,0,0.1-0.1,0.1C47.8,63.5,45,64.8,42,64.8z"/>
						<path d="M61,41.5c-0.3,0-0.5-0.1-0.7-0.3c-1.5-1-3.1-1.9-4.8-2.6c-1.6,0.3-3.2,0.9-4.7,1.6c-0.8,0.4-1.6,0.7-2.5,1
							c-0.6,0.1-1.1-0.3-1.2-0.8c-0.1-0.6,0.3-1.1,0.8-1.2c0.7-0.2,1.4-0.5,2-0.8c1.8-0.8,4-1.8,5.6-1.8c0.1,0,0.3,0,0.4,0.1
							c0.8,0.3,4.5,2,5.6,3.1c0.4,0.4,0.4,1,0,1.4C61.5,41.4,61.2,41.5,61,41.5L61,41.5z"/>
						<path d="M35,47.4c-0.3,0-0.6-0.2-0.8-0.4c-1.6-2.2-3.9-1.8-7-1c-1.7,0.5-3.4,0.9-4.6,0.3c-0.5-0.3-0.7-0.9-0.4-1.4
							c0.2-0.5,0.8-0.7,1.3-0.4c0.6,0.3,1.9-0.1,3.2-0.4c2.8-0.8,6.6-1.8,9.1,1.7c0.3,0.4,0.3,1.1-0.2,1.4
							C35.5,47.3,35.2,47.4,35,47.4z"/>
						<path d="M50,47.4c-0.6,0-1-0.4-1-1c0-0.2,0.1-0.4,0.2-0.6c2.2-3,5.6-2.2,8.1-1.6c1.3,0.3,2.6,0.6,3.2,0.3
							c0.5-0.3,1.1-0.1,1.4,0.4c0.3,0.5,0.1,1.1-0.4,1.4c0,0,0,0-0.1,0c-1.3,0.6-2.9,0.3-4.6-0.1c-2.8-0.7-4.7-1-6.1,0.8
							C50.6,47.2,50.3,47.4,50,47.4z"/>
						<path d="M29.5,62.9c-0.1,0-0.1,0-0.2,0h-0.2l-0.2-0.1c-0.1,0-0.1-0.1-0.2-0.1c-0.1-0.1-0.2-0.2-0.2-0.3s-0.1-0.2-0.1-0.4
							c0-0.1,0-0.1,0-0.2c0-0.1,0-0.1,0-0.2l0.1-0.2c0-0.1,0.1-0.1,0.1-0.2l0.2-0.1c0.1,0,0.1-0.1,0.2-0.1c0.1,0,0.1,0,0.2-0.1
							c0.3-0.1,0.7,0,0.9,0.3c0.1,0,0.1,0.1,0.1,0.2l0.1,0.2l0.1,0.2c0,0.1,0,0.1,0,0.2c0,0.1,0,0.3-0.1,0.4c0,0.1-0.1,0.2-0.2,0.3
							C29.9,62.8,29.7,62.9,29.5,62.9z"/>
						<path d="M66.9,34.8c-0.6,0-1-0.4-1-1c0-0.9-0.1-1.9-0.2-2.8c-0.1-0.6,0.3-1.1,0.9-1.1c0.6-0.1,1.1,0.3,1.1,0.9
							c0.1,1,0.2,2.1,0.2,3.1C67.9,34.3,67.4,34.8,66.9,34.8L66.9,34.8z"/>
						<path d="M17,34.8c-0.6,0-1-0.4-1-1c0-1.3,0.1-2.7,0.4-4c0.1-0.6,0.6-0.9,1.2-0.8s0.9,0.6,0.8,1.2l0,0
							c-0.2,1.2-0.3,2.5-0.3,3.7C18,34.4,17.6,34.8,17,34.8z"/>
						<g>
							<g>
								<defs>
									<path id="SVGID_3_" d="M41.8-2.7c31,0,56.2,33.9,56.2,64.9l0,0c0,31-25.1,56.1-56.1,56.1s-56.1-25.1-56.1-56.1
										C-14.2,31.1,10.8-2.7,41.8-2.7z"/>
								</defs>
								<clipPath id="SVGID_4_">
									<use xlink:href="#SVGID_3_"  style="overflow:visible;"/>
								</clipPath>
								<g class="st9">
									<path class="st5" d="M51.7,21.1H31.8c-8-0.1-14.5,5.9-14.5,13.2l0,0V36c0-4,12.2-10.5,22-10.5c-4.2,3-5.4,8.8-3.7,11.3
										c11.9-8,16.5-2.1,26.5-2.6c3-0.1,4.1,2.9,4.1,2.9v-2.7C66.2,27,59.7,21,51.7,21.1L51.7,21.1z"/>
								</g>
							</g>
						</g>
						<g>
							<g>
								<defs>
									<path id="SVGID_5_" d="M41.8-2.7c31,0,56.2,33.9,56.2,64.9l0,0c0,31-25.1,56.1-56.1,56.1s-56.1-25.1-56.1-56.1
										C-14.2,31.1,10.8-2.7,41.8-2.7z"/>
								</defs>
								<clipPath id="SVGID_6_">
									<use xlink:href="#SVGID_5_"  style="overflow:visible;"/>
								</clipPath>
								<path class="st10" d="M54.3,11c8.2,3.2,19.3,12.4,14.7,25.8c-0.7,2-1.6,1.3-2.7,1.1c0,0-0.2-7.8-4.3-7
									c-9.8,1.9-14.6-5.5-26.5,2.6c-1.6-2.5-0.5-8.3,3.7-11.3c-9.7,0-22.1,5.7-22.1,12.4c0,0-3.2-2.3-3.5-4.5
									C12.3,20,18.2,15,27.8,11.1c1.9-0.7,0.5-10.7,2.5-8.9C35.9,7.1,49.9,9.2,54.3,11z"/>
							</g>
						</g>
						<g>
							<g>
								<defs>
									<path id="SVGID_7_" d="M41.8-2.7c31,0,56.2,33.9,56.2,64.9l0,0c0,31-25.1,56.1-56.1,56.1s-56.1-25.1-56.1-56.1
										C-14.2,31.1,10.8-2.7,41.8-2.7z"/>
								</defs>
								<clipPath id="SVGID_8_">
									<use xlink:href="#SVGID_7_"  style="overflow:visible;"/>
								</clipPath>
								<path class="st11" d="M67.3,39.3c-0.5,0-0.9-0.1-1.4-0.3c-0.4-0.2-0.6-0.5-0.6-0.9c0-1.8-0.6-5-1.9-5.9
									c-0.3-0.2-0.7-0.3-1.1-0.2c-3.9,0.7-7.1,0.1-10.1-0.5c-4.8-1-9-1.8-16,2.9c-0.5,0.3-1.1,0.2-1.5-0.2l-0.1-0.1
									c-1.6-2.5-1-7.3,1.9-10.7c-8.7,0.9-18.3,5.8-18.3,11.2c0,0.6-0.5,1-1.1,1c-0.1,0-0.3-0.1-0.4-0.1c-2.3-0.9-3.9-3-4.2-5.3
									c-1.2-11.7,6.4-16.5,14.8-19.9c0.4-0.6,0.5-3,0.6-4.3c0.2-2.8,0.3-4.5,1.5-5c0.6-0.2,1.3,0,1.7,0.4
									c3.3,2.9,8.4,4.3,13.9,5.7c3.3,0.8,6.5,1.8,9.7,3l0,0c5.2,2,9.7,5.3,13,9.6c3.7,5.2,4.5,11,2.4,17.4
									c-0.2,0.8-0.8,1.5-1.6,1.8C68.1,39.1,67.7,39.1,67.3,39.3z M62.8,29.8c0.7,0,1.5,0.2,2.1,0.7c2,1.5,2.5,5,2.6,6.6
									c0,0,0.1,0,0.2,0c0.2-0.2,0.4-0.4,0.4-0.6c5.1-15.3-9.6-22.6-14.2-24.5c-3.1-1.1-6.3-2.1-9.6-2.9
									c-5.4-1.4-10.4-2.7-14.1-5.6c-0.1,0.8-0.1,1.8-0.2,2.6c-0.2,3.3-0.4,5.4-1.8,6c-8.9,3.6-14.6,8-13.6,17.9
									c0.1,1.1,0.7,2.2,1.6,2.9c1.8-6.6,13.3-11.7,23-11.7c0.6,0,1.1,0.4,1.1,1c0,0.3-0.1,0.6-0.4,0.8c-2.9,2.1-4.3,5.6-3.8,9
									c7.2-4.4,12-3.4,16.6-2.5c2.9,0.6,5.7,1.2,9.2,0.5C62.1,29.9,62.4,29.9,62.8,29.8z"/>
							</g>
						</g>
						<g>
							<g>
								<defs>
									<path id="SVGID_9_" d="M41.8-2.7c31,0,56.2,33.9,56.2,64.9l0,0c0,31-25.1,56.1-56.1,56.1s-56.1-25.1-56.1-56.1
										C-14.2,31.1,10.8-2.7,41.8-2.7z"/>
								</defs>
								<clipPath id="SVGID_10_">
									<use xlink:href="#SVGID_9_"  style="overflow:visible;"/>
								</clipPath>
								<path class="st12" d="M25.5,18.6c-0.6,0-1.1-0.4-1.1-1c0-0.1,0-0.3,0.1-0.4l0.4-0.8c1.1-1.9,1.9-4,2.3-6.2
									c0.1-0.5,0.7-0.9,1.3-0.8c0.6,0.1,1,0.6,0.9,1.2c-0.4,2.4-1.2,4.7-2.5,6.8l-0.4,0.8C26.3,18.5,25.9,18.8,25.5,18.6z"/>
							</g>
						</g>
					</g>
				</g>
			</g>
		</g>
	</g>
</g>
</svg>
