<?xml version="1.0" encoding="utf-8"?>
<!-- Generator: Adobe Illustrator 25.2.1, SVG Export Plug-In . SVG Version: 6.00 Build 0)  -->
<svg version="1.1" id="_004" xmlns="http://www.w3.org/2000/svg" xmlns:xlink="http://www.w3.org/1999/xlink" x="0px" y="0px"
	 viewBox="0 0 84 117.4" style="enable-background:new 0 0 84 117.4;" xml:space="preserve">
<style type="text/css">
	.st0{clip-path:url(#SVGID_2_);}
	.st1{fill:#161616;}
	.st2{fill:#232323;}
	.st3{fill:#F9E2DC;}
	.st4{opacity:0.3;fill:#CC7E54;enable-background:new    ;}
	.st5{opacity:0.5;enable-background:new    ;}
	.st6{opacity:0.1;enable-background:new    ;}
	.st7{opacity:0.3;fill:#FF9797;enable-background:new    ;}
</style>
<g>
	<g>
		<g>
			<g>
				<defs>
					<path id="SVGID_1_" d="M98.1,61.2c0,31-25.1,56.1-56.1,56.1s-56.1-25.1-56.1-56.1l0,0c0-31,25.2-64.9,56.2-64.9
						S98.1,30.2,98.1,61.2z"/>
				</defs>
				<clipPath id="SVGID_2_">
					<use xlink:href="#SVGID_1_"  style="overflow:visible;"/>
				</clipPath>
				<g class="st0">
					<path class="st1" d="M57.6,77.4c4.4,0,8.8-0.7,13-1.9c7-2,11-9.2,9.1-16.2c-0.1-0.2-0.1-0.4-0.2-0.5
						c-3.5-10.9-0.7-19.7-3.2-30.3c-3.3-14.2-16-24.9-33-24.9S12.7,13.7,9.9,28.4c-2,10.6,0.7,19.3-2.7,29.9
						C5,65.3,8.8,72.8,15.7,75c0.1,0,0.1,0,0.2,0.1c4,1.3,8.1,2.1,12.3,2.3H57.6z"/>
					<g>
						<path d="M70.6,70.6c-4.2,1.2-8.6,1.9-13,1.9H28.2c-4.2-0.2-8.3-1-12.3-2.3c-4.7-1.4-8.2-5.3-9.1-10.1
							c-1.3,6.6,2.6,13.1,9.1,15.1c4,1.3,8.1,2.1,12.3,2.3h29.4c4.4,0,8.8-0.7,13-1.9c6.6-1.9,10.6-8.4,9.3-15.1
							C79,65.3,75.4,69.2,70.6,70.6z"/>
					</g>
					<path class="st2" d="M77.5,43.3L77.5,43.3c0-4.8,0.1-9.6-1.1-14.8c-3.3-14.2-16-24.9-33-24.9S12.7,13.7,9.9,28.4
						c-0.8,4.7-1,9.5-0.8,14.2c0-3.1,0.3-6.2,0.8-9.2C12.7,18.7,26.2,8.5,43.3,8.5s29.7,10.7,33,24.9C77,36.6,77.4,40,77.5,43.3z"/>
					<path d="M40.6,78.7c-3.5,0-7-0.1-10.6-0.2c-4.9-0.2-9.7-1-14.3-2.4C12,75,9,72.5,7.3,69.2c-1.8-3.4-2.2-7.5-1-11.1
						c1.8-5.8,1.8-11,1.8-16.4c-0.2-4.5,0.1-9,0.9-13.4C11.9,13.1,26,2.5,43.4,2.5c16.8,0,30.4,10.3,34,25.7c0.9,4.6,1.3,9.3,1.2,14
						c0,5.4,0.1,10.5,1.9,16.3c1.2,3.7,0.8,7.8-1,11.2s-4.9,5.8-8.6,6.8c-4.9,1.2-10,1.8-15.1,1.9h-1.4
						C49.9,78.6,45.3,78.7,40.6,78.7z M43.3,4.5c-16.4,0-29.7,9.9-32.4,24.1c-0.7,4.3-1,8.6-0.8,13c0,5.4,0.1,10.9-1.9,17.1
						c-1,3.2-0.7,6.7,0.9,9.6c1.5,2.8,4.1,5,7.2,5.9c4.5,1.3,9.2,2.1,13.9,2.3c8.3,0.4,16.4,0.2,24.3,0h1.4l0,0
						c4.9-0.1,9.8-0.7,14.6-1.9c3.1-0.9,5.8-3,7.3-5.9c1.6-3,1.9-6.4,0.9-9.6c-2-6.1-2-11.6-2-16.9c0.1-4.5-0.3-9.1-1.2-13.5
						C72,14.2,59.1,4.5,43.3,4.5z"/>
					<path class="st3" d="M74.5,92.4c-3.8-5.6-9.2-9.9-15.4-12.5c-2.8-1.3-4.1-4.6-2.8-7.4l0,0H30c0.3,0.7,0.4,1.5,0.3,2.3
						c0,2.2-1.3,4.2-3.3,5.1c-15.5,7.5-20.6,20.6-20.6,31.2v13.4h74v-13.4C80.3,104.4,78.3,97.9,74.5,92.4z"/>
					<path class="st4" d="M43.4,82.3c6,0,9.2-3,12.8-5.5c-0.6-1.4-0.6-2.9,0-4.3H30.1c0.5,1.4,0.5,2.9-0.1,4.3
						C33.6,79.3,37.4,82.3,43.4,82.3z"/>
					<path d="M6.4,124.5c-0.6,0-1-0.4-1-1v-12.4c0-12.2,6.4-23.5,16.9-29.8c1.5-0.9,3-1.7,4.6-2.3c2.2-1.5,3.1-4.3,2.2-6.8
						c-0.2-0.5,0.1-1.1,0.6-1.3c0.5-0.2,1.1,0.1,1.3,0.6c1.3,3.5,0,7.4-3.2,9.3c-1.5,0.6-2.9,1.4-4.3,2.2
						c-9.8,6-15.9,16.6-15.9,28.1v12.4C7.4,124,6.9,124.5,6.4,124.5z"/>
					<path d="M80.4,124.5c-0.6,0-1-0.4-1-1v-12.4c0-6.5-1.9-12.8-5.6-18.2S65,83.3,58.9,80.8c-3.3-1.8-4.8-5.8-3.3-9.3
						c0.2-0.5,0.8-0.8,1.3-0.6c0.5,0.2,0.8,0.8,0.6,1.3l0,0c-1.1,2.5-0.1,5.4,2.3,6.7c1.6,0.7,3.1,1.4,4.6,2.3
						c4.4,2.6,8.2,6.2,11.1,10.5c3.9,5.7,5.9,12.4,5.9,19.3v12.4C81.4,124,80.9,124.5,80.4,124.5z"/>
					<path d="M20.4,124.5c-0.6,0-1-0.4-1-1v-12c0-4.7,0.8-8,2.4-10.3c0.3-0.5,0.9-0.6,1.4-0.2c0.5,0.3,0.6,0.9,0.2,1.4l0,0
						c-1.4,2-2,4.9-2,9.1v12C21.4,124,20.9,124.5,20.4,124.5z"/>
					<path d="M66.4,124.5c-0.6,0-1-0.4-1-1v-12c0-4.3-0.6-7.2-2-9.1c-0.3-0.5-0.2-1.1,0.2-1.4c0.4-0.3,1.1-0.2,1.4,0.2
						c1.6,2.3,2.4,5.6,2.4,10.3v12C67.4,124,66.9,124.5,66.4,124.5z"/>
					<path d="M29.4,113.5c-0.3,0-0.5-0.1-0.7-0.3c-0.2-0.2-0.3-0.4-0.3-0.7c0-0.1,0-0.3,0.1-0.4c0-0.1,0.1-0.2,0.2-0.3
						c0.4-0.4,1-0.4,1.4,0s0.4,1,0,1.4C29.9,113.4,29.6,113.5,29.4,113.5z"/>
					<path d="M57.4,113.5c-0.3,0-0.5-0.1-0.7-0.3c-0.2-0.2-0.3-0.4-0.3-0.7c0-0.1,0-0.3,0.1-0.4c0-0.1,0.1-0.2,0.2-0.3
						c0.4-0.4,1-0.4,1.4,0c0.1,0.1,0.2,0.2,0.2,0.3c0.1,0.1,0.1,0.2,0.1,0.4c0,0.3-0.1,0.5-0.3,0.7
						C57.9,113.4,57.6,113.5,57.4,113.5z"/>
					<path class="st5" d="M30.4,122.5c-6.1,0-11-4.9-11-11c0-0.6,0.4-1,1-1s1,0.4,1,1c0,5,4,9,9,9s9-4,9-9c0-0.6,0.4-1,1-1
						s1,0.4,1,1C41.4,117.6,36.4,122.5,30.4,122.5z"/>
					<path class="st5" d="M56.4,122.5c-6.1,0-11-4.9-11-11c0-0.6,0.4-1,1-1s1,0.4,1,1c0,5,4,9,9,9s9-4,9-9c0-0.6,0.4-1,1-1
						s1,0.4,1,1C67.4,117.6,62.4,122.5,56.4,122.5z"/>
					<path class="st1" d="M66.4,124.5h-46v-12c-5,1-9,1-14-1.4c0-12,6.1-24.8,22.8-32.7c3.6,5.8,8.8,12.9,14.1,16.8
						c4.3-2.8,10.4-11.1,13.8-17c4.4,2.6,12.1,6.2,17.5,14.2c3.8,5.5,5.8,12.1,5.8,18.7c-4.4,2-9.3,2.5-14,1.5
						C66.4,112.6,66.4,124.5,66.4,124.5z"/>
					<path class="st1" d="M63.6,82.1l0.2,0.1l0,0c-5.5,10.3-20.5,17.3-20.5,17.3s-15-6-20.5-17.2l-0.1-0.1l0.2-0.1
						c2.7-1.7,5.1-2.1,6.4-3.9l0.2,0.2c3.7,8.7,13.6,17.2,13.6,17.2S52.6,87,57,78.2l0.1-0.1C58.4,79.9,60.8,80.3,63.6,82.1z"/>
					<path d="M24.5,85.2c1.4-0.8,3.5-1.8,3.5-1.8c4.4,8.7,15.3,15.4,15.3,15.4s10-6.7,15.1-15.4c1.2,0.7,2.5,1.2,3.8,1.5
						c0.4-0.5,1.2-2.2,1.6-2.8l0,0c0,0-5.4-2.3-6.7-4.1L57,78.2C52.6,87,43.2,95.5,43.2,95.5S33.3,87,29.6,78.3l-0.2-0.2
						c-1.3,1.8-6.6,4-6.6,4l0.1,0.1C23.1,82.8,24.2,84.7,24.5,85.2z"/>
					<path d="M74.5,92.4c-2.6-4.1-6.1-7.6-10.2-10.2c-3,5.6-13,14.2-20.9,17.1C34.1,96.4,25,87,22.5,82.2
						c-10.1,6.2-16.2,17.2-16.1,29c1.8-7.5,6.4-18.6,15.5-23.7c5.4,7.3,12.9,12.8,21.5,15.8c8.4-3.4,15.8-9,21.3-16.2
						c7.7,5.1,13,12.6,15.7,24.2C80.3,104.4,78.2,97.9,74.5,92.4z"/>
					<path d="M71.5,114.2c-1.8,0-3.5-0.2-5.2-0.5c-0.5-0.1-0.9-0.6-0.8-1.2c0.1-0.5,0.6-0.9,1.2-0.8c6.9,1.4,11.3-0.5,12.7-1.2
						c-0.1-6.3-2.1-12.4-5.6-17.6c-2.7-4-6.3-7.4-10.5-9.9c-0.5-0.3-0.6-0.9-0.3-1.4s0.9-0.6,1.4-0.3c4.4,2.6,8.2,6.2,11.1,10.5
						c3.9,5.7,5.9,12.4,5.9,19.3c0,0.3-0.2,0.6-0.4,0.8C80.8,112.1,77.5,114.2,71.5,114.2z M80.4,111.1L80.4,111.1z"/>
					<path d="M20.4,124.5c-0.6,0-1-0.4-1-1v-12c0-4.7,0.8-8,2.4-10.3c0.3-0.5,0.9-0.6,1.4-0.2c0.5,0.3,0.6,0.9,0.2,1.4l0,0
						c-1.4,2-2,4.9-2,9.1v12C21.4,124,20.9,124.5,20.4,124.5z"/>
					<path d="M66.4,124.5c-0.6,0-1-0.4-1-1v-12c0-4.3-0.6-7.2-2-9.1c-0.3-0.5-0.2-1.1,0.2-1.4c0.4-0.3,1.1-0.2,1.4,0.2
						c1.6,2.3,2.4,5.6,2.4,10.3v12C67.4,124,66.9,124.5,66.4,124.5z"/>
					<path d="M15.2,114.2c-6,0-9.3-2.2-9.4-2.3c-0.3-0.2-0.4-0.5-0.4-0.8c0-12.2,6.4-23.5,16.9-29.8c0.5-0.3,1.1-0.1,1.4,0.3
						c0.3,0.5,0.1,1.1-0.3,1.4c-9.7,5.8-15.7,16.2-15.9,27.5c1.4,0.7,5.8,2.6,12.7,1.2c0.5-0.1,1.1,0.2,1.2,0.8
						c0.1,0.5-0.2,1.1-0.8,1.2l0,0C18.7,114.1,17,114.2,15.2,114.2z"/>
					<path d="M43.4,100.5c-0.1,0-0.3,0-0.4-0.1c-0.6-0.3-15.4-6.3-21-17.7c-0.2-0.5,0-1.1,0.5-1.3c0.5-0.2,1.1,0,1.3,0.5
						c4.8,9.7,17.2,15.5,19.6,16.6c2.4-1.2,14.9-7.7,19.6-16.6c0.3-0.5,0.9-0.7,1.4-0.4c0.5,0.3,0.7,0.9,0.4,1.4
						c-5.6,10.5-20.3,17.4-20.9,17.7C43.7,100.4,43.5,100.5,43.4,100.5z"/>
					<path d="M43.2,96.5c-0.2,0-0.5-0.1-0.7-0.2c-0.4-0.4-10.1-8.7-13.9-17.5c-0.2-0.5,0-1.1,0.5-1.3c0.5-0.2,1.1,0,1.3,0.5l0,0
						c3.1,7.1,10.4,14.2,12.7,16.2c2.2-2.1,9.4-9.2,12.9-16.4c0.2-0.5,0.8-0.7,1.3-0.5s0.7,0.8,0.5,1.3l0,0
						c-4.4,8.8-13.6,17.2-14,17.6C43.7,96.4,43.4,96.5,43.2,96.5z"/>
					<path d="M63.6,83.1c-0.2,0-0.4-0.1-0.5-0.2c-0.9-0.5-1.8-1-2.8-1.5c-1.7-0.8-3.1-1.5-4.1-2.9c-0.3-0.5-0.2-1.1,0.3-1.4
						s1.1-0.2,1.4,0.3l0,0c0.6,1,1.8,1.5,3.2,2.2c1,0.5,2,1,3,1.6c0.5,0.3,0.6,0.9,0.3,1.4C64.2,82.9,63.9,83.1,63.6,83.1L63.6,83.1
						z"/>
					<path d="M22.9,83.1c-0.6,0-1-0.4-1-1c0-0.3,0.2-0.7,0.5-0.8c1-0.6,1.9-1.1,3-1.6c1.5-0.7,2.6-1.2,3.2-2.2
						c0.3-0.5,0.9-0.6,1.4-0.3c0.5,0.3,0.6,0.9,0.3,1.4l0,0c-0.9,1.5-2.4,2.1-4.1,2.9c-1,0.4-1.9,0.9-2.8,1.5
						C23.3,83,23.1,83.1,22.9,83.1z"/>
					<path class="st3" d="M18.4,34.5c0-28,50-28,50,0v17c0,8.9-4.8,17.1-12.5,21.6L50,76.6c-4.1,2.4-9.2,2.4-13.3,0l-5.8-3.4
						c-7.7-4.5-12.4-12.7-12.5-21.6L18.4,34.5z"/>
					<path class="st4" d="M68.3,46.6c0,8.9-4.8,17.2-12.5,21.6L50,71.7c-4.1,2.4-9.2,2.4-13.3,0l-5.8-3.4
						c-7.7-4.5-12.4-12.7-12.5-21.6v4.9c0,8.9,4.8,17.1,12.5,21.6l5.8,3.4c4.1,2.4,9.2,2.4,13.3,0l5.8-3.4
						c7.7-4.5,12.5-12.7,12.5-21.6V46.6z"/>
					<path d="M43.3,79.4c-2.5,0-5-0.7-7.2-2L30.3,74c-8-4.7-12.9-13.2-13-22.5V34.4l0,0c-0.1-6.5,2.9-12.7,8.2-16.6
						c5.2-3.7,11.4-5.6,17.8-5.4c6.4-0.1,12.6,1.8,17.8,5.4c5.3,3.8,8.4,10,8.2,16.6v17c-0.1,9.3-5,17.8-13,22.5l-5.8,3.4
						C48.3,78.7,45.9,79.4,43.3,79.4z M19.4,34.5v17.1c0.1,8.5,4.6,16.4,12,20.8l5.8,3.4c3.8,2.2,8.5,2.2,12.3,0l5.8-3.4
						c7.4-4.3,12-12.2,12-20.8v-17c0.1-5.9-2.6-11.5-7.4-14.9c-4.9-3.4-10.7-5.2-16.6-5.1C31.8,14.5,19.4,20.7,19.4,34.5z"/>
					<path class="st3" d="M18.4,52.4v-9c0-3-2.2-4-3.6-3c-2.2,1.5,0.6,8,0.6,8C13.7,49.4,15.6,53.1,18.4,52.4z"/>
					<path d="M17.6,53.5c-1.6,0-3-1-3.5-2.5c-0.5-0.9-0.4-2,0.1-2.9c-0.8-2-2.4-6.9,0-8.6c0.9-0.6,2.1-0.7,3.1-0.2
						c1.4,0.8,2.2,2.4,2,4v9c0,0.5-0.3,0.9-0.7,1C18.3,53.4,18,53.5,17.6,53.5z M18.4,52.4L18.4,52.4z M15.9,41
						c-0.2,0-0.4,0.1-0.6,0.2c-0.9,0.6-0.2,4.1,0.9,6.8c0.2,0.4,0,1-0.4,1.2c-0.2,0.1-0.2,0.6,0,1c0.3,0.6,0.8,1.1,1.5,1.2v-8.1
						c0.1-0.9-0.3-1.7-1-2.2C16.2,41.1,16.1,41,15.9,41z"/>
					<path d="M15.4,49.4c-0.6,0-1-0.4-1-1c0-0.3,0.2-0.7,0.5-0.8l0.4-0.2c0.5-0.3,1.1-0.2,1.4,0.3s0.2,1.1-0.3,1.4L16,49.3
						C15.7,49.3,15.6,49.4,15.4,49.4z"/>
					<path class="st3" d="M68.4,52.4v-9c0-3,2.2-4,3.6-3c2.2,1.5-0.6,8-0.6,8C73,49.4,71.2,53.1,68.4,52.4z"/>
					<path d="M69.1,53.5c-0.3,0-0.7,0-1-0.1c-0.4-0.1-0.7-0.5-0.7-1v-9c-0.1-1.6,0.7-3.2,2-4c1-0.5,2.2-0.5,3.1,0.2
						c2.4,1.7,0.8,6.6,0,8.6c0.5,0.9,0.6,2,0.1,2.9C72.1,52.5,70.7,53.4,69.1,53.5z M70.8,41c-0.2,0-0.3,0-0.5,0.1
						c-0.7,0.5-1.1,1.4-1,2.2v8.1c0.7-0.2,1.2-0.6,1.5-1.2c0.2-0.4,0.2-0.9,0-1c-0.4-0.3-0.6-0.8-0.4-1.2c1.2-2.7,1.8-6.2,0.9-6.8
						C71.2,41.1,71,41,70.8,41L70.8,41z"/>
					<path d="M71.4,49.4c-0.2,0-0.4-0.1-0.5-0.2L70.4,49c-0.5-0.3-0.6-0.9-0.3-1.4c0.3-0.5,0.9-0.6,1.4-0.3l0.4,0.2
						c0.5,0.3,0.6,0.9,0.3,1.4C72,49.2,71.7,49.4,71.4,49.4z"/>
					<path class="st6" d="M18.4,33.5c0,0,21.9,9,41-8c2.9,10.4,9,8.5,9,8.5v-3.7c0,0-6.3,2.6-9.2-7.8c-18.8,16-40.8,7-40.8,7
						L18.4,33.5z"/>
					<path class="st1" d="M18.4,29.4c0,0,21.6,9.6,40.7-7.5c0,9.8,9.2,8.6,9.2,8.6l2.3-0.2C68.4,5.1,21.3,4.4,16.4,28.4L18.4,29.4z"
						/>
					<path d="M33,33c-5.1,0-10.2-0.9-15-2.7l-2-0.9c-0.5-0.2-0.7-0.8-0.5-1.3s0.8-0.7,1.3-0.5l2,0.9c0.2,0.1,21.3,9.1,39.7-7.3
						c0.4-0.4,1-0.3,1.4,0.1c0.2,0.2,0.3,0.4,0.3,0.7c0,2.7,0.7,4.7,2.2,6c2.3,2.1,5.8,1.6,5.9,1.6l1.3-0.1c0.6,0,1,0.4,1.1,0.9
						c0,0.5-0.4,1-0.9,1.1l-1.3,0.1c-0.1,0-4.4,0.5-7.4-2.1C59.5,28,58.5,26,58.3,24C51.2,29.9,42.2,33.1,33,33z"/>
					<path d="M68.3,34.5c-0.6,0-1-0.4-1-1c0-0.9-0.1-1.9-0.2-2.8c-0.1-0.5,0.3-1.1,0.9-1.1c0.5-0.1,1,0.3,1.1,0.9
						c0.1,1,0.2,2.1,0.2,3.1C69.3,34,68.8,34.5,68.3,34.5L68.3,34.5z"/>
					<path d="M18.4,34.5c-0.6,0-1-0.4-1-1c0-1.4,0.1-2.7,0.4-4c0.1-0.5,0.6-0.9,1.2-0.8c0.5,0.1,0.9,0.6,0.8,1.2
						c-0.2,1.2-0.3,2.5-0.3,3.7C19.4,34,18.9,34.5,18.4,34.5L18.4,34.5z"/>
					<circle class="st7" cx="28.9" cy="58" r="4.5"/>
					<circle class="st7" cx="57.9" cy="58" r="4.5"/>
					<path d="M43.3,55c-0.9-0.1-1.8-0.4-2.5-0.9c-0.5-0.3-0.6-0.9-0.3-1.4s0.9-0.6,1.4-0.3l0,0c0.4,0.3,0.9,0.5,1.4,0.6
						c0.5-0.1,1-0.3,1.4-0.6c0.5-0.3,1.1-0.2,1.4,0.3s0.2,1.1-0.3,1.4l0,0C45.1,54.6,44.3,54.9,43.3,55z"/>
					<path d="M36.4,41.5c-0.2,0-0.3,0-0.5-0.1l-0.4-0.2c-2.2-1.1-6.2-3.3-9.1,0c-0.4,0.4-1,0.4-1.4,0.1c-0.4-0.4-0.4-1-0.1-1.4l0,0
						c4-4.4,9.3-1.6,11.5-0.4l0.4,0.2c0.5,0.3,0.7,0.9,0.4,1.3C37.1,41.3,36.7,41.5,36.4,41.5L36.4,41.5z"/>
					<path d="M50.4,41.5c-0.6,0-1-0.4-1-1c0-0.4,0.2-0.7,0.5-0.9c6.8-4,9.5-2.2,11.9,0.1c0.4,0.4,0.4,1,0,1.4s-1,0.4-1.4,0l0,0
						c-1.8-1.8-3.4-3.4-9.4,0.1C50.7,41.5,50.5,41.5,50.4,41.5z"/>
					<path d="M60.4,45.5h-9c-0.6,0-1-0.4-1-1s0.4-1,1-1h9c0.6,0,1,0.4,1,1S60.9,45.5,60.4,45.5z"/>
					<path d="M35.4,45.5h-9c-0.6,0-1-0.4-1-1s0.4-1,1-1h9c0.6,0,1,0.4,1,1S35.9,45.5,35.4,45.5z"/>
					<circle cx="31.9" cy="46.5" r="1.5"/>
					<path d="M31.9,49c-1.4,0-2.5-1.1-2.5-2.5s1.1-2.5,2.5-2.5s2.5,1.1,2.5,2.5S33.2,49,31.9,49z M31.9,46c-0.3,0-0.5,0.2-0.5,0.5
						s0.2,0.5,0.5,0.5c0.3,0,0.5-0.2,0.5-0.5S32.1,46,31.9,46z"/>
					<circle cx="54.9" cy="46.5" r="1.5"/>
					<path d="M54.9,49c-1.4,0-2.5-1.1-2.5-2.5s1.1-2.5,2.5-2.5s2.5,1.1,2.5,2.5S56.2,49,54.9,49z M54.9,46c-0.3,0-0.5,0.2-0.5,0.5
						s0.2,0.5,0.5,0.5s0.5-0.2,0.5-0.5S55.1,46,54.9,46z"/>
					<path d="M43.4,66.3c-3.2,0-6.1-1.3-7.3-3.2c-0.3-0.5-0.2-1.1,0.3-1.4c0.5-0.3,1.1-0.2,1.4,0.3l0,0c0.9,1.4,3.2,2.3,5.7,2.3
						s4.8-0.9,5.7-2.3c0.3-0.5,0.9-0.6,1.4-0.3s0.6,0.9,0.3,1.4C49.4,65,46.5,66.3,43.4,66.3z"/>
				</g>
			</g>
		</g>
	</g>
</g>
</svg>
