<svg id="Warstwa_1" data-name="Warstwa 1" xmlns="http://www.w3.org/2000/svg" width="22.41mm" height="22.84mm" viewBox="0 0 63.51 64.73"><defs><style>.cls-1{fill:#00818e;}</style></defs><path class="cls-1" d="M49.91,23.68V19.24a3.92,3.92,0,0,0-.54.12l-16.06,5a.76.76,0,0,0-.65.88c0,2,0,4,0,6.08h3.85a5.41,5.41,0,0,1,1.27.11,3.18,3.18,0,0,1,2.43,3c0,1.5,0,3,0,4.51a3.17,3.17,0,0,1-3.1,3.12q-5.53,0-11,0A3.17,3.17,0,0,1,23,39q-.06-2.3,0-4.59a3.2,3.2,0,0,1,3.18-3.11c1.41,0,2.82,0,4.24,0,0,0,0,0,.08-.07v-6l-.68.2c-5.29,1.64-10.58,3.29-15.87,4.91-.53.16-.7.37-.68.92,0,1.42,0,2.83,0,4.31.22,0,.41,0,.6,0h3.71a3.21,3.21,0,0,1,3.23,3.2c0,1.46,0,2.92,0,4.38a3.22,3.22,0,0,1-3.24,3.2c-3.59,0-7.19,0-10.78,0a3.21,3.21,0,0,1-3.23-3.27c0-1.39,0-2.78,0-4.18a3.22,3.22,0,0,1,3.31-3.33H11.1V31.24L.65,34.47l-.65-2L62.54,13l.64,2-.63.22c-3.3,1-6.59,2.06-9.9,3.07a.67.67,0,0,0-.58.78c0,1.52,0,3.05,0,4.63h4a3.25,3.25,0,0,1,3.52,3.52c0,1.33,0,2.66,0,4a3.22,3.22,0,0,1-3.28,3.29H45.7a3.22,3.22,0,0,1-3.32-3.32c0-1.4,0-2.79,0-4.18a3.22,3.22,0,0,1,3.29-3.28c1.35,0,2.7,0,4,0A1.62,1.62,0,0,0,49.91,23.68ZM44.54,28H57.48c0-.38,0-.71,0-1.05a1,1,0,0,0-1.08-1.05q-5.39,0-10.77,0A1,1,0,0,0,44.54,27C44.52,27.3,44.54,27.64,44.54,28Zm12.94,2.25H44.54c0,.36,0,.67,0,1a1.06,1.06,0,0,0,1.15,1.13c3.54,0,7.09,0,10.63,0a1.06,1.06,0,0,0,1.15-1.13C57.49,30.93,57.48,30.62,57.48,30.26ZM38.06,35.59c0-.41,0-.74,0-1.08a1,1,0,0,0-1.08-1H26.21a1,1,0,0,0-1.08,1.06c0,.35,0,.7,0,1.07Zm-19.41,4.3c0-.35,0-.66,0-1a1.06,1.06,0,0,0-1.13-1.15q-5.35,0-10.71,0a1.07,1.07,0,0,0-1.1,1.11c0,.33,0,.66,0,1Zm19.41-2.08H25.12c0,.35,0,.67,0,1a1.06,1.06,0,0,0,1.14,1.13H36.91a1.06,1.06,0,0,0,1.15-1.12C38.08,38.48,38.06,38.17,38.06,37.81ZM5.71,42.11c0,.38,0,.69,0,1a1.07,1.07,0,0,0,1.16,1.12H17.51a1,1,0,0,0,1.12-.94,7.87,7.87,0,0,0,0-1.19Z"/><path class="cls-1" d="M35.07,13.11c.65-1.93,1.28-3.79,1.9-5.66.36-1.08.72-2.17,1.09-3.25a1.1,1.1,0,0,1,2-.53c2.12,1.87,4.23,3.76,6.41,5.7.14-.25.26-.45.37-.66C48.19,6.12,49.57,3.52,51,.93c.6-1.12,1.27-1.22,2.16-.34,2.1,2.09,4.2,4.18,6.28,6.3a.94.94,0,0,0,1.17.27c.63-.23,1.28-.4,2-.61l.65,2L.65,28,0,26a2.32,2.32,0,0,1,.5-.22c1.12-.13,1.59-.81,1.94-1.85C3.79,20,5.24,16,6.65,12.08c0-.12.09-.25.14-.38a1.09,1.09,0,0,1,2.05-.32c2,2.47,4,4.94,5.94,7.41l.56.68.34-.77Q19.27,10,22.83,1.2c.06-.12.1-.25.16-.37a1.08,1.08,0,0,1,2-.27c1.64,2,3.26,4.06,4.88,6.1s3.23,4,4.84,6.05Zm-1,2.26L24.35,3.2,17.23,20.6ZM8.23,14.06,4.49,24.56l9.72-3Zm37.6-2.34-6.18-5.5L36.9,14.5ZM48,11.05l9.33-2.9L52.27,3Z"/><path class="cls-1" d="M63.51,52,62.23,53.7l-1.48-1.08c0,.31,0,.55,0,.78v9.9c0,1.07-.35,1.43-1.39,1.43h-21c-1,0-1.38-.36-1.38-1.38V52.58l-1.5,1.13L34.17,52l5.43-4.18,8.28-6.36c.84-.65,1.1-.64,1.95,0L63,51.58ZM39.19,54v8.56h5.35c0-1.74,0-3.43,0-5.11,0-.92.39-1.3,1.31-1.31h5.67c1.38,0,1.64.27,1.64,1.65v4.78H58.5V54Zm7.54,4.33v4.24H51V58.29ZM39.2,51.75H46l-3.46-3.46c-.92.71-1.87,1.48-2.88,2.19A1,1,0,0,0,39.2,51.75Zm16-3.44-3.44,3.44h6.9c-.09-.37-.07-.8-.27-1C57.3,49.9,56.18,49.08,55.17,48.31Zm-7.43-4-3.23,2.49L47.74,50Zm5.49,2.52L50,44.32v5.74Z"/><path class="cls-1" d="M10.9,57.18c.7.85,1.31,1.59,1.93,2.32a1.18,1.18,0,0,1,.33,1.34,1.19,1.19,0,0,1-1.28.66c-1.3,0-2.6,0-4,0v3.18H5.74V61.5H1.55a1.11,1.11,0,0,1-1.14-.67,1.13,1.13,0,0,1,.26-1.24c.64-.75,1.27-1.51,2-2.41a4.73,4.73,0,0,1-1.21,0,1.7,1.7,0,0,1-1-.61A1.28,1.28,0,0,1,.62,55.4C2.36,53.23,4.15,51.1,5.94,49a1.06,1.06,0,0,1,1.7,0c1.8,2.13,3.59,4.26,5.33,6.43a1.22,1.22,0,0,1,.15,1.09,1.68,1.68,0,0,1-1,.66A5,5,0,0,1,10.9,57.18ZM3.73,59.3H9.84c-.72-.87-1.42-1.63-2-2.46a1.39,1.39,0,0,1-.19-1.15,1.88,1.88,0,0,1,1-.65,4.45,4.45,0,0,1,1.18,0l-3.09-3.7L3.7,55c.42,0,.68,0,.94,0A1.22,1.22,0,0,1,6,55.63c.29.58,0,1-.37,1.46C5,57.79,4.4,58.5,3.73,59.3Z"/><path class="cls-1" d="M20.83,61.5h-4a1.22,1.22,0,0,1-1.3-.61c-.3-.6,0-1,.37-1.46l1.87-2.25a4.66,4.66,0,0,1-1.2,0,1.61,1.61,0,0,1-1-.62,1.28,1.28,0,0,1,.14-1.15c1.73-2.15,3.5-4.26,5.28-6.37a1.08,1.08,0,0,1,1.79,0c1.77,2.09,3.53,4.19,5.24,6.32a1.29,1.29,0,0,1,.18,1.15,1.82,1.82,0,0,1-1,.65,4.41,4.41,0,0,1-1.18,0L27.54,59c.17.21.42.39.5.63s.32.87.17,1.16a1.46,1.46,0,0,1-1,.64c-1.36.07-2.73,0-4.17,0v3.2H20.83ZM18.8,55c.43,0,.72,0,1,0a1.14,1.14,0,0,1,.93,2c-.62.73-1.23,1.46-1.9,2.27h6.11l-2-2.44a.94.94,0,0,1-.17-1.23,2.29,2.29,0,0,1,1-.59A5,5,0,0,1,25,55l-3.09-3.7Z"/></svg>