<?xml version="1.0" encoding="utf-8"?>
<!-- Generator: Adobe Illustrator 25.2.1, SVG Export Plug-In . SVG Version: 6.00 Build 0)  -->
<svg version="1.1" id="_004" xmlns="http://www.w3.org/2000/svg" xmlns:xlink="http://www.w3.org/1999/xlink" x="0px" y="0px"
	 viewBox="0 0 84 117.4" style="enable-background:new 0 0 84 117.4;" xml:space="preserve">
<style type="text/css">
	.st0{clip-path:url(#SVGID_2_);}
	.st1{fill:#FFFAD1;}
	.st2{opacity:0.3;}
	.st3{fill:#CC7E54;}
	.st4{fill:#FFFFFF;}
	.st5{fill:#EFDCD2;}
	.st6{fill:#2B8980;}
	.st7{fill:#4C4C4C;}
	.st8{fill:#F9E2DC;}
	.st9{fill:#FF9797;}
</style>
<g>
	<g>
		<g>
			<g>
				<defs>
					<path id="SVGID_1_" d="M98.1,61.2c0,31-25.1,56.1-56.1,56.1s-56.1-25.1-56.1-56.1l0,0c0-31,25.2-64.9,56.2-64.9
						S98.1,30.2,98.1,61.2z"/>
				</defs>
				<clipPath id="SVGID_2_">
					<use xlink:href="#SVGID_1_"  style="overflow:visible;"/>
				</clipPath>
				<g class="st0">
					<path class="st1" d="M56.8,80.6c4.4,0,8.8-0.7,13-1.9c7-2,11-9.3,9.1-16.2c-0.1-0.2-0.1-0.4-0.2-0.5
						c-3.5-10.9-0.7-19.7-3.2-30.3c-3.3-14.3-16-25-33.1-25S11.8,16.9,9,31.5C7,42.2,9.7,50.8,6.4,61.5c-2.3,7,1.5,14.4,8.5,16.7
						c0.1,0,0.1,0,0.2,0.1c4,1.4,8.1,2.2,12.2,2.4H56.8z"/>
					<g class="st2">
						<path class="st3" d="M69.8,73.7c-4.2,1.2-8.6,1.9-13,1.9l-29.4,0c-4.2-0.2-8.3-1-12.3-2.3c-4.7-1.4-8.2-5.3-9.1-10.2
							c-1.3,6.6,2.6,13.1,9.1,15.1c4,1.4,8.1,2.2,12.3,2.4h29.4c4.4,0,8.8-0.7,13-1.9c6.6-1.9,10.6-8.4,9.3-15.1
							C78.2,68.5,74.5,72.4,69.8,73.7z"/>
					</g>
					<g class="st2">
						<path class="st4" d="M76.6,46.4L76.6,46.4c0.1-4.8,0.1-9.6-1.1-14.9c-3.3-14.2-15.9-24.9-33-24.9S11.8,16.9,9,31.5
							C8.3,36.2,8,41,8.2,45.8c0-3.1,0.3-6.2,0.8-9.2c2.8-14.7,16.3-24.9,33.4-24.9s29.7,10.7,33,24.9
							C76.2,39.8,76.5,43.1,76.6,46.4z"/>
					</g>
					<path d="M29.2,81.6L29.2,81.6c-4.9-0.2-9.7-1-14.4-2.4c-3.6-1.1-6.6-3.5-8.4-6.9c-1.8-3.4-2.2-7.5-1-11.2
						c1.8-5.8,1.8-11,1.8-16.5c-0.2-4.5,0.1-9,0.9-13.4c2.9-15.2,17-25.8,34.4-25.8c16.8,0,30.4,10.3,34,25.7
						c0.9,4.6,1.3,9.3,1.2,14c0,5.4,0.1,10.5,1.9,16.3c1.2,3.7,0.8,7.8-1,11.2c-1.8,3.4-4.9,5.8-8.6,6.8c-4.9,1.3-10,2-15.1,2
						c-0.6,0-1-0.4-1-1s0.4-1,1-1l0,0c4.9,0,9.8-0.7,14.5-1.9c3.1-0.9,5.8-3,7.3-5.8c1.6-3,1.9-6.4,0.9-9.6c-2-6.1-2-11.6-2-16.9
						c0.1-4.5-0.3-9.1-1.2-13.5C71.2,17.3,58.3,7.6,42.4,7.6c-16.4,0-29.7,9.9-32.4,24.1c-0.7,4.3-1,8.7-0.8,13
						c0,5.4,0.1,10.9-1.9,17.1c-1,3.2-0.7,6.7,0.9,9.6c1.5,2.8,4.1,5,7.2,5.9c4.5,1.3,9.2,2.1,13.8,2.3c0.6,0,1,0.4,1,1
						S29.8,81.6,29.2,81.6L29.2,81.6z"/>
					<path class="st5" d="M62.8,85.3L62.8,85.3c-1.4,3.8-9.4,9.3-20.2,9.3s-18.3-5-20.2-9.2v-0.1c1.5-0.9,3-1.6,4.5-2.2
						c2-0.9,3.3-2.9,3.3-5.1c0-0.8-0.2-1.7-0.6-2.4c8,4.6,17.9,4.6,25.8,0c-1.3,2.8-0.1,6.2,2.8,7.5C59.8,83.7,61.3,84.4,62.8,85.3z
						"/>
					<g class="st2">
						<path class="st3" d="M42.6,85.1c4.8,0,9.2-3.3,12.8-5.8c-0.6-1.3-0.6-2.8,0-4.1H29.7c0.6,1.3,0.7,2.8,0.1,4.1
							C33.4,81.8,37.8,85.1,42.6,85.1z"/>
					</g>
					<path class="st6" d="M65.8,127.6H5.9v-13.4c0-11.9,6.3-22.9,16.6-29c2.5,4.9,10.3,9.4,20.2,9.4c8.4,0,16.8-3.8,19.8-9.3
						c4.3,2.6,8,6,10.8,10.2c3.8,5.5,5.8,12.1,5.8,18.8v13.4H65.8z"/>
					<g class="st2">
						<path class="st7" d="M73.4,95.5c-2.8-4.2-6.5-7.6-10.8-10.2c-3,5.6-11.5,9.3-19.8,9.3c-9.9,0-17.7-4.4-20.2-9.3
							C12.3,91.3,6,102.3,6,114.3v4c0-11.9,6.3-22.9,16.6-29c2.5,4.9,10.3,9.3,20.2,9.3c8.4,0,16.8-3.8,19.8-9.3
							c4.3,2.6,8,6,10.8,10.2c3.8,5.5,5.8,12.1,5.8,18.8v-4C79.2,107.6,77.2,101,73.4,95.5z"/>
					</g>
					<path d="M5.5,128.6c-0.6,0-1-0.4-1-1v-13.4c0-12.2,6.4-23.5,16.9-29.8c1.5-0.9,3-1.7,4.5-2.3c2.2-1.5,3.1-4.3,2.2-6.8
						c-0.2-0.5,0-1.1,0.6-1.3c0.5-0.2,1.1,0,1.3,0.6c1.3,3.5,0,7.4-3.2,9.3c-1.5,0.6-3,1.4-4.3,2.2c-9.8,6-15.9,16.6-15.9,28.1v13.4
						C6.5,128.2,6.1,128.6,5.5,128.6z"/>
					<path d="M79.5,128.6c-0.6,0-1-0.4-1-1v-13.4c0-6.5-1.9-12.8-5.6-18.2c-2.7-4-6.3-7.4-10.5-9.9c-1.4-0.8-2.9-1.6-4.4-2.2
						c-3.3-1.8-4.8-5.8-3.3-9.3c0.2-0.5,0.8-0.8,1.3-0.6c0.5,0.2,0.8,0.8,0.6,1.3c-1.1,2.5-0.1,5.4,2.2,6.7c1.6,0.7,3.1,1.4,4.6,2.3
						c4.4,2.6,8.2,6.2,11.1,10.5c3.9,5.7,5.9,12.4,5.9,19.3v13.4C80.5,128.2,80.1,128.6,79.5,128.6
						C79.5,128.6,79.5,128.6,79.5,128.6z"/>
					<path d="M19.5,128.6c-0.6,0-1-0.4-1-1v-13c0-4.7,0.8-8,2.4-10.3c0.3-0.5,0.9-0.6,1.4-0.3c0.5,0.3,0.6,0.9,0.3,1.4
						c0,0-0.1,0.1-0.1,0.1c-1.4,2-2,4.9-2,9.1v13C20.5,128.2,20.1,128.6,19.5,128.6C19.5,128.6,19.5,128.6,19.5,128.6z"/>
					<path d="M65.5,128.6c-0.6,0-1-0.4-1-1v-13c0-4.3-0.6-7.2-2-9.1c-0.3-0.4-0.3-1.1,0.1-1.4c0.4-0.3,1.1-0.3,1.4,0.1
						c0,0,0.1,0.1,0.1,0.1c1.6,2.3,2.4,5.6,2.4,10.3v13C66.5,128.2,66.1,128.6,65.5,128.6C65.5,128.6,65.5,128.6,65.5,128.6z"/>
					<path class="st8" d="M17.5,36.6c0-28,49.9-28,49.9,0v17c0,8.9-4.8,17.2-12.5,21.7l-5.8,3.4c-4.1,2.4-9.2,2.4-13.3,0L30,75.3
						c-7.7-4.5-12.4-12.7-12.5-21.6V36.6z"/>
					<g class="st2">
						<path class="st3" d="M67.5,48.7c0,8.9-4.8,17.2-12.5,21.7l-5.8,3.4c-4.1,2.4-9.2,2.4-13.3,0L30,70.4
							c-7.7-4.5-12.4-12.7-12.4-21.7v4.9c0,8.9,4.8,17.1,12.4,21.6l5.8,3.4c4.1,2.4,9.2,2.4,13.3,0l5.8-3.4
							c7.7-4.5,12.5-12.8,12.5-21.7V48.7z"/>
					</g>
					<path d="M42.4,81.5c-2.5,0-5-0.7-7.2-2l-5.8-3.4c-8-4.7-12.9-13.2-13-22.4V36.6l0,0c-0.1-6.5,2.9-12.7,8.2-16.5
						c5.2-3.7,11.4-5.6,17.8-5.5c6.3-0.1,12.6,1.8,17.8,5.5c5.3,3.8,8.3,10,8.2,16.5v17c-0.1,9.3-5,17.8-13,22.5l-5.8,3.5
						C47.4,80.9,45,81.5,42.4,81.5z M18.5,36.6v17.1c0.1,8.6,4.6,16.4,12,20.8l5.8,3.4c3.8,2.2,8.5,2.2,12.3,0l5.8-3.4
						c7.4-4.3,11.9-12.2,12-20.8v-17c0.1-5.9-2.6-11.5-7.4-14.9c-4.8-3.4-10.6-5.2-16.6-5C30.9,16.6,18.5,22.9,18.5,36.6L18.5,36.6z
						"/>
					<path d="M70.5,59.6c-0.6,0-1-0.4-1-1v-2c0-0.6,0.4-1,1-1s1,0.4,1,1v2C71.5,59.2,71.1,59.6,70.5,59.6z"/>
					<path d="M14.5,59.6c-0.6,0-1-0.4-1-1v-2c0-0.6,0.4-1,1-1s1,0.4,1,1v2C15.5,59.2,15.1,59.6,14.5,59.6z"/>
					<path class="st8" d="M17.5,54.5v-9c0-3-2.2-4-3.6-3c-2.2,1.5,0.6,8,0.6,8C12.9,51.5,14.7,55.2,17.5,54.5z"/>
					<path d="M16.8,55.6c-1.6-0.1-2.9-1-3.5-2.5c-0.5-0.9-0.4-2,0.1-2.9c-0.8-2-2.4-6.9,0-8.6c0.9-0.6,2.1-0.7,3.1-0.2
						c1.4,0.8,2.1,2.4,2,4v9c0,0.5-0.3,0.9-0.8,1C17.4,55.6,17.1,55.6,16.8,55.6z M17.5,54.5L17.5,54.5z M15,43.1
						c-0.2,0-0.4,0.1-0.6,0.2c-0.9,0.6-0.2,4.1,1,6.8c0.2,0.5,0,1-0.4,1.2c-0.2,0.1-0.2,0.6,0,1c0.3,0.6,0.8,1.1,1.4,1.2v-8.1
						c0.1-0.9-0.3-1.7-1-2.2C15.4,43.2,15.2,43.2,15,43.1z"/>
					<path d="M14.5,51.5c-0.6,0-1-0.5-1-1c0-0.3,0.2-0.7,0.5-0.8l0.4-0.2c0.4-0.3,1.1-0.2,1.4,0.2c0.3,0.4,0.2,1.1-0.2,1.4
						c0,0-0.1,0-0.1,0.1l-0.4,0.2C14.9,51.4,14.7,51.5,14.5,51.5z"/>
					<path class="st8" d="M67.5,54.5v-9c0-3,2.2-4,3.6-3c2.2,1.5-0.6,8-0.6,8C72.1,51.5,70.3,55.2,67.5,54.5z"/>
					<path d="M68.3,55.6c-0.3,0-0.7,0-1-0.1c-0.5-0.1-0.8-0.5-0.8-1v-9c-0.1-1.6,0.6-3.2,2-4c1-0.5,2.2-0.5,3.1,0.2
						c2.4,1.7,0.8,6.6,0,8.6c0.5,0.9,0.6,2,0.1,2.9C71.2,54.6,69.8,55.5,68.3,55.6z M70,43.1c-0.2,0-0.3,0-0.5,0.1
						c-0.7,0.5-1.1,1.4-1,2.2v8.1c0.7-0.2,1.2-0.6,1.5-1.2c0.2-0.4,0.2-0.9,0-1c-0.4-0.3-0.6-0.8-0.3-1.3c1.2-2.7,1.8-6.2,0.9-6.8
						C70.4,43.2,70.2,43.2,70,43.1L70,43.1z"/>
					<path d="M70.5,51.5c-0.2,0-0.4-0.1-0.5-0.2l-0.4-0.2c-0.5-0.3-0.6-0.9-0.4-1.4c0.3-0.5,0.9-0.6,1.4-0.4c0,0,0.1,0,0.1,0.1
						l0.4,0.2c0.5,0.3,0.6,0.9,0.3,1.4C71.2,51.3,70.8,51.5,70.5,51.5z"/>
					<g class="st2">
						<circle class="st9" cx="28" cy="61.1" r="4.5"/>
					</g>
					<g class="st2">
						<circle class="st9" cx="57" cy="61.1" r="4.5"/>
					</g>
					<path d="M42.5,58.1c-0.9-0.1-1.8-0.4-2.5-0.9c-0.5-0.3-0.6-0.9-0.3-1.4s0.9-0.6,1.4-0.3l0,0c0.4,0.3,0.9,0.5,1.4,0.6
						c0.5-0.1,1-0.3,1.4-0.6c0.5-0.3,1.1-0.2,1.4,0.3s0.2,1.1-0.3,1.4C44.3,57.7,43.4,58,42.5,58.1z"/>
					<path d="M24.8,44.6c-0.6,0-1-0.4-1-1c0-0.2,0.1-0.5,0.2-0.7c3.5-4,7-2.3,9.3-1.1c0.7,0.4,1.4,0.7,2.1,0.8c0.6,0,1,0.4,1,1
						s-0.4,1-1,1c-1.1-0.1-2.1-0.5-3-1c-2.3-1.1-4.5-2.2-6.9,0.7C25.4,44.5,25.1,44.6,24.8,44.6z"/>
					<path d="M49.5,44.6c-0.6,0-1-0.4-1-1c0-0.4,0.2-0.7,0.5-0.9c6.8-4,9.5-2.2,11.8,0.2c0.4,0.4,0.4,1,0,1.4s-1,0.4-1.4,0
						c-1.8-1.8-3.4-3.4-9.4,0.2C49.9,44.6,49.7,44.6,49.5,44.6z"/>
					<path d="M59.5,48.6h-9c-0.6,0-1-0.4-1-1s0.4-1,1-1h9c0.6,0,1,0.4,1,1S60.1,48.6,59.5,48.6z"/>
					<path d="M34.5,48.6h-9c-0.6,0-1-0.4-1-1s0.4-1,1-1h9c0.6,0,1,0.4,1,1S35.1,48.6,34.5,48.6z"/>
					<circle cx="31" cy="49.6" r="1.5"/>
					<path d="M31,52.1c-1.4,0-2.5-1.1-2.5-2.5s1.1-2.5,2.5-2.5s2.5,1.1,2.5,2.5S32.4,52.1,31,52.1z M31,49.1c-0.3,0-0.5,0.2-0.5,0.5
						s0.2,0.5,0.5,0.5s0.5-0.2,0.5-0.5S31.3,49.1,31,49.1z"/>
					<circle cx="54" cy="49.6" r="1.5"/>
					<path d="M54,52.1c-1.4,0-2.5-1.1-2.5-2.5s1.1-2.5,2.5-2.5s2.5,1.1,2.5,2.5S55.4,52.1,54,52.1z M54,49.1c-0.3,0-0.5,0.2-0.5,0.5
						s0.2,0.5,0.5,0.5s0.5-0.2,0.5-0.5S54.3,49.1,54,49.1z"/>
					<path d="M42.5,67.4c-3.2,0-6.1-1.3-7.3-3.2c-0.3-0.5-0.2-1.1,0.3-1.4c0.5-0.3,1.1-0.2,1.4,0.3c0.9,1.4,3.2,2.3,5.7,2.3
						c2.5,0,4.8-0.9,5.7-2.3c0.3-0.5,0.9-0.6,1.4-0.3c0.5,0.3,0.6,0.9,0.3,1.4C48.6,66.1,45.7,67.4,42.5,67.4z"/>
					<g class="st2">
						<path class="st3" d="M17.5,36.6c0,0,21.9,9,41-8c2.9,10.4,9,8.5,9,8.5v-3.7c0,0-6.3,2.6-9.2-7.8c-18.8,16-40.7,7-40.7,7
							L17.5,36.6z"/>
					</g>
					<path class="st1" d="M17.6,32.5c0,0,21.6,9.6,40.7-7.5c0,9.8,9.2,8.6,9.2,8.6l2.3-0.2C67.3,9,20.2,8.3,15.6,31.6L17.6,32.5z"/>
					<path d="M32.1,36.1c-5.1,0-10.2-0.9-15-2.7l-2-0.9c-0.5-0.2-0.7-0.8-0.5-1.3c0.2-0.5,0.8-0.7,1.3-0.5l2,0.9
						c0.2,0.1,21.3,9.1,39.7-7.3c0.4-0.4,1-0.3,1.4,0.1c0.2,0.2,0.3,0.4,0.3,0.7c0,2.7,0.7,4.7,2.2,6c2.3,2,5.9,1.6,5.9,1.6l1.3-0.1
						c0.5,0,1,0.4,1.1,0.9c0,0.5-0.4,1-0.9,1.1l-1.2,0.1c-0.1,0-4.4,0.5-7.4-2.1c-1.5-1.4-2.5-3.3-2.7-5.4
						C50.3,33,41.4,36.2,32.1,36.1z"/>
					<path d="M67.4,37.6c-0.6,0-1-0.4-1-1c0-0.9-0.1-1.9-0.2-2.8c-0.1-0.6,0.3-1.1,0.9-1.1c0.6-0.1,1.1,0.3,1.1,0.9
						c0.1,1,0.2,2.1,0.2,3.1C68.4,37.2,68,37.6,67.4,37.6C67.4,37.6,67.4,37.6,67.4,37.6z"/>
					<path d="M17.5,37.6c-0.6,0-1-0.4-1-1c0-1.3,0.1-2.7,0.4-4c0.1-0.6,0.6-0.9,1.2-0.8s0.9,0.6,0.8,1.2l0,0
						c-0.2,1.2-0.3,2.4-0.4,3.6C18.5,37.2,18.1,37.6,17.5,37.6z"/>
				</g>
			</g>
		</g>
	</g>
</g>
</svg>
