<svg id="Warstwa_1" data-name="Warstwa 1" xmlns="http://www.w3.org/2000/svg" width="21.02mm" height="25.06mm" viewBox="0 0 59.58 71.02"><defs><style>.cls-1{fill:#00818e;}</style></defs><path class="cls-1" d="M40.1,5.45A14.69,14.69,0,0,1,43,5.32a5,5,0,0,1,4.23,4q2.23,8.57,4.5,17.11,3.78,14.39,7.58,28.76c.9,3.4-.56,5.92-4,6.82l-33,8.72c-3.37.89-5.89-.56-6.78-3.91Q9.35,43.48,3.19,20.09A5,5,0,0,1,5.9,14Q19.82,7.27,33.76.57c2.73-1.31,4.83-.33,5.71,2.56C39.71,3.92,39.9,4.72,40.1,5.45ZM5.48,19.51c0,.13.08.47.16.8Q11.72,43.36,17.8,66.42a2.75,2.75,0,0,0,3.7,2.16L55,59.75A2.77,2.77,0,0,0,57.14,56Q51.08,33,45,10a2.78,2.78,0,0,0-3.81-2.21L17.31,14,7.8,16.54A2.8,2.8,0,0,0,5.48,19.51Zm10-7.54.05.13,22.3-5.89c-.16-.66-.3-1.24-.45-1.82-.61-2.27-1.11-2.5-3.25-1.47L16.25,11.58C16,11.7,15.77,11.84,15.53,12Z"/><path class="cls-1" d="M1.13,25.38c.83,0,1.07.62,1.24,1.29L5,36.84c.36,1.43.74,2.86,1.1,4.3C6.3,42,6,42.68,5.3,42.85s-1.23-.26-1.45-1.11Q1.95,34.38.06,27C-.18,26.09.31,25.38,1.13,25.38Z"/><path class="cls-1" d="M57.76,31.33c-.26.26-.53.8-.89.86a2.19,2.19,0,0,1-1.31-.47c-.17-.1-.2-.45-.26-.7q-1.11-4.12-2.19-8.25c0-.09,0-.17-.06-.25-.19-.85.09-1.45.78-1.64s1.24.23,1.46,1.08q.83,3.09,1.63,6.2C57.18,29.15,57.44,30.14,57.76,31.33Z"/><path class="cls-1" d="M8.29,52.22c.19.19.71.48.82.88.84,3,1.6,6,2.37,9.08a1.07,1.07,0,0,1-.81,1.45,1.09,1.09,0,0,1-1.41-.89c-.79-3-1.58-6.05-2.34-9.09C6.74,52.92,7.29,52.25,8.29,52.22Z"/><path class="cls-1" d="M6.58,45.3a3.07,3.07,0,0,1,.77.92A15.73,15.73,0,0,1,8,48.6,1.08,1.08,0,0,1,7.18,50a1,1,0,0,1-1.35-.71,19.91,19.91,0,0,1-.68-2.63C5,45.87,5.56,45.27,6.58,45.3Z"/><path class="cls-1" d="M58,34.5a3.32,3.32,0,0,1,.78.91,16.11,16.11,0,0,1,.62,2.29,1.12,1.12,0,0,1-.78,1.48c-.66.21-1.22-.16-1.45-1s-.44-1.52-.61-2.3S57,34.48,58,34.5Z"/><path class="cls-1" d="M29.72,44.54A12.63,12.63,0,1,1,42.34,31.9,12.67,12.67,0,0,1,29.72,44.54Zm.31-7.2-1.11-4L25.1,34.38c.53,1.18,1,2.25,1.52,3.29a.88.88,0,0,0,.76.38C28.24,37.88,29.08,37.6,30,37.34ZM27.2,27c-.89.24-1.69.43-2.48.68-.19.06-.48.31-.47.46.06,1.29.18,2.58.29,4l3.78-1Zm2.24-.61,1.11,4.07,3.54-1c-.61-1.24-1.14-2.36-1.72-3.46a.69.69,0,0,0-.59-.27C31,26,30.26,26.18,29.44,26.41Zm2.82,10.32c.81-.22,1.53-.39,2.23-.61.18-.06.47-.26.46-.38-.05-1.31-.15-2.62-.24-4l-3.55,1Zm7-8.63A9.23,9.23,0,0,0,37,24.63a.58.58,0,0,0-.43-.17c-.67.16-1.33.37-2,.56l1.75,3.88Zm-2.36,3,.48,4.17c.64-.17,1.25-.31,1.84-.49.17-.06.42-.19.45-.33a8.34,8.34,0,0,0,.18-4.16ZM21.85,28.49c-.57.15-1.1.25-1.6.43-.2.07-.47.3-.49.49-.16,1.33-.26,2.66-.4,4.13l3-.82ZM20,35.79c.84,1.17,1.57,2.23,2.35,3.26a.81.81,0,0,0,.66.21,13.32,13.32,0,0,0,1.55-.43L22.89,35Zm10.66,3.79-2.28.64C30,42.47,30.16,42.44,31.28,42Zm-4.7-17.19c-1.32.45-1.49.79-1.46,3l2.12-.57ZM32.87,39l.72,2.57c1.15-.84.87-2,1.23-3.11Zm-4-14.82,2-.55c-.94-.69-1.22-1.94-2.66-1.94Zm9.48,13.48c-1.18,0-1.2.07-1.14,1.43ZM34.18,22.58,32.51,22C32.9,22.84,33.34,23.17,34.18,22.58Z"/><path class="cls-1" d="M33.87,58a2.38,2.38,0,0,1-2.16-.4c-.81-.6-1.14-1.75-1.58-3.44s-.69-2.87-.26-3.78A2.4,2.4,0,0,1,31.57,49a2.47,2.47,0,0,1,1.9.22A3,3,0,0,1,34.73,51L33,51.43c-.11-.37-.33-1-1-.85a.61.61,0,0,0-.51.5,8.23,8.23,0,0,0,.42,2.63,8.36,8.36,0,0,0,.89,2.51.63.63,0,0,0,.68.2c.59-.15.6-.73.47-1.22l-.23-.91-.73.18-.36-1.42,2.48-.63.57,2.24A2.46,2.46,0,0,1,33.87,58Z"/><path class="cls-1" d="M40.87,56.11,38.92,53l-.58.14.87,3.43L37.46,57l-2.25-8.81,2.51-.64c1.92-.49,2.7.38,3.13,2.06a2.49,2.49,0,0,1-.41,2.57l2.26,3.48Zm-2.76-7-.74.19.56,2.21.75-.19c.66-.17.55-.78.42-1.29S38.78,49,38.11,49.12Z"/></svg>