<svg id="Warstwa_1" data-name="Warstwa 1" xmlns="http://www.w3.org/2000/svg" width="24.18mm" height="21.64mm" viewBox="0 0 68.54 61.33"><defs><style>.cls-1{fill:#00818e;}</style></defs><path class="cls-1" d="M17.82,24.64c-.77-.91-1.52-1.73-2.21-2.6s-1.16-1.55-1.69-2.35a1.06,1.06,0,0,1,.2-1.57,1.1,1.1,0,0,1,1.6.38l3.57,4.69a22.91,22.91,0,0,0,5.56-9.68H8.51c-.66,0-1.2-.14-1.37-.86s.36-1.31,1.28-1.32c2,0,4,0,5.95,0h4.08c0-1,0-2,0-2.95S18.86,7,19.54,7s1.1.49,1.1,1.38,0,1.92,0,3h10c.64,0,1.2.14,1.36.87a1,1,0,0,1-1.11,1.31c-1.07,0-2.14,0-3.2,0a.82.82,0,0,0-.62.41,24.9,24.9,0,0,1-5.84,10.39c0,.05-.06.13-.13.25a30,30,0,0,0,8.28,5.07V22a6.25,6.25,0,0,1,6.57-6.6c5.85,0,11.7,0,17.55,0,2.83,0,5.66,0,8.48,0A6.23,6.23,0,0,1,68.54,22q0,13,0,26A6.19,6.19,0,0,1,62,54.58q-7.1,0-14.2,0a1.94,1.94,0,0,0-1.4.52C44.3,57,42.14,58.85,40,60.74c-.47.41-.94.79-1.59.47s-.62-.89-.62-1.48c0-1.68,0-3.36,0-5.15H35.9A6.23,6.23,0,0,1,29.33,48c0-5.08,0-10.16,0-15.25a.9.9,0,0,0-.68-1A32.18,32.18,0,0,1,20,26.55c-.19-.16-.39-.3-.59-.45-.83.64-1.61,1.29-2.43,1.88a32.1,32.1,0,0,1-7.1,3.85c-.57.23-1.12.31-1.55-.23s-.17-1.34.66-1.77c2.18-1.11,4.35-2.24,6.48-3.44A21,21,0,0,0,17.82,24.64ZM40,57.78c.3-.23.47-.35.63-.49,1.61-1.4,3.22-2.79,4.8-4.22a2.48,2.48,0,0,1,1.81-.67q7.47,0,14.94,0a3.89,3.89,0,0,0,4.18-4q0-13.38,0-26.77a3.89,3.89,0,0,0-4-4q-13.41,0-26.84,0a3.94,3.94,0,0,0-4,4.09q0,13.35,0,26.69a3.94,3.94,0,0,0,4,4.06c1,0,2.08,0,3.12,0S40,52.8,40,53.81Z"/><path class="cls-1" d="M2.19,19.62V32.71A4,4,0,0,0,6.55,37H25.44a5,5,0,0,1,.67,0,1,1,0,0,1,1,1,1,1,0,0,1-.94,1.14,3.68,3.68,0,0,1-.67,0H6.61A6.25,6.25,0,0,1,0,32.59v-26A6.25,6.25,0,0,1,6.61,0h26a6.25,6.25,0,0,1,6.59,6.58v5.21c0,.89-.4,1.4-1.07,1.41S37,12.7,37,11.76c0-1.83,0-3.67,0-5.5A3.93,3.93,0,0,0,33,2.2q-13.38,0-26.77,0a3.89,3.89,0,0,0-4,4C2.18,10.69,2.19,15.16,2.19,19.62Z"/><path class="cls-1" d="M58.16,45.05c-.27.26-.53.69-.9.84A1,1,0,0,1,56,45.23c-.52-1.23-1-2.47-1.51-3.71-.27-.64-.38-1.53-.86-1.84s-1.38-.14-2.1-.14c-2.18,0-4.36,0-6.54,0a.88.88,0,0,0-1,.64C43.35,41.78,42.68,43.38,42,45c-.34.84-.89,1.15-1.53.91s-.83-.87-.49-1.7q3.9-9.63,7.81-19.25c.22-.55.57-1.05,1.17-.92A1.67,1.67,0,0,1,50,24.9C52.66,31.26,55.23,37.64,57.8,44,57.91,44.28,58,44.57,58.16,45.05Zm-13-7.74h7.59L48.93,28Z"/></svg>