<?xml version="1.0" encoding="utf-8"?>
<!-- Generator: Adobe Illustrator 25.2.1, SVG Export Plug-In . SVG Version: 6.00 Build 0)  -->
<svg version="1.1" id="_004" xmlns="http://www.w3.org/2000/svg" xmlns:xlink="http://www.w3.org/1999/xlink" x="0px" y="0px"
	 viewBox="0 0 84 117.4" style="enable-background:new 0 0 84 117.4;" xml:space="preserve">
<style type="text/css">
	.st0{clip-path:url(#SVGID_2_);}
	.st1{clip-path:url(#SVGID_4_);}
	.st2{fill:#5C698E;}
	.st3{opacity:0.3;}
	.st4{fill:#1C418A;}
	.st5{fill:#7484A8;}
	.st6{fill:#442D2A;}
	.st7{fill:#352321;}
	.st8{fill:#EFF7FF;}
	.st9{opacity:0.5;}
	.st10{fill:#FFFFFF;}
	.st11{fill:#6C86A6;}
</style>
<g>
	<g>
		<g>
			<g>
				<g>
					<defs>
						<path id="SVGID_1_" d="M98.1,61.2c0,31-25.1,56.1-56.1,56.1s-56.1-25.1-56.1-56.1l0,0c0-31,25.2-64.9,56.2-64.9
							S98.1,30.2,98.1,61.2z"/>
					</defs>
					<clipPath id="SVGID_2_">
						<use xlink:href="#SVGID_1_"  style="overflow:visible;"/>
					</clipPath>
					<g class="st0">
						<g>
							<g>
								<g>
									<g>
										<defs>
											<path id="SVGID_3_" d="M98.1,61.2c0,31-25.1,56.1-56.1,56.1s-56.1-25.1-56.1-56.1l0,0c0-31,25.2-64.9,56.2-64.9
												S98.1,30.1,98.1,61.2z"/>
										</defs>
										<clipPath id="SVGID_4_">
											<use xlink:href="#SVGID_3_"  style="overflow:visible;"/>
										</clipPath>
										<g class="st1">
											<path class="st2" d="M66.3,82c0,0-7-3-6.8-2.8c-2.3,5-11.2,7.5-17.5,9.3c-6.2-1.8-15.8-4.3-17.5-9.2L18,82.1
												C7.7,86.4,1,96.4,1,107.6v15.1h82v-15.3C83,96.3,76.4,86.3,66.3,82z"/>
											<g class="st3">
												<path class="st4" d="M42,88.4c-6.2-1.8-15.8-4.3-17.5-9.2l-3.8,1.7c2.3,5.7,5.7,10.9,9.9,15.4l9.3,9.8
													c1.1,1.2,2.9,1.2,4.1,0.1l0.1-0.1l9.3-9.8c4.3-4.5,7.7-9.8,10-15.5c-1.9-0.8-4-1.7-3.9-1.6C57.2,84.2,48.3,86.7,42,88.4
													z"/>
											</g>
											<path d="M56.5,71c-1.6,3.7,0.8,6.7,3,8.2c-2.3,5-10,9.3-17.5,9.3s-15.9-4.3-17.5-9.3c2.2-1.3,4.6-4.4,2.9-8.2H56.5z"/>
											<g class="st3">
												<path d="M56.5,71H27.4c0.7,1.6,0.7,3.3,0,4.9l1.8,1.8c2.5,2.6,6,4,9.6,4h6.3c3.6,0,7.1-1.4,9.6-4l1.8-1.8
													C55.8,74.3,55.8,72.5,56.5,71z"/>
											</g>
											<g>
												<path class="st5" d="M66.3,82c0,0-7-3-6.8-2.8c-2.3,5-10,9.3-17.5,9.3s-15.8-4.3-17.5-9.2L18,82.1
													C7.7,86.4,1,96.4,1,107.6v5c0-10.9,8.5-25.9,22.2-28.4c1.7,4.9,11.2,9.3,18.8,9.3s16.4-4.3,18.8-9.3
													C74.5,87.9,83,101.3,83,112.4v-5C83,96.3,76.4,86.3,66.3,82z"/>
											</g>
											<path d="M42,89.4c-8.1,0-16.7-4.7-18.5-10c-0.1-0.4,0.1-0.9,0.5-1.1c1.7-1,4-3.6,2.5-6.9c-0.2-0.5,0.1-1.1,0.6-1.3
												c0.5-0.2,1,0,1.2,0.5c1.7,3.7-0.1,7.1-2.6,9c2,4.2,9.4,7.9,16.3,7.9c6.6,0,13.6-3.5,16.2-8c-2.4-1.9-4.2-5.2-2.6-8.9
												c0.2-0.5,0.8-0.7,1.3-0.4c0.5,0.2,0.7,0.8,0.5,1.2c-1.7,3.8,1.9,6.5,2.6,7c0.4,0.3,0.6,0.8,0.4,1.2
												C57.9,85.1,49.8,89.4,42,89.4z"/>
											<path d="M67,123.7c-0.6,0-1-0.4-1-1v-18.5c0-0.6,0.4-1,1-1s1,0.4,1,1v18.5C68,123.2,67.6,123.7,67,123.7z"/>
											<path d="M17,123.7c-0.6,0-1-0.4-1-1v-18.5c0-0.6,0.4-1,1-1s1,0.4,1,1v18.5C18,123.2,17.6,123.7,17,123.7z"/>
											<path d="M83,123.7c-0.6,0-1-0.4-1-1v-15.3c0-10.6-6.3-20.3-16.1-24.5l-6.8-3c-0.5-0.2-0.7-0.8-0.5-1.3s0.8-0.7,1.3-0.5
												l0,0l6.8,3C77.2,85.6,84,95.9,84,107.4v15.3C84,123.2,83.6,123.7,83,123.7z"/>
											<path d="M1,123.7c-0.6,0-1-0.4-1-1v-15.1c0-11.6,6.9-22,17.6-26.4l6.5-2.8c0.5-0.2,1.1,0.1,1.3,0.6c0.2,0.5,0,1-0.5,1.2
												L18.4,83C8.5,87.1,2,96.8,2,107.6v15.1C2,123.2,1.6,123.7,1,123.7z"/>
											<path class="st6" d="M17,50.7v-9c0-3-2.2-4-3.6-3c-2.2,1.5,0.6,8,0.6,8C12.4,47.7,14.2,51.4,17,50.7z"/>
											<path d="M16.3,51.8c-1.6-0.1-2.9-1-3.5-2.5c-0.5-0.9-0.4-2,0.1-2.9c-0.8-2-2.4-6.9,0-8.6c0.9-0.7,2.2-0.7,3.2-0.2
												c1.4,0.8,2.1,2.4,2,4v9c0,0.5-0.3,0.9-0.8,1C16.9,51.7,16.6,51.8,16.3,51.8z M17,50.7L17,50.7z M14.5,39.3
												c-0.2,0-0.4,0.1-0.6,0.2c-0.9,0.6-0.2,4.1,1,6.8c0.2,0.5,0,1-0.4,1.2c-0.2,0.1-0.2,0.6,0,1c0.3,0.6,0.8,1.1,1.5,1.2v-8.1
												c0.1-0.9-0.3-1.7-1-2.2C14.9,39.4,14.7,39.3,14.5,39.3z"/>
											<path d="M14,47.7c-0.6,0-1-0.5-1-1c0-0.3,0.2-0.7,0.5-0.8l0.4-0.2c0.4-0.3,1.1-0.2,1.4,0.2s0.2,1.1-0.2,1.4
												c0,0-0.1,0-0.1,0.1l-0.4,0.2C14.4,47.6,14.2,47.7,14,47.7z"/>
											<path class="st6" d="M67,50.7v-9c0-3,2.2-4,3.6-3c2.2,1.5-0.6,8-0.6,8C71.6,47.7,69.8,51.4,67,50.7z"/>
											<path class="st6" d="M45.1,76.7h-6.2c-3.6,0-7.1-1.4-9.6-4L21,64.4c-2.6-2.5-4-6-4-9.6V30.3c0-24.8,50-24.8,50,0v24.5
												c0,3.6-1.4,7.1-4,9.6l-8.3,8.3C52.2,75.2,48.7,76.7,45.1,76.7z"/>
											<g class="st3">
												<path d="M54.7,67.7c-2.5,2.6-6,4-9.6,4h-6.2c-3.6,0-7.1-1.4-9.6-4L21,59.4c-2.6-2.5-4-6-4-9.6v5c0,3.6,1.4,7.1,4,9.6
													l8.3,8.3c2.5,2.6,6,4,9.6,4h6.3c3.6,0,7.1-1.4,9.6-4l8.3-8.3c2.6-2.5,4-6,4-9.6v-5c0,3.6-1.4,7.1-4,9.6L54.7,67.7z"/>
											</g>
											<path d="M67.7,51.8c-0.3,0-0.7,0-1-0.1c-0.4-0.1-0.7-0.5-0.7-1v-9c-0.1-1.6,0.6-3.2,2-4c1-0.5,2.2-0.5,3.1,0.2
												c2.4,1.7,0.8,6.6,0,8.6c0.5,0.9,0.6,2,0.1,2.9C70.7,50.7,69.3,51.7,67.7,51.8z M69.5,39.3c-0.2,0-0.3,0-0.5,0.1
												c-0.7,0.5-1.1,1.4-1,2.2v8.1c0.7-0.2,1.2-0.6,1.5-1.2c0.2-0.4,0.2-0.9,0-1c-0.4-0.3-0.6-0.8-0.4-1.2
												c1.2-2.7,1.8-6.2,0.9-6.8C69.9,39.4,69.7,39.3,69.5,39.3L69.5,39.3z"/>
											<path d="M70,47.7c-0.2,0-0.4-0.1-0.5-0.2l-0.4-0.2c-0.5-0.3-0.6-0.9-0.4-1.4c0.3-0.5,0.9-0.6,1.4-0.4c0,0,0.1,0,0.1,0.1
												l0.4,0.2c0.5,0.3,0.6,0.9,0.3,1.4C70.7,47.5,70.3,47.7,70,47.7z"/>
											<path d="M45.1,77.7h-6.2c-3.9,0-7.6-1.5-10.3-4.3l-8.3-8.3c-2.7-2.7-4.3-6.4-4.3-10.3V30.3c0-6.1,2.9-11.2,8.3-14.8
												c4.7-3.1,11-4.8,17.7-4.8s13,1.7,17.7,4.8c5.4,3.6,8.3,8.7,8.3,14.8v24.5c0,3.9-1.5,7.6-4.3,10.3l-8.3,8.3
												C52.7,76.1,49,77.7,45.1,77.7z M42,12.7c-11.6,0-24,5.5-24,17.6v24.5c0,3.3,1.3,6.5,3.7,8.9L30,72
												c2.3,2.4,5.5,3.7,8.9,3.7h6.3c3.3,0,6.5-1.3,8.9-3.7l8.3-8.3c2.4-2.3,3.7-5.5,3.7-8.9V30.3c0-5.4-2.8-10.3-7.4-13.1
												C54.3,14.3,48.4,12.7,42,12.7z"/>
											<g>
												<path class="st7" d="M67,34.7v-4.9C67.1,21.7,60.6,15,52.4,15h-0.1H32c-8.2,0-14.8,6.6-14.8,14.8l0,0v4.4
													c2.5-3,5-5.5,6.2-9.2c13.8,8.7,31.3,4.1,39.6,5C66.4,30.4,66.9,32.6,67,34.7z"/>
											</g>
											<path class="st8" d="M58.4,7.4c8.9,4.1,14.8,8.8,11.5,25c-0.5,2.2-2.9,1.2-2.9,1.2s0.7-7.4-4-7.9
												c-8.3-0.9-28.3,4.1-42.1-7.1c0,5-1.2,7.5-3.8,11.2c0,0-3.5,0-3.8-2.5c-1.2-11.2,2.5-16.2,7.5-15
												C33.4-0.1,54,5.4,58.4,7.4z"/>
											<g class="st9">
												<path class="st10" d="M20.9,17.2c12.5-12.5,33.1-7.1,37.5-5C65,15.3,70,18.7,70.7,26.9C71.7,15,66.2,11,58.4,7.4
													c-4.4-2.1-25-7.5-37.5,5c-4.8-1.2-8.4,3.3-7.6,13.4C13.8,19.1,17,16.2,20.9,17.2z"/>
											</g>
											<path d="M68.2,34.9c-0.5,0-1.1-0.1-1.6-0.3c-0.4-0.2-0.6-0.6-0.6-1c0-0.1,0.5-6.4-3.1-6.8c-2.7-0.2-5.3-0.1-8,0.1
												c-9.6,0.5-22.7,1.2-33.1-6.3c-0.3,3.9-1.5,6.3-3.8,9.8c-0.2,0.3-0.5,0.5-0.8,0.5c-1.5,0-4.4-0.7-4.7-3.4
												c-0.8-7.1,0.3-12.4,3.2-14.8c1.4-1.2,3.2-1.7,5-1.4c13-12.5,33.7-6.9,38.2-4.8c8.7,4,15.6,8.8,12.1,26.1
												c-0.1,0.8-0.6,1.6-1.4,2C69.1,34.8,68.6,34.9,68.2,34.9z M68,32.9c0.2,0,0.4,0,0.6-0.1c0.1,0,0.2-0.1,0.3-0.6
												c3.2-15.9-2.8-20.1-11-23.9l0,0C53,6.4,47.8,5.4,42.6,5.4h-0.3c-6,0-14.4,1.4-20.8,7.7c-0.2,0.2-0.6,0.3-1,0.3
												c-1.3-0.4-2.7-0.1-3.8,0.8c-2.3,2-3.2,6.8-2.5,13.1c0.1,1.1,1.5,1.5,2.2,1.6c2.3-3.5,3.2-5.8,3.2-10.2c0-0.6,0.5-1,1-1
												c0.2,0,0.4,0.1,0.6,0.2c10,8.2,23.5,7.5,33.2,7c2.8-0.2,5.5-0.2,8.3-0.1C67.6,25.3,68.1,30.8,68,32.9L68,32.9z"/>
											<path d="M24.7,14.7c-0.1,0-0.3,0-0.4-0.1c-1.1-0.6-2.2-0.9-3.4-1.2c-0.6-0.1-1-0.5-0.9-1.1s0.5-1,1.1-0.9
												c1.4,0.2,2.8,0.7,4.1,1.3c0.5,0.2,0.7,0.8,0.5,1.3C25.4,14.4,25,14.7,24.7,14.7z"/>
											<path d="M57.9,29.7c-9-0.1-15.6-3.2-22-4.3"/>
											<path d="M57.9,30.7L57.9,30.7c-5.2-0.2-10.4-1.1-15.4-2.7c-2.2-0.7-4.5-1.2-6.7-1.6c-0.6-0.1-0.9-0.6-0.8-1.2
												c0.1-0.6,0.6-0.9,1.2-0.8c2.3,0.4,4.6,1,6.9,1.7c4.8,1.6,9.8,2.4,14.9,2.7c0.6,0,1,0.4,1,1S58.5,30.7,57.9,30.7
												L57.9,30.7z"/>
											<path d="M17,36.7c-0.6,0-1-0.4-1-1v-5.9c0-0.6,0.4-1,1-1s1,0.4,1,1v5.9C18,36.2,17.6,36.7,17,36.7z"/>
											<circle cx="30.5" cy="44.7" r="1.5"/>
											<path d="M30.5,47.2c-1.4,0-2.5-1.1-2.5-2.5s1.1-2.5,2.5-2.5s2.5,1.1,2.5,2.5S31.9,47.2,30.5,47.2z M30.5,44.2
												c-0.3,0-0.5,0.2-0.5,0.5s0.2,0.5,0.5,0.5S31,45,31,44.7S30.8,44.2,30.5,44.2z"/>
											<path d="M34,43.7h-9c-0.6,0-1-0.4-1-1s0.4-1,1-1h9c0.6,0,1,0.4,1,1S34.6,43.7,34,43.7z"/>
											<path d="M42,53.7c-0.9-0.1-1.8-0.4-2.6-0.9c-0.4-0.3-0.5-1-0.2-1.4s0.9-0.5,1.3-0.3c0.4,0.3,0.9,0.5,1.5,0.6
												c0.5-0.1,1-0.3,1.5-0.6s1.1-0.1,1.4,0.4c0.3,0.4,0.1,1-0.3,1.3C43.8,53.3,42.9,53.6,42,53.7z"/>
											<circle cx="53.5" cy="44.7" r="1.5"/>
											<path d="M53.5,47.2c-1.4,0-2.5-1.1-2.5-2.5s1.1-2.5,2.5-2.5s2.5,1.1,2.5,2.5S54.9,47.2,53.5,47.2z M53.5,44.2
												c-0.3,0-0.5,0.2-0.5,0.5s0.2,0.5,0.5,0.5S54,45,54,44.7S53.8,44.2,53.5,44.2z"/>
											<path d="M59,43.7h-9c-0.6,0-1-0.4-1-1s0.4-1,1-1h9c0.6,0,1,0.4,1,1S59.6,43.7,59,43.7z"/>
											<path d="M37.8,40.7c-0.2,0-0.3,0-0.5-0.1l-7.5-3.8c-1.9,0-3.7,0.4-5.4,1.2c-0.5,0.2-1.1,0-1.3-0.5c-0.2-0.5,0-1,0.4-1.3
												c2.4-1.2,6-1.8,7.1-1.2l7.5,3.8c0.5,0.2,0.7,0.8,0.5,1.3C38.5,40.5,38.1,40.7,37.8,40.7z"/>
											<path d="M45.3,40.7c-0.6,0-1-0.5-1-1c0-0.4,0.2-0.7,0.5-0.9l7.5-3.8c1.2-0.6,4.7,0,7.1,1.2c0.5,0.3,0.7,0.9,0.4,1.4
												c-0.2,0.5-0.8,0.7-1.3,0.4c-1.7-0.9-3.5-1.3-5.4-1.2l-7.5,3.7C45.6,40.6,45.4,40.7,45.3,40.7z"/>
											<path class="st8" d="M67,51.7v6.5c0,12.7-4.9,24.9-13.6,34.1l-9.3,9.8c-0.5,0.6-1.3,0.9-2.1,0.9l0,0
												c-0.8,0-1.6-0.3-2.1-0.9l-9.3-9.8C21.9,83.1,17,70.8,17,58.1v-6.5l7.7,8.6c1.3,1.5,3.5,1.6,5,0.4l1.8-1.5
												c1.9-1.6,4.4-2.5,6.9-2.5h7.2c2.5,0,5,0.9,6.9,2.5l1.8,1.5c1.5,1.2,3.7,1.1,5-0.4L67,51.7z"/>
											<g class="st3">
												<path class="st11" d="M44.1,95.8C43,96.9,41.2,97,40,95.9l-0.1-0.1L30.6,86C21.9,76.8,17,64.6,17,51.9v6.2
													c0,12.7,4.9,24.9,13.6,34.1l9.3,9.8c1.1,1.2,2.9,1.2,4.1,0.1l0.1-0.1l9.3-9.8C62.1,83.1,67,70.8,67,58.1v-6.2
													c0,12.7-4.9,24.9-13.6,34.1L44.1,95.8z"/>
											</g>
											<g class="st9">
												<path class="st10" d="M59.3,60.3c-1.3,1.4-3.5,1.6-5,0.4l-1.8-1.5c-1.9-1.6-4.4-2.5-6.9-2.5h-7.2c-2.5,0-5,0.9-6.9,2.5
													l-1.8,1.5c-1.5,1.2-3.7,1.1-5-0.4L17,51.7v5l7.7,8.6c1.3,1.4,3.5,1.6,5,0.4l1.8-1.5c1.9-1.6,4.4-2.5,6.9-2.5h7.2
													c2.5,0,5,0.9,6.9,2.5l1.8,1.5c1.5,1.2,3.7,1.1,5-0.4l7.7-8.6v-5L59.3,60.3z"/>
											</g>
											<path d="M42,103.9c-1.1,0-2.1-0.5-2.8-1.2L29.9,93C21,83.6,16,71.1,16,58.1v-6.5c0-0.6,0.4-1,1-1c0.3,0,0.6,0.1,0.7,0.3
												l7.7,8.7c0.9,1.1,2.5,1.2,3.6,0.3l1.8-1.5c2.1-1.8,4.8-2.7,7.5-2.8h7.2c2.8,0,5.4,1,7.5,2.7l1.9,1.5
												c1.1,0.9,2.6,0.8,3.6-0.2l7.7-8.6c0.4-0.4,1-0.5,1.4-0.1c0.2,0.2,0.3,0.4,0.3,0.7v6.5c0,13-5,25.4-13.9,34.8l-9.3,9.7
												C44.1,103.5,43.1,103.9,42,103.9z M18,54.3v3.8c0,12.4,4.8,24.4,13.3,33.4l9.3,9.8c0.8,0.7,2,0.7,2.8,0l9.3-9.8
												c8.6-9,13.4-21,13.4-33.4v-3.8l-6,6.7c-1.6,1.9-4.5,2.1-6.4,0.5L51.9,60c-1.8-1.5-4-2.3-6.3-2.3h-7.2
												c-2.3,0-4.5,0.8-6.2,2.3l-1.8,1.5c-1.9,1.6-4.7,1.4-6.4-0.5L18,54.3z"/>
											<path d="M42,64.6c-1.5,0.1-3-0.2-4.3-0.9c-0.5-0.3-0.6-0.9-0.3-1.4s0.9-0.6,1.4-0.3l0,0c1,0.4,2.1,0.6,3.2,0.5
												c1.1,0.1,2.2-0.1,3.2-0.5c0.5-0.3,1.1-0.2,1.4,0.3s0.2,1.1-0.3,1.4l0,0C45,64.4,43.5,64.7,42,64.6z"/>
										</g>
									</g>
								</g>
							</g>
						</g>
					</g>
				</g>
			</g>
		</g>
	</g>
</g>
</svg>
