<?xml version="1.0" encoding="utf-8"?>
<!-- Generator: Adobe Illustrator 25.2.1, SVG Export Plug-In . SVG Version: 6.00 Build 0)  -->
<svg version="1.1" id="_004" xmlns="http://www.w3.org/2000/svg" xmlns:xlink="http://www.w3.org/1999/xlink" x="0px" y="0px"
	 viewBox="0 0 84 117.4" style="enable-background:new 0 0 84 117.4;" xml:space="preserve">
<style type="text/css">
	.st0{clip-path:url(#SVGID_2_);}
	.st1{fill:#212121;}
	.st2{opacity:0.3;}
	.st3{fill:#FFFFFF;}
	.st4{fill:#111111;}
	.st5{fill:#EFDCD2;}
	.st6{fill:#CC7E54;}
	.st7{fill:#F9E2DC;}
	.st8{fill:#FF9797;}
	.st9{fill:#D85276;}
	.st10{fill:#E2821A;}
	.st11{fill:#4E4E96;}
</style>
<g>
	<g>
		<g>
			<g>
				<defs>
					<path id="SVGID_1_" d="M98.1,61.2c0,31-25.1,56.1-56.1,56.1s-56.1-25.1-56.1-56.1l0,0c0-31,25.2-64.9,56.2-64.9
						S98.1,30.2,98.1,61.2z"/>
				</defs>
				<clipPath id="SVGID_2_">
					<use xlink:href="#SVGID_1_"  style="overflow:visible;"/>
				</clipPath>
				<g class="st0">
					<path class="st1" d="M42,78.4c8,0.4,16-0.3,23.8-2c9.8-2.2,13.8-14.1,8.8-21.6c4.8-3.5,7.6-9.1,7.5-15c0-8.8-5-14.1-10-16.3
						C69.2,8.8,57.4,1.1,42,1.1S14.9,8.8,12,23.6C7,25.8,2,31.1,2,39.8c-0.1,5.9,2.7,11.5,7.5,15c-5,7.5-1.1,19.4,8.8,21.6
						C26.1,78.1,34,78.8,42,78.4z"/>
					<g class="st2">
						<path class="st3" d="M12,28.6C14.9,13.8,26.6,6.1,42,6.1s27.2,7.7,30,22.5c5.5,2.5,9.3,7.7,9.9,13.8c0.1-0.9,0.1-1.7,0.1-2.6
							c0-8.8-5-14.1-10-16.3C69.2,8.8,57.4,1.1,42,1.1S14.9,8.8,12,23.6C7,25.8,2,31.1,2,39.8c0,0.8,0,1.7,0.1,2.5
							C2.7,36.3,6.5,31,12,28.6z"/>
					</g>
					<g>
						<path class="st4" d="M65.8,71.5C58,73.2,50,73.9,42,73.5c-8,0.4-16-0.3-23.7-2c-5.6-1.3-9.9-5.9-10.7-11.7
							c-1.2,7,2.8,14.9,10.7,16.6c7.8,1.7,15.8,2.4,23.7,2c8,0.4,16-0.3,23.8-2s11.9-9.6,10.7-16.6C75.6,65.5,71.4,70.2,65.8,71.5z"
							/>
					</g>
					<path d="M46.1,79.5c-1.3,0-2.7,0-4.1-0.1c-8.1,0.4-16.1-0.3-24-2c-4.8-1.1-8.8-4.5-10.5-9.1C5.7,64,6,59.1,8.2,55.1
						C3.6,51.4,0.9,45.8,1,39.9c0-11,7.2-15.6,10.1-17C14.1,8.6,25.6,0.1,42,0.1s27.9,8.5,30.9,22.8c2.9,1.4,10.1,6,10.1,17
						c0.1,5.9-2.5,11.6-7.1,15.2c2.2,4.1,2.5,8.9,0.7,13.2c-1.8,4.6-5.7,8-10.5,9.1C59.5,78.8,52.8,79.5,46.1,79.5z M42,77.4
						L42,77.4c7.9,0.4,15.8-0.3,23.5-2c4.2-0.9,7.6-3.9,9.1-7.9c1.7-4,1.3-8.5-1-12.1c-0.3-0.4-0.2-1,0.2-1.3
						c4.8-3.8,7.1-8.4,7.1-14.2c0-10.4-7.2-14.4-9.4-15.3c-0.3-0.1-0.5-0.4-0.6-0.7C68.4,10.2,57.6,2.1,42,2.1s-26.4,8.1-29,21.7
						c-0.1,0.3-0.3,0.6-0.6,0.7c-2.2,1-9.4,4.9-9.4,15.3c0,5.8,2.3,10.4,7.1,14.2c0.4,0.3,0.5,0.9,0.2,1.3c-2.3,3.6-2.7,8.2-1,12.1
						c1.5,4,4.9,7,9.1,7.9C26.2,77.1,34.1,77.8,42,77.4L42,77.4z"/>
					<path class="st5" d="M62.3,82.2L62.3,82.2c-1.5,3.8-9.5,9.3-20.2,9.3s-18.3-5-20.2-9.2v-0.1c1.5-0.9,3-1.6,4.5-2.2
						c2-0.9,3.3-2.9,3.3-5.1c0-0.8-0.2-1.7-0.5-2.4c8,4.6,17.9,4.6,25.8,0c-1.3,2.8-0.1,6.2,2.8,7.5C59.4,80.5,60.9,81.3,62.3,82.2z
						"/>
					<path class="st5" d="M62.3,82.3L62.3,82.3c-1.4,3.8-9.4,9.3-20.2,9.3s-18.3-5-20.2-9.2v-0.1c1.5-0.9,3-1.6,4.5-2.2
						c2-0.9,3.3-2.9,3.3-5.1c0-0.8-0.2-1.7-0.5-2.4c8,4.6,17.8,4.6,25.8,0c-1.3,2.8-0.1,6.2,2.8,7.5C59.3,80.8,60.9,81.4,62.3,82.3z
						"/>
					<g class="st2">
						<path class="st6" d="M42,84.4c4.8,0,9.2-3.3,12.8-5.8c-0.6-1.3-0.6-2.8,0-4.1H29.2c0.6,1.3,0.7,2.8,0.1,4.1
							C32.8,81.1,37.3,84.4,42,84.4z"/>
					</g>
					<g class="st2">
						<path class="st6" d="M42,82c4.8,0,9.2-3.3,12.8-5.8c-0.6-1.3-0.6-2.8,0-4.1H29.2c0.6,1.3,0.7,2.8,0.1,4.1
							C32.9,78.7,37.3,82,42,82z"/>
					</g>
					<path class="st7" d="M17,33.5c0-28,49.9-28,49.9,0v17c0,8.9-4.8,17.2-12.5,21.7l-5.8,3.4c-4.1,2.4-9.2,2.4-13.3,0l-5.8-3.4
						C21.8,67.7,17,59.4,17,50.5V33.5z"/>
					<g class="st2">
						<path class="st6" d="M67,45.6c0,8.9-4.8,17.2-12.5,21.6l-5.8,3.5c-4.1,2.4-9.2,2.4-13.3,0l-5.8-3.4
							c-7.7-4.5-12.4-12.7-12.5-21.6v4.9c0,8.9,4.8,17.1,12.5,21.6l5.8,3.4c4.1,2.4,9.2,2.4,13.3,0l5.8-3.4
							C62.2,67.7,67,59.4,67,50.5V45.6z"/>
					</g>
					<path d="M41.9,78.4c-2.5,0-5-0.7-7.2-2L29,73c-8-4.7-12.9-13.2-13-22.4v-17l0,0c-0.1-6.5,2.9-12.7,8.2-16.6
						c5.2-3.7,11.4-5.6,17.7-5.5c6.3-0.1,12.6,1.8,17.8,5.4c5.3,3.8,8.3,10,8.2,16.6v17c-0.1,9.3-5,17.8-13,22.5L49,76.4
						C46.9,77.7,44.4,78.4,41.9,78.4z M18,33.5v17c0.1,8.6,4.6,16.4,12,20.8l5.8,3.4c3.8,2.2,8.5,2.2,12.3,0l5.8-3.4
						c7.3-4.3,11.9-12.2,11.9-20.8v-17c0.1-5.9-2.6-11.5-7.4-15c-4.8-3.4-10.6-5.2-16.5-5.1C30.4,13.5,18,19.7,18,33.5L18,33.5z"/>
					<path class="st7" d="M17,51.4v-9c0-3-2.2-4-3.6-3c-2.2,1.5,0.6,8,0.6,8C12.4,48.4,14.2,52.1,17,51.4z"/>
					<path d="M16.3,52.5c-1.5,0-2.9-1-3.6-2.4c-0.5-0.9-0.4-2,0.2-2.9c-0.8-2-2.4-6.9,0-8.6c0.9-0.6,2.1-0.7,3.1-0.2
						c1.4,0.8,2.1,2.4,2,4v9c0,0.5-0.3,0.9-0.8,1C16.9,52.4,16.6,52.5,16.3,52.5z M17,51.4L17,51.4z M14.5,40
						c-0.2,0-0.4,0.1-0.6,0.2c-0.9,0.6-0.2,4.1,1,6.8c0.2,0.5,0,1-0.4,1.2c-0.2,0.2-0.2,0.6,0,1c0.3,0.6,0.8,1.1,1.5,1.2v-8.1
						c0.1-0.9-0.3-1.7-1-2.2C14.9,40.1,14.7,40,14.5,40z"/>
					<path d="M14,48.4c-0.6,0-1-0.5-1-1c0-0.3,0.2-0.7,0.5-0.8l0.4-0.2c0.5-0.3,1.1-0.1,1.4,0.4c0.3,0.4,0.1,1-0.3,1.3l-0.4,0.2
						C14.4,48.3,14.2,48.4,14,48.4z"/>
					<path class="st7" d="M67,51.4v-9c0-3,2.2-4,3.6-3c2.2,1.5-0.6,8-0.6,8C71.6,48.4,69.8,52.1,67,51.4z"/>
					<path d="M67.7,52.5c-0.3,0-0.7,0-1-0.1c-0.5-0.1-0.8-0.5-0.8-1v-9c-0.1-1.6,0.6-3.2,2-4c1-0.5,2.2-0.5,3.1,0.2
						c2.4,1.7,0.8,6.6,0,8.6c0.6,0.9,0.7,2,0.2,3C70.7,51.5,69.3,52.4,67.7,52.5z M69.5,40c-0.2,0-0.3,0-0.5,0.1
						c-0.7,0.5-1.1,1.4-1,2.2v8.1c0.7-0.2,1.2-0.6,1.5-1.2c0.2-0.4,0.2-0.9,0-1c-0.4-0.3-0.6-0.8-0.4-1.2c1.2-2.7,1.8-6.2,0.9-6.8
						C69.8,40.1,69.7,40,69.5,40L69.5,40z"/>
					<path d="M70,48.4c-0.2,0-0.4-0.1-0.5-0.2L69.1,48c-0.5-0.3-0.6-0.9-0.4-1.4c0.3-0.5,0.9-0.6,1.4-0.4c0,0,0.1,0,0.1,0.1l0.4,0.2
						c0.5,0.3,0.6,0.9,0.3,1.4C70.7,48.2,70.4,48.4,70,48.4L70,48.4z"/>
					<g class="st2">
						<circle class="st8" cx="27.5" cy="58" r="4.5"/>
					</g>
					<g class="st2">
						<circle class="st8" cx="56.5" cy="58" r="4.5"/>
					</g>
					<path d="M42,55c-0.9-0.1-1.8-0.4-2.5-0.9c-0.5-0.3-0.6-0.9-0.3-1.4s0.9-0.6,1.4-0.3c0.4,0.3,0.9,0.5,1.4,0.6
						c0.5-0.1,1-0.3,1.4-0.6c0.5-0.3,1.1-0.2,1.4,0.3s0.2,1.1-0.3,1.4C43.8,54.6,42.9,54.9,42,55z"/>
					<circle cx="30.5" cy="46.5" r="1.5"/>
					<path d="M30.5,49c-1.4,0-2.5-1.1-2.5-2.5s1.1-2.5,2.5-2.5s2.5,1.1,2.5,2.5S31.9,49,30.5,49z M30.5,46c-0.3,0-0.5,0.2-0.5,0.5
						s0.2,0.5,0.5,0.5s0.5-0.3,0.5-0.5S30.8,46,30.5,46z"/>
					<circle cx="54.5" cy="46.5" r="1.5"/>
					<path d="M54.5,49c-1.4,0-2.5-1.1-2.5-2.5s1.1-2.5,2.5-2.5s2.5,1.1,2.5,2.5S55.9,49,54.5,49z M54.5,46c-0.3,0-0.5,0.2-0.5,0.5
						s0.2,0.5,0.5,0.5s0.5-0.3,0.5-0.5S54.8,46,54.5,46z"/>
					<path d="M23,41.2c-0.6,0-1-0.5-1-1c0-0.4,0.2-0.7,0.5-0.9l5.2-2.7c0.1-0.1,0.3-0.1,0.5-0.1c1.5,0,3.7,1,5.5,1.9
						c0.7,0.3,1.4,0.6,2.2,0.9c0.6,0.1,0.9,0.6,0.8,1.2c-0.1,0.6-0.6,0.9-1.2,0.8c-0.9-0.2-1.8-0.6-2.6-1c-1.4-0.7-2.9-1.3-4.5-1.7
						l-5,2.6C23.3,41.2,23.1,41.2,23,41.2z"/>
					<path class="st9" d="M48.2,60.6c0,1.7-2.8,3.1-6.2,3.1s-6.2-1.4-6.2-3.1c1.2-1.9,4.4-1.4,6.2,0.5C43.9,59.2,47,58.7,48.2,60.6z
						"/>
					<path d="M42,64.5c-3.1,0-5.9-1.3-7.1-3.2c-0.3-0.4-0.2-1.1,0.2-1.4c0.4-0.3,1.1-0.2,1.4,0.2l0.1,0.1c0.9,1.4,3,2.3,5.4,2.3
						s4.5-0.9,5.4-2.3c0.3-0.5,0.9-0.7,1.4-0.4s0.7,0.9,0.4,1.4c0,0,0,0.1-0.1,0.1C47.8,63.2,45,64.5,42,64.5z"/>
					<path d="M61,41.2c-0.3,0-0.5-0.1-0.7-0.3c-1.5-1-3.1-1.9-4.8-2.6c-1.6,0.3-3.2,0.9-4.7,1.6c-0.8,0.4-1.6,0.7-2.5,1
						c-0.6,0.1-1.1-0.3-1.2-0.8c-0.1-0.6,0.3-1.1,0.8-1.2c0.7-0.2,1.4-0.5,2-0.8c1.8-0.8,4-1.8,5.6-1.8c0.1,0,0.3,0,0.4,0.1
						c0.8,0.3,4.5,2,5.6,3.1c0.4,0.4,0.4,1,0,1.4C61.5,41.1,61.2,41.2,61,41.2L61,41.2z"/>
					<path d="M35,47.1c-0.3,0-0.6-0.2-0.8-0.4c-1.6-2.2-3.9-1.8-7-1c-1.7,0.5-3.4,0.9-4.6,0.3c-0.5-0.3-0.7-0.9-0.4-1.4
						c0.2-0.5,0.8-0.7,1.3-0.4c0.6,0.3,1.9-0.1,3.2-0.4c2.8-0.8,6.6-1.8,9.1,1.7c0.3,0.4,0.3,1.1-0.2,1.4C35.5,47,35.2,47.1,35,47.1
						z"/>
					<path d="M50,47.1c-0.6,0-1-0.4-1-1c0-0.2,0.1-0.4,0.2-0.6c2.2-3,5.6-2.2,8.1-1.6c1.3,0.3,2.6,0.6,3.2,0.3
						c0.5-0.3,1.1-0.1,1.4,0.4c0.3,0.5,0.1,1.1-0.4,1.4c0,0,0,0-0.1,0c-1.3,0.6-2.9,0.3-4.6-0.1c-2.8-0.7-4.7-1-6.1,0.8
						C50.6,46.9,50.3,47.1,50,47.1z"/>
					<path d="M30.3,65.5c-0.1,0-0.1,0-0.2,0h-0.2l-0.2-0.1c-0.1,0-0.1-0.1-0.2-0.1c-0.1-0.1-0.2-0.2-0.2-0.3s-0.1-0.2-0.1-0.4
						c0-0.1,0-0.1,0-0.2c0-0.1,0-0.1,0-0.2l0.1-0.2c0-0.1,0.1-0.1,0.1-0.2l0.2-0.1c0.1,0,0.1-0.1,0.2-0.1c0.1,0,0.1,0,0.2-0.1
						c0.3-0.1,0.7,0,0.9,0.3c0.1,0,0.1,0.1,0.1,0.2l0.1,0.2l0.1,0.2c0,0.1,0,0.1,0,0.2s0,0.3-0.1,0.4c0,0.1-0.1,0.2-0.2,0.3
						C30.7,65.4,30.5,65.5,30.3,65.5z"/>
					<g class="st2">
						<path class="st6" d="M17,33.5c0,0,21.9,9,41-8c2.9,10.4,9,8.5,9,8.5v-3.7c0,0-6.3,2.6-9.2-7.8c-18.8,16-40.8,7-40.8,7V33.5z"
							/>
					</g>
					<path class="st1" d="M17,29.4c0,0,21.6,9.6,40.7-7.5c0,9.8,9.2,8.6,9.2,8.6l2.3-0.2C66.9,4.5,19.7,3.7,15,28.4L17,29.4z"/>
					<path d="M31.6,33c-5.1,0-10.2-0.9-15-2.7l-2-0.9c-0.5-0.2-0.7-0.8-0.5-1.3s0.8-0.7,1.3-0.5l2,0.9c0.2,0.1,21.3,9.1,39.7-7.3
						c0.4-0.4,1-0.3,1.4,0.1c0.2,0.2,0.3,0.4,0.3,0.7c0,2.7,0.7,4.7,2.2,6c2.3,2,5.8,1.6,5.9,1.6l1.3-0.1c0.6,0,1,0.4,1.1,0.9
						s-0.4,1-0.9,1.1l-1.4,0c-0.1,0-4.4,0.6-7.4-2.1C58,28,57,26,56.8,23.9C49.8,29.8,40.8,33,31.6,33z"/>
					<path d="M66.9,34.5c-0.6,0-1-0.4-1-1c0-0.9-0.1-1.9-0.2-2.8c-0.1-0.6,0.3-1.1,0.9-1.1c0.6-0.1,1.1,0.3,1.1,0.9
						c0.1,1,0.2,2.1,0.2,3.1C67.9,34,67.4,34.5,66.9,34.5L66.9,34.5z"/>
					<path d="M17,34.5c-0.6,0-1-0.4-1-1c0-1.3,0.1-2.7,0.4-4c0.1-0.6,0.6-0.9,1.2-0.8s0.9,0.6,0.8,1.2l0,0c-0.2,1.2-0.3,2.5-0.3,3.7
						C18,34.1,17.6,34.5,17,34.5z"/>
					<path class="st10" d="M65.3,122H5.4v-13.4c0-11.9,6.3-22.9,16.6-29c2.5,4.9,10.3,9.4,20.2,9.4c8.4,0,16.8-3.8,19.8-9.3
						c4.3,2.6,8,6,10.8,10.2c3.8,5.5,5.8,12.1,5.8,18.8V122H65.3z"/>
					<g class="st2">
						<path class="st3" d="M62.1,83.7c4.3,2.6,8,6,10.8,10.2c3.8,5.5,5.8,12.1,5.8,18.8v-4c0-6.7-2-13.2-5.8-18.8
							c-2.8-4.2-6.5-7.6-10.8-10.2C62.1,79.7,62.1,83.7,62.1,83.7z"/>
					</g>
					<g class="st2">
						<path class="st3" d="M22,79.7c-10.3,6.1-16.6,17.1-16.6,29v4c0-11.9,6.3-22.9,16.6-29V79.7z"/>
					</g>
					<path d="M5,123c-0.6,0-1-0.4-1-1v-12.9c0-11.7,6.4-22.5,16.9-28.6c1.5-0.9,3-1.6,4.5-2.2c2.2-1.4,3.1-4.1,2.2-6.5
						c-0.2-0.5,0-1.1,0.6-1.2s1.1,0,1.3,0.6c1.3,3.4,0,7.1-3.2,8.9c-1.5,0.6-3,1.3-4.3,2.1C12,88,6,98.1,6,109.2V122
						C6,122.6,5.6,123,5,123z"/>
					<path d="M79,123c-0.6,0-1-0.4-1-1v-12.9c0-6.2-1.9-12.3-5.6-17.5c-3.7-5.2-8.8-9.2-14.9-11.6c-3.3-1.7-4.8-5.6-3.3-8.9
						c0.2-0.5,0.7-0.8,1.3-0.6c0.5,0.2,0.8,0.7,0.6,1.2V72c-1.1,2.4-0.1,5.2,2.2,6.4c1.6,0.7,3.2,1.3,4.7,2.2
						c4.4,2.5,8.2,5.9,11.1,10.1c3.9,5.5,5.9,11.9,5.9,18.5V122C80,122.6,79.6,123,79,123z"/>
					<path d="M19,123c-0.6,0-1-0.4-1-1v-13c0-4.7,0.8-8,2.4-10.3c0.2-0.5,0.8-0.7,1.3-0.5s0.7,0.8,0.5,1.3c-0.1,0.1-0.1,0.2-0.2,0.3
						c-1.4,2-2,4.9-2,9.1v13C20,122.5,19.6,123,19,123L19,123z"/>
					<path d="M65,123c-0.6,0-1-0.4-1-1v-13c0-4.3-0.6-7.2-2-9.1c-0.3-0.4-0.3-1.1,0.1-1.4c0.4-0.3,1.1-0.3,1.4,0.1l0.1,0.1
						c1.6,2.3,2.4,5.5,2.4,10.3v13C66,122.6,65.6,123,65,123z"/>
					<g class="st2">
						<rect x="31.7" y="87" class="st11" width="19.6" height="7.2"/>
					</g>
					<path class="st10" d="M29.3,92.3l-11.5-8.2c-1.1-0.8-1.4-2.3-0.6-3.4c0.2-0.2,0.4-0.4,0.6-0.6l7.1-5.3L42,87.1l-6.9,5.2
						C33.3,93.6,31,93.6,29.3,92.3z"/>
					<g class="st2">
						<path class="st3" d="M17.7,84.1l0.6,0.4l6.5-4.9l13.9,9.9L42,87L24.8,74.8l-7.1,5.3c-1.1,0.8-1.3,2.3-0.5,3.4
							C17.3,83.8,17.5,84,17.7,84.1z"/>
					</g>
					<path d="M32.1,94.3c-1.2,0-2.4-0.4-3.4-1.1L17.2,85c-1.6-1.1-1.9-3.3-0.8-4.8c0.2-0.3,0.5-0.5,0.7-0.8l7.1-5.4
						c0.4-0.3,0.8-0.3,1.2,0l17.2,12.3c0.4,0.3,0.5,1,0.2,1.4c-0.1,0.1-0.1,0.2-0.2,0.2l-6.9,5.2C34.6,93.8,33.4,94.3,32.1,94.3z
						 M24.8,76l-6.5,5c-0.6,0.5-0.8,1.4-0.3,2c0.1,0.1,0.2,0.2,0.3,0.3l11.5,8.2l0,0c1.4,1,3.3,1,4.6-0.1l5.8-4.4L24.8,76z"/>
					<path class="st10" d="M54.7,92.2L66.2,84c1.1-0.8,1.4-2.3,0.6-3.4c-0.2-0.2-0.4-0.4-0.6-0.6l-7.1-5.3L42,86.9l6.9,5.2
						C50.7,93.4,53,93.4,54.7,92.2z"/>
					<g class="st2">
						<path class="st3" d="M59.2,79.7l6.5,4.9l0.6-0.4c1.1-0.8,1.4-2.3,0.6-3.4c-0.2-0.2-0.4-0.4-0.6-0.6l-7.1-5.3L42,87.1l3.3,2.5
							L59.2,79.7z"/>
					</g>
					<path d="M51.9,94.3c-1.3,0-2.5-0.4-3.5-1.2l-6.9-5.2c-0.4-0.3-0.5-1-0.2-1.4c0.1-0.1,0.1-0.2,0.2-0.2L58.6,74
						c0.4-0.3,0.8-0.3,1.2,0l7.1,5.3c1.5,1.1,1.8,3.3,0.7,4.8c-0.2,0.3-0.5,0.5-0.8,0.7L55.3,93l0,0C54.3,93.9,53.1,94.3,51.9,94.3z
						 M43.7,87.1l5.8,4.4c1.4,1,3.2,1,4.6,0.1l0,0l11.5-8.2c0.6-0.5,0.8-1.4,0.3-2c-0.1-0.1-0.2-0.2-0.3-0.3l-6.5-5L43.7,87.1z"/>
					<path d="M46.5,98c-0.8,0-1.5-0.7-1.5-1.5s0.7-1.5,1.5-1.5s1.5,0.7,1.5,1.5S47.3,98,46.5,98z M46.5,96c-0.3,0-0.5,0.2-0.5,0.5
						s0.2,0.5,0.5,0.5s0.5-0.2,0.5-0.5S46.8,96,46.5,96z"/>
					<path d="M46.5,105c-0.8,0-1.5-0.7-1.5-1.5s0.7-1.5,1.5-1.5s1.5,0.7,1.5,1.5S47.3,105,46.5,105z M46.5,103
						c-0.3,0-0.5,0.2-0.5,0.5s0.2,0.5,0.5,0.5s0.5-0.2,0.5-0.5S46.8,103,46.5,103z"/>
					<path d="M46.5,112c-0.8,0-1.5-0.7-1.5-1.5s0.7-1.5,1.5-1.5s1.5,0.7,1.5,1.5S47.3,112,46.5,112z M46.5,110
						c-0.3,0-0.5,0.2-0.5,0.5s0.2,0.5,0.5,0.5s0.5-0.2,0.5-0.5S46.8,110,46.5,110z"/>
					<path d="M46.5,119c-0.8,0-1.5-0.7-1.5-1.5s0.7-1.5,1.5-1.5s1.5,0.7,1.5,1.5S47.3,119,46.5,119z M46.5,117
						c-0.3,0-0.5,0.2-0.5,0.5s0.2,0.5,0.5,0.5s0.5-0.2,0.5-0.5S46.8,117,46.5,117z"/>
					<circle cx="46.5" cy="96.5" r="1"/>
					<circle cx="46.5" cy="103.5" r="1"/>
					<circle cx="46.5" cy="110.5" r="1"/>
					<circle cx="46.5" cy="117.5" r="1"/>
					<path d="M42,123c-0.6,0-1-0.4-1-1V88c0-0.6,0.4-1,1-1s1,0.4,1,1v34C43,122.6,42.6,123,42,123z"/>
				</g>
			</g>
		</g>
	</g>
</g>
</svg>
