<svg id="Warstwa_1" data-name="Warstwa 1" xmlns="http://www.w3.org/2000/svg" width="22.55mm" height="20.39mm" viewBox="0 0 63.92 57.79"><defs><style>.cls-1{fill:#00818e;}</style></defs><path class="cls-1" d="M41.63,26.15c-.24-.16-.44-.31-.65-.44L27.73,17.16c-1.09-.71-1.17-1.15-.43-2.24a18.82,18.82,0,0,1,26-4.93A19.33,19.33,0,0,1,61.6,20.9,18.36,18.36,0,0,1,59.54,36c-.53.88-1.07,1-1.94.43L44.23,27.81l-.71-.45-10.37,16c1,.09,1.89.12,2.77.25,1.71.24,3.4.51,5.1.8.83.14,1.24.71,1.09,1.37a1.18,1.18,0,0,1-1.57.82A42.6,42.6,0,0,0,10,51.19c-1.44.84-2.87,1.7-4.39,2.6,3.45,2,6.89,2.33,10.43.58a12.29,12.29,0,0,1,11.33,0,11.83,11.83,0,0,0,3.05,1,9.74,9.74,0,0,0,6.15-.94,12,12,0,0,1,11.31-.06,10.24,10.24,0,0,0,9.48,0,2.37,2.37,0,0,0,.19-.18l-6.73-3.92c-.2-.11-.42-.19-.62-.31a1.1,1.1,0,0,1,1-1.95,14.6,14.6,0,0,1,1.52.79c2.4,1.4,4.78,2.83,7.19,4.21a2.3,2.3,0,0,0,1.08.22c.64,0,1.29-.1,1.93-.07a1.09,1.09,0,0,1,0,2.17,12.36,12.36,0,0,0-5.4,1.41A12,12,0,0,1,47,56.42a10.42,10.42,0,0,0-9.65.06,11.67,11.67,0,0,1-10.81,0,10.43,10.43,0,0,0-9.77,0A11.81,11.81,0,0,1,6,56.48a10.29,10.29,0,0,0-4.75-1.22A1.13,1.13,0,0,1,0,54.12a1.09,1.09,0,0,1,1.35-1,3.07,3.07,0,0,0,2.12-.57c.91-.58,1.83-1.14,2.79-1.64.51-.27.56-.56.45-1.09a35,35,0,0,1,.18-16A15.52,15.52,0,0,1,8.4,30c1.66-2.93,4.29-2.92,6,0a15.12,15.12,0,0,1,1.78,5,34.63,34.63,0,0,1,.59,9.8c0,.31,0,.63,0,1,1.39-.38,2.75-.78,4.13-1.11a40.6,40.6,0,0,1,8.92-1.15A1.21,1.21,0,0,0,31,42.81q5.13-8,10.29-16C41.38,26.57,41.49,26.37,41.63,26.15Zm16.45,7.94C62.2,27,59.74,18.17,55,14.23a20.84,20.84,0,0,1-1.94,7.42C52,24,50.8,26.3,49.63,28.69ZM48.85,10.27a16.18,16.18,0,0,0-19.32,5.44l8.55,5.5C41.09,16.94,44.27,13,48.85,10.27ZM47.7,27.34A37.7,37.7,0,0,0,52.29,17a15.58,15.58,0,0,0,.42-3.73c0-1.33-.72-1.79-2-1.38a8.31,8.31,0,0,0-2,1,32.77,32.77,0,0,0-7.37,7.45c-.49.65-.94,1.33-1.43,2ZM8.8,49.19c1.83-.86,3.58-1.66,5.31-2.5a.82.82,0,0,0,.35-.57,31.87,31.87,0,0,0-.54-11.35,21.31,21.31,0,0,0-1.19-3.36c-.25-.58-.56-1.34-1.33-1.33s-1,.78-1.33,1.36a10.18,10.18,0,0,0-.74,1.77A33.62,33.62,0,0,0,8.8,49.19Z"/><path class="cls-1" d="M17.53,13.83c.52.49,1,.94,1.52,1.43a1.1,1.1,0,0,1,.12,1.65,1.07,1.07,0,0,1-1.64-.07L16,15.41,13.2,16.56c0,.61,0,1.3,0,2s-.41,1.24-1.07,1.25S11,19.34,11,18.53c0-.64.21-1.42-.07-1.89s-1.09-.51-1.65-.76a7.58,7.58,0,0,1-1.12-.67c-.47.53-.91,1.08-1.41,1.59a1.06,1.06,0,0,1-1.63.14,1.1,1.1,0,0,1,.1-1.69c.49-.48,1-.89,1.43-1.22-.41-1.08-.69-1.9-1-2.7a.65.65,0,0,0-.49-.3C4.55,11,4,11,3.4,11A1.11,1.11,0,0,1,2.18,9.9c0-.64.48-1.06,1.25-1.09H5.49L6.65,5.93c-.42-.4-1-.87-1.45-1.37a1.11,1.11,0,0,1-.12-1.64A1.09,1.09,0,0,1,6.72,3c.52.48,1,1,1.52,1.44.48-.24.9-.47,1.35-.65S10.5,3.46,11,3.3c0-.67,0-1.36,0-2A1.11,1.11,0,0,1,12.07,0c.68,0,1.12.47,1.13,1.27s0,1.33,0,2c.48.16,1,.3,1.42.49s.85.44,1.35.69c.51-.5,1.06-1,1.59-1.55s1.26-.66,1.75-.14a1.14,1.14,0,0,1-.21,1.69c-.53.5-1.08,1-1.54,1.41l1.19,2.92H20.7c.83,0,1.31.43,1.32,1.09A1.08,1.08,0,0,1,20.72,11c-1.4-.15-2.42.09-2.61,1.74A3.94,3.94,0,0,1,17.53,13.83ZM7.69,9.88a4.41,4.41,0,1,0,4.45-4.37A4.41,4.41,0,0,0,7.69,9.88Z"/><path class="cls-1" d="M48,47.11c0,.89-.65,1.45-1.31,1.27a12.74,12.74,0,0,1-2-.71,1,1,0,0,1-.53-1.27,1,1,0,0,1,1.14-.75,11.39,11.39,0,0,1,2.19.77C47.77,46.55,47.9,47,48,47.11Z"/></svg>