<svg id="Warstwa_1" data-name="Warstwa 1" xmlns="http://www.w3.org/2000/svg" width="24.28mm" height="22.64mm" viewBox="0 0 68.84 64.17"><defs><style>.cls-1{fill:#00818e;}</style></defs><path class="cls-1" d="M32,17.66l11,4.12c0,.83,0,1.63,0,2.43a1.23,1.23,0,0,1-.45.71c-1,.86-2,1.68-3.21,2.63l2.71,1c1.51.56,3,1.07,4.54,1.69a6.87,6.87,0,0,1,4.56,5,5.88,5.88,0,0,1-.94,4.38Q45.75,47,41.28,54.3c-.16.26-.3.52-.47.83a4.64,4.64,0,0,0,.56.27c5,1.82,9.92,3.65,14.89,5.45a11.14,11.14,0,0,0,5.17.7A7.93,7.93,0,0,0,66,59.19c.26-.25.5-.53.78-.75a1.18,1.18,0,0,1,1.67,0,1.16,1.16,0,0,1,.1,1.72A11.36,11.36,0,0,1,61.93,64a12.84,12.84,0,0,1-6.56-.81q-13.62-4.94-27.2-9.95Q14.77,48.35,1.39,43.4a2.52,2.52,0,0,1-1.31-.91,1.41,1.41,0,0,1,.23-1.34,1.67,1.67,0,0,1,1.41-.29c2.53.86,5,1.82,7.53,2.74l19.11,7c.44.16.76.25,1.12-.25,2.75-3.86,5.53-7.69,8.31-11.54a4,4,0,0,0,.25-.46c-.3-.13-.56-.25-.83-.35C34.4,37,31.57,36,28.78,34.84a9.65,9.65,0,0,1-5.46-5,8,8,0,0,1,1.55-8.62.87.87,0,0,1,.71-.19c.69.21,1.35.49,2.13.78-.25.29-.43.52-.64.73-3.33,3.31-1.9,7.49,1.33,9.27a29.39,29.39,0,0,0,3.82,1.66c3.07,1.18,6.15,2.3,9.23,3.45.2.07.39.18.66.3L31.59,51.79l2,.76c1.3.49,2.62.94,3.91,1.47a.86.86,0,0,0,1.26-.44c2.83-4.7,5.7-9.38,8.56-14.06.25-.41.51-.8.76-1.2a3.33,3.33,0,0,0-.83-4.74,8.9,8.9,0,0,0-2.19-1.18c-2.41-.94-4.85-1.8-7.27-2.7-1.88-.7-2.16-2.4-.61-3.66l3.13-2.57-27-10,.88-2.37,6.07,2.25c2.79,1,5.59,2,8.36,3.12A1.14,1.14,0,0,0,30,16.18a31.19,31.19,0,0,1,8.87-5.89,9.89,9.89,0,0,1,5.87-.78,5.13,5.13,0,0,1,4.22,5c-.06,2.7-.34,5.39-.59,8.08a2.06,2.06,0,0,0,2,2.49c2.94.26,5.88.52,8.82.8,1,.08,1.38.56,1.32,1.36s-.56,1.17-1.46,1.11c-3-.23-6.07-.41-9.08-.75S45.43,25,45.87,21.7c.3-2.18.48-4.38.58-6.58a2.82,2.82,0,0,0-2.88-3.19,6.6,6.6,0,0,0-2,.14,16.94,16.94,0,0,0-6.13,3C34.35,15.81,33.3,16.68,32,17.66Z"/><path class="cls-1" d="M62.3,6.63A6.64,6.64,0,0,1,49,6.7,6.64,6.64,0,1,1,62.3,6.63Zm-2.58,0A4.06,4.06,0,0,0,51.6,6.6a4.06,4.06,0,1,0,8.12.05Z"/></svg>