<svg id="Warstwa_1" data-name="Warstwa 1" xmlns="http://www.w3.org/2000/svg" width="25.38mm" height="22.89mm" viewBox="0 0 71.95 64.9"><defs><style>.cls-1{fill:#00818e;}</style></defs><path class="cls-1" d="M57.68,40.47c0,1.94-.06,3.76,0,5.57a3.26,3.26,0,0,1-1.11,2.69c-2.48,2.39-4.89,4.86-7.33,7.3-.16.16-.31.33-.48.47a1.15,1.15,0,0,1-1.62-.11,1,1,0,0,1-.06-1.54c2.37-2.13,3.42-5.12,5.1-7.7a.92.92,0,0,0,0-1.14c-1-1.74-2-3.51-3-5.26-.11-.19-.24-.37-.36-.56-6.31,3.46-12.92,3.93-19.83,2.2-.23.86-.5,1.67-.65,2.49a1.18,1.18,0,0,0,.38.8Q32.36,49.36,36,53a1.28,1.28,0,0,1,.52,1.31,1.16,1.16,0,0,1-2,.52c-1.83-2.1-4.45-3-6.85-4.41a24.74,24.74,0,0,0,.42,3.11c.81,3.22,1.71,6.41,2.58,9.61.24.89,0,1.42-.66,1.67a1.08,1.08,0,0,1-1.54-.75C28.12,62,27,60.35,26,58.6c-1.75-3.05-3.52-6.09-5.27-9.15a5,5,0,0,1-.5-1.23c-1-3.57-1.88-7.15-2.83-10.71a3.54,3.54,0,0,0-.59-1.18A9.15,9.15,0,0,1,15,32.12c-.35.13-.65.23-.94.36A23.88,23.88,0,0,0,2.58,43.23l-.2.4c-.4.75-.91,1-1.56.8a1.19,1.19,0,0,1-.76-1.57,43.72,43.72,0,0,1,1.29-4.68A26.59,26.59,0,0,1,9.93,26.49a9.12,9.12,0,0,1,6.17-2.25,7,7,0,0,0,4.13-.92,5.28,5.28,0,0,1,1.79-.5c.6-.11,1.23-.12,1.88-.18a.46.46,0,0,0,0-.17c-1.49-3.67-1-7.24.6-10.73a2,2,0,0,1,1.15-.92c4-1.13,8.09-2.2,12.13-3.29l1-.28c-1.27-.34-1.36-1.14-1.23-2.08C37.9,2.46,39,1.17,41.64.5A9.42,9.42,0,0,1,44.48,0c2.48.18,3.83,1.85,4.63,4,.22.59.47.8,1.06.73a2.47,2.47,0,0,1,.81.06A1.08,1.08,0,0,1,51.84,6a1.06,1.06,0,0,1-1,1.07c-.44,0-.88,0-1.35.07a4.94,4.94,0,0,1-2.36,4.08L50.9,15c.65-.43,1.37-.87,2.05-1.37a1,1,0,0,0,.29-.61,8.91,8.91,0,0,1,0-1.64,1.92,1.92,0,0,1,.82-1.1,1,1,0,0,1,1.4.54,2.86,2.86,0,0,0,2.67,2c.36,0,.72.31,1.07.51L70.92,20.1c1.06.61,1.22,1,.84,2.13a8.44,8.44,0,0,1-4,4.83,2.25,2.25,0,0,1-1.86.23c-1.7-.5-3.41-.94-5.13-1.38a3.54,3.54,0,0,0-4.45,2.5,2.61,2.61,0,0,0,.58,2.65A12.08,12.08,0,0,0,59.24,33c2.47,1.51,5,2.94,7.51,4.36a1.69,1.69,0,0,1,1,1.62c0,4.67,0,9.35,0,14a1.37,1.37,0,0,1-.58,1.37,1.14,1.14,0,0,1-1.79-1c.15-3.29-1.27-6.23-1.94-9.34a.72.72,0,0,0-.3-.47C61.33,42.56,59.57,41.55,57.68,40.47Zm-2.44,6a.15.15,0,0,0,0-.08q0-6.53,0-13.05a1.3,1.3,0,0,0-.26-.66A5.5,5.5,0,0,1,54.8,26a6,6,0,0,1,6.36-2.47c1.65.41,3.28.87,4.92,1.3a1,1,0,0,0,.64,0,5.54,5.54,0,0,0,2.58-2.91l-.76-.46-10.31-6a3.89,3.89,0,0,0-4.86.94l3.83,1c.89.25,1.28.69,1.2,1.37S57.81,20,56.87,20c-2.17,0-4.34,0-6.52,0a1.17,1.17,0,0,0-1.15.62c-.64,1.07-1.27,2.15-2,3.18a3.09,3.09,0,0,1-1.09.94c-.78.38-1.61.64-2.5,1,.53,1.27-.09,2.26-.7,3.28-1.16,1.93-2.26,3.89-3.38,5.84-.27.47-.54.94-.83,1.47.32.1.58.16.83.25A1.17,1.17,0,0,1,40.31,38a1.13,1.13,0,0,1-1.4.8c-.56-.13-1.12-.29-1.67-.44-1.47-.39-1.65-.65-1.45-2.2H31.15a4.78,4.78,0,0,1-5-4.94c0-1.42,0-2.85,0-4.27,0-1.59.28-1.23-1.26-1.65a6,6,0,0,0-6,9.8,3.2,3.2,0,0,1,.61,1.17C20,38.17,20.55,40.08,21,42c.85,3.61,1.84,7.15,4,10.22l.35.51c0-1-.08-2-.14-2.93a9.27,9.27,0,0,1,0-2.52c.48-2.16,1.12-4.3,1.7-6.44a1.26,1.26,0,0,1,1.79-1c1.16.28,2.31.62,3.49.8a22.6,22.6,0,0,0,16.24-3.06,1.2,1.2,0,0,1,1.93.5Q52.82,42.22,55.24,46.42Zm-5.49-29-.5-.55c-1.5-1.5-3-3-4.51-4.49a1.81,1.81,0,0,0-1.1-.46,4.92,4.92,0,0,1-4-1.92.91.91,0,0,0-.77-.28q-6,1.56-11.92,3.19c-.23.06-.41.29-.61.45a2.43,2.43,0,0,0,.45.5c2.42,1.41,4.83,2.81,7.26,4.18a1.39,1.39,0,0,0,1,.11c2.63-.67,5.26-1.35,7.87-2.11a2.54,2.54,0,0,1,2.39.34A5,5,0,0,0,49.75,17.45ZM41.3,27.2a4.68,4.68,0,0,0,0-1.07A3.45,3.45,0,0,0,39.58,24L26.09,16.25A5.31,5.31,0,0,0,25.6,16c-.29,2.41-.32,4.71,1.27,6.67a3.34,3.34,0,0,0,1.6,1C32.67,24.91,36.89,26,41.3,27.2Zm-12.69-.9c0,1.9-.05,3.69,0,5.48a2.14,2.14,0,0,0,2.1,2c1.74,0,3.49,0,5.23,0a1,1,0,0,0,.69-.59c.27-.74.44-1.53.64-2.3s.35-1.37.53-2.09Zm18-6.28c-2.42-1.77-2.49-1.79-5.24-1.05l-1.08.29-2.83.79,1.3.76a19,19,0,0,1,3,1.89,1.51,1.51,0,0,0,2,.32c.35-.19.75-.27,1.11-.43a1.28,1.28,0,0,0,.52-.39C45.81,21.48,46.22,20.74,46.64,20ZM16,26.75a5.08,5.08,0,0,0-3.8,1.08,24.33,24.33,0,0,0-6.46,6.8c-.13.19-.24.4-.39.67.15-.06.2-.06.23-.09a28.57,28.57,0,0,1,9.13-5.61.65.65,0,0,0,.38-.3C15.44,28.47,15.72,27.63,16,26.75ZM57.69,34.9c0,.85,0,1.55,0,2.24a1.19,1.19,0,0,0,.46.8C60,39,61.79,40.05,63.6,41.1l1.7,1a6.3,6.3,0,0,1,0-1.08c.25-1.3-.32-2-1.47-2.59C61.78,37.36,59.82,36.13,57.69,34.9ZM47,7.22H41.13A2.25,2.25,0,0,0,43,9.47a9.18,9.18,0,0,0,2.16,0A2.14,2.14,0,0,0,47,7.22ZM46.75,4.7C46.08,2.78,44.87,2.11,43,2.6L41.53,3A2.13,2.13,0,0,0,40.05,4.7Z"/></svg>