<svg id="Warstwa_1" data-name="Warstwa 1" xmlns="http://www.w3.org/2000/svg" width="23.09mm" height="22.91mm" viewBox="0 0 65.44 64.94"><defs><style>.cls-1{fill:#00818e;}</style></defs><path class="cls-1" d="M55,44.51A36.66,36.66,0,0,1,65.44,56.32l-.92.52-.92.5-.33-.51A34.17,34.17,0,0,0,51.21,44.59a1.18,1.18,0,0,0-.73-.2c-1.53.4-3,.86-4.62,1.31.09.22.15.4.23.56.5,1,.47,1.22-.35,2.05L43,51l-.42.45c.08.1.12.17.18.23l2.37,2.39,1.48-2.2c.65-1,1.32-2,2-3a1.37,1.37,0,0,1,1.28-.68c1.25,0,2.51,0,3.76,0,1,0,1.35.37,1.35,1.39,0,1.56,0,3.13,0,4.69a1.45,1.45,0,0,1-.83,1.46C51.94,57,49.7,58.3,47.5,59.63a8.66,8.66,0,0,0-1.63,1.46c-.09.09,0,.41.06.56.43.7.9,1.37,1.38,2.1l-1.79,1.19c-.74-1.13-1.49-2.24-2.2-3.37a1,1,0,0,1,.22-1.22,15.37,15.37,0,0,1,3.79-3.15c1.73-.88,3.38-1.92,5.07-2.86a.77.77,0,0,0,.47-.78c0-1,0-2.05,0-3.16-.84,0-1.64,0-2.43,0-.18,0-.39.25-.51.44-1.18,1.74-2.34,3.49-3.5,5.23-.63.94-1.26,1-2.07.19l-3.84-3.84c-.72-.73-.72-1.21,0-1.94L44.05,47l-.64-1.28A1.1,1.1,0,0,1,44.17,44c1.19-.35,2.39-.69,3.59-1.11a33.68,33.68,0,0,0-20.39-2.59l-.09.2a26.26,26.26,0,0,0,3,1.55,32.06,32.06,0,0,0,3.37.88,1.1,1.1,0,0,1,1,1.41c-.34,2.34-.7,4.68-1,7a1.59,1.59,0,0,1-.79,1.23q-3.76,2.33-7.5,4.69a2,2,0,0,0-.73.88C24,59.53,23.4,61,22.82,62.4a1.14,1.14,0,0,1-1.46.84c-2.19-.32-4.38-.64-6.57-.93a2,2,0,0,0-.84.09,7.94,7.94,0,0,0-1.17.47,14,14,0,0,1-8,1.48c-.83-.06-1.17-.29-1.31-1.11-.24-1.38-.47-2.76-.74-4.35L2,60.46l-2-.83c.43-.89.82-1.76,1.26-2.59A36,36,0,0,1,9.37,46.71c.39-.35.28-.62.13-1C6.55,38.35,3.62,31,.62,23.61a6.83,6.83,0,0,1-.15-3.29c.26-3.5.59-7,.87-10.49A1.22,1.22,0,0,1,2,8.64,1.16,1.16,0,0,1,3.36,9c3.06,2.72,6.12,5.42,9.16,8.16a3.21,3.21,0,0,1,.76,1.15C15.85,24.7,18.39,31.08,21,37.46c.08.22.18.43.34.8.52-2.81,1-5.44,1.49-8.07.19-1.05.45-1.25,1.52-1.25h.92l1.48-5.15c.14-.48.28-.95.4-1.42a1.22,1.22,0,0,1,.93-.95.66.66,0,0,0,.38-.42q1-5.61,1.87-11.23a.81.81,0,0,0-.22-.61,2.37,2.37,0,0,1-.81-1.91c0-.51,0-1,0-1.54A2.25,2.25,0,0,1,31.4,3.14V0h2.12V3.09c1.75.5,2.17,1.07,2.17,2.83,0,.47,0,.94,0,1.41a2.4,2.4,0,0,1-.76,1.79,1,1,0,0,0-.26.72c.59,3.68,1.21,7.36,1.83,11a.63.63,0,0,0,.46.61,1.58,1.58,0,0,1,.85.89c.63,2,1.18,4,1.76,6.05,0,.15.09.29.16.51.37,0,.74,0,1.11,0,.8,0,1.15.28,1.29,1.06.45,2.42.88,4.83,1.33,7.25,0,.22.09.43.16.77l.35-.74q3.93-8.1,7.86-16.21c.36-.74.74-.83,1.86-.52l2.24-4.46c.64-1.29,1.08-1.41,2.28-.61l5.68,3.79c.84.57.94.95.5,1.85l-1.7,3.41c1,.78,1.07,1,.52,2.18q-4,8.63-8,17.25Zm-22.66.29a2,2,0,0,0-.36-.13A13.81,13.81,0,0,1,25.8,42c-.29-.21-.62-.35-.9-.57a1.37,1.37,0,0,0-1.42-.22A34.24,34.24,0,0,0,4.89,55.11a1.65,1.65,0,0,0-.34,1.48c.17.62.21,1.27.32,1.91.2,1.23.42,2.45.63,3.67a9.43,9.43,0,0,0,5-.69,24.45,24.45,0,0,1,3-1.23,2.43,2.43,0,0,1,1.1-.14c2,.26,3.93.55,5.89.85a.53.53,0,0,0,.7-.39c.47-1.26.95-2.51,1.5-3.72a2.78,2.78,0,0,1,.95-1.14c2.42-1.56,4.87-3.06,7.3-4.6a1.09,1.09,0,0,0,.51-.62C31.81,48.62,32.07,46.74,32.34,44.8ZM15.78,30.33l-8.73,3.5,4.36,10.91L19.67,40Zm25.69,8-1.31-7.2H24.78l-1.41,7.76.19.14a3.79,3.79,0,0,0,.68-.71,8.93,8.93,0,0,1,7.77-5,8.86,8.86,0,0,1,8.35,4.49A1,1,0,0,0,41.47,38.31ZM15,28.34,11.49,19.6,2.76,23.1l3.49,8.73Zm22.5.57c-.49-1.73-.95-3.38-1.45-5-.05-.15-.4-.3-.61-.31-1.85,0-3.7,0-5.55,0-.69,0-1,.18-1.13.84-.38,1.5-.83,3-1.26,4.52Zm18.09,8.77,2.29-5-7.72-3.43-2.28,4.56Zm-.88,2L47,35.77l-1.52,3.56,7.81,3.79ZM10.08,17.85l-6.75-6-.75,9Zm41,9.49,7.69,3.41L60.19,28l-7-4.7ZM34.42,21.39,32.63,10.68h-.31l-1.79,10.7ZM27.08,38c1.74-.16,3.48-.39,5.23-.45s3.52.06,5.27.1A6.83,6.83,0,0,0,27.08,38ZM55.64,21.48l1.55.68L59,18.57l-1.41-.94ZM59.15,23l1.55.69,1.5-3-1.4-.93c-.13.23-.22.41-.31.58ZM31.45,5.36V7.44h2.06V5.36Z"/><path class="cls-1" d="M8.88,22.5a3.22,3.22,0,1,1-3.22,3.18A3.22,3.22,0,0,1,8.88,22.5Zm1.06,3.19a1.07,1.07,0,0,0-1.08-1,1.07,1.07,0,1,0,1.08,1Z"/></svg>